<svg xmlns="http://www.w3.org/2000/svg" viewBox="0 0 332.42 299.03"><defs><style>.cls-1{isolation:isolate;}.cls-2{fill:#fff3f2;}.cls-3{fill:#2d7a7d;}.cls-4{fill:#f79e00;}.cls-5{fill:#040404;}.cls-6{fill:#fffefe;}.cls-7{fill:#fb4544;}.cls-8{fill:#ffb1af;}.cls-9{fill:#aad98d;}.cls-10{fill:#f9961f;}.cls-11{fill:#fe0c0c;}.cls-12,.cls-18,.cls-23{fill:#fff;}.cls-13,.cls-19,.cls-25{fill:#ffc23e;}.cls-13{opacity:0.37;}.cls-14,.cls-28{fill:#607189;}.cls-15{fill:#313f49;}.cls-16{fill:#ff676b;}.cls-17,.cls-27{opacity:0.41;}.cls-18,.cls-23,.cls-26{mix-blend-mode:overlay;}.cls-18{opacity:0.58;}.cls-20{fill:#7cc4ce;}.cls-21,.cls-22,.cls-24,.cls-25,.cls-28{mix-blend-mode:multiply;}.cls-22{opacity:0.3;}.cls-23,.cls-26{opacity:0.31;}.cls-24{opacity:0.18;}.cls-28{opacity:0.29;}</style></defs><g class="cls-1"><g id="Layer_3" data-name="Layer 3"><path class="cls-2" d="M147.44,12.3A166.58,166.58,0,0,1,207.82,5c6.85.44,13.78,1.33,20.1,4,14.6,6.22,23.52,20.72,33.12,33.36a198.13,198.13,0,0,0,30.81,32.27c11,9.16,23,17.21,32.41,28s15.88,25.3,13,39.31c-4.36,21.15-28.61,36.14-27,57.68.43,5.8,2.78,11.25,4.28,16.87,5.75,21.47-2,46-19.14,60.16s-42.6,17.37-62.65,7.77c-10.44-5-19.91-13.23-31.46-13.94-14.26-.87-26.16,9.84-38.64,16.79-30.07,16.76-71.06,10.75-95.06-13.94-9.42-9.69-16.2-21.63-24.84-32s-19.15-19.28-26.14-30.82a63,63,0,0,1-.87-62.39c7.74-13.63,20.75-24.56,24.58-39.76,1.86-7.38,1.35-15.13,1.94-22.72,2.25-29.41,22.49-56.71,50-67.4,18.28-7.12,35.62-6,55.24-5.94Z" transform="translate(-5.52 -4.67)"/><path class="cls-2" d="M147.44,12.3A166.58,166.58,0,0,1,207.82,5c6.85.44,13.78,1.33,20.1,4,14.6,6.22,23.52,20.72,33.12,33.36a198.13,198.13,0,0,0,30.81,32.27c11,9.16,23,17.21,32.41,28s15.88,25.3,13,39.31c-4.36,21.15-28.61,36.14-27,57.68.43,5.8,2.78,11.25,4.28,16.87,5.75,21.47-2,46-19.14,60.16s-42.6,17.37-62.65,7.77c-10.44-5-19.91-13.23-31.46-13.94-14.26-.87-26.16,9.84-38.64,16.79-30.07,16.76-71.06,10.75-95.06-13.94-9.42-9.69-16.2-21.63-24.84-32s-19.15-19.28-26.14-30.82a63,63,0,0,1-.87-62.39c7.74-13.63,20.75-24.56,24.58-39.76,1.86-7.38,1.35-15.13,1.94-22.72,2.25-29.41,22.49-56.71,50-67.4,18.28-7.12,35.62-6,55.24-5.94Z" transform="translate(-5.52 -4.67)"/></g><g id="OBJECTS"><path class="cls-3" d="M324.76,130.5a1.32,1.32,0,0,0,1.06-.15l3.67-1.45c.39-.15.78-.31,1.18-.42a1.08,1.08,0,0,1,1.47,1.25,4.86,4.86,0,0,1-.23,1.07,10.56,10.56,0,0,1-2.86,4.65,21.53,21.53,0,0,1-5.32,3.92c-.22.11-.51.17-.56.49.24.19.48.06.71,0,.46-.1.91-.27,1.38-.34a1.06,1.06,0,0,1,1.21,1.48,4.12,4.12,0,0,1-.5,1,10,10,0,0,1-3.14,3.06,23.84,23.84,0,0,1-12.13,3.5,47.66,47.66,0,0,1-7.56-.42,11.58,11.58,0,0,1-3.37-.78,22.21,22.21,0,0,1-5.82-3.73,23.39,23.39,0,0,1-6.43-11.73,26.23,26.23,0,0,1-.61-8.47c0-.53,0-1.11.62-1.34s1.07.2,1.44.68a36.38,36.38,0,0,0,3,3.48c.1.1.25.21.4.07a.36.36,0,0,0,.11-.26,37.78,37.78,0,0,1,.41-4.24,31.38,31.38,0,0,1,2.36-7.51q1-2.22,2.07-4.42a4.71,4.71,0,0,1,.57-.94.7.7,0,0,1,1.24.26,5.19,5.19,0,0,1,.09,1.25,11.87,11.87,0,0,0,1,4.59c0,.08.16.12.33.23a26.73,26.73,0,0,1,2.17-5.84,54.48,54.48,0,0,1,5.25-8.24,4.75,4.75,0,0,1,.64-.7.83.83,0,0,1,.88-.15.69.69,0,0,1,.47.75c-.1,1.1-.2,2.2-.35,3.29a58.65,58.65,0,0,0-.51,7.72c0,.14-.06.32.14.4s.28,0,.37-.17c2.42-3.67,5.57-6.72,8.64-9.82,2.63-2.66,5.38-5.19,8.23-7.62a5.78,5.78,0,0,1,1.41-1,1.15,1.15,0,0,1,1.65.71,5,5,0,0,1,.1,2.5c-.25,1.61-.47,3.23-.82,4.82a80.5,80.5,0,0,1-3.35,11.67,65.22,65.22,0,0,1-3.09,6.55c-.11.16-.22.32-.32.48s-.16.33-.11.39c.19.25.31-.05.47-.1s.07-.07.1-.11a.41.41,0,0,0,.21-.22c1.87-1.07,3.53-2.45,5.3-3.66a10,10,0,0,1,1.19-.76,1.28,1.28,0,0,1,1.9.76,5.1,5.1,0,0,1,.23,2.48,13.73,13.73,0,0,1-1.58,4.91,22.7,22.7,0,0,1-4.08,5.36l-.89.89h.09Zm-2.13,9.6-.13,0,0,.07Z" transform="translate(-5.52 -4.67)"/><path class="cls-4" d="M316.59,161.59A25.86,25.86,0,0,0,308.36,144a32.66,32.66,0,0,0-8.27-6c-.57-.28-1.12-.59-1.67-.9a28.09,28.09,0,0,0-8.73-3.13,15.65,15.65,0,0,0-7,.2,22.26,22.26,0,0,0-8.42,4.51,19.81,19.81,0,0,1-1.88,1.43,25.66,25.66,0,0,0-7.47,7.39,41,41,0,0,0-4.68,9.27q-2.56,7.29-4.94,14.65a45.08,45.08,0,0,0-1.93,8.51,42.27,42.27,0,0,0-.17,4.52,25.87,25.87,0,0,0,7.25,17.38c6,6.5,13.63,9.46,22.41,9.56A22.56,22.56,0,0,0,298,205.61a37.68,37.68,0,0,0,7.54-8.87,79.51,79.51,0,0,0,10.1-24A38.57,38.57,0,0,0,316.59,161.59Z" transform="translate(-5.52 -4.67)"/><path class="cls-5" d="M292.46,188.61c-.33.11-.68.24-1,.33-.55.15-1.11.29-1.68.4a4,4,0,0,1-4.34-2.42,10.73,10.73,0,0,1-.55-1.8,2,2,0,0,0-.41-1.07c-.47.14-1,.32-1.46.45a8.12,8.12,0,0,1-2.81.33,4.68,4.68,0,0,1-4.07-3.06c-.2-.48-.34-1-.49-1.45-.46-.23-.74.09-1.05.23a8.86,8.86,0,0,1-3,.82,5.06,5.06,0,0,1-5.28-3.19,9.92,9.92,0,0,1-.79-3.84,3.48,3.48,0,0,0-.16-1.42,5.59,5.59,0,0,0-1.59.71,15.65,15.65,0,0,1-4.14,1.49A2.56,2.56,0,0,1,258,175a.5.5,0,0,1-.22-.37.64.64,0,0,1,.24-.38.58.58,0,0,1,.3-.08c2.45-.13,4.5-1.35,6.58-2.48a1.94,1.94,0,0,0,1-1.48,15.21,15.21,0,0,1,1.58-4.28,9.16,9.16,0,0,1,1.67-2.29,3.09,3.09,0,0,1,1.17-.78,1,1,0,0,1,1.37.67,2.63,2.63,0,0,1,.08.93,6.21,6.21,0,0,1-.88,2.67,13.42,13.42,0,0,1-3.35,3.95,2.32,2.32,0,0,0-.93,1.89,12.38,12.38,0,0,0,.42,4.06,4.08,4.08,0,0,0,5,3.07,9.23,9.23,0,0,0,2.8-1,1,1,0,0,0,.57-1,14.33,14.33,0,0,1,1.25-6.45,12.41,12.41,0,0,1,1.66-2.86,4.83,4.83,0,0,1,1.67-1.41,1.77,1.77,0,0,1,2.67,1.28,5.07,5.07,0,0,1-.06,2.19,13.5,13.5,0,0,1-3.69,6.5,16.56,16.56,0,0,1-1.63,1.5,1.09,1.09,0,0,0-.4,1.25,8.35,8.35,0,0,0,.56,1.64,3.28,3.28,0,0,0,3,1.9,8.82,8.82,0,0,0,2.65-.4,1.91,1.91,0,0,0,1.61-2,15,15,0,0,1,2.39-6.62A5.87,5.87,0,0,1,288.6,173a1.85,1.85,0,0,1,2-.38,1.81,1.81,0,0,1,.92,1.87,8.45,8.45,0,0,1-.46,2.32A12.56,12.56,0,0,1,287,182.3a2.2,2.2,0,0,0-.92,2.56,6.49,6.49,0,0,0,.59,1.79,2.68,2.68,0,0,0,2.74,1.47,8.17,8.17,0,0,0,2.57-.74,1.1,1.1,0,0,0,.69-1,17.4,17.4,0,0,1,1.13-4.26,13.24,13.24,0,0,1,1.69-3.2,5,5,0,0,1,1.49-1.4,1.69,1.69,0,0,1,2.71,1.41,6.21,6.21,0,0,1-.64,2.89,12.23,12.23,0,0,1-3.6,4.73,10.63,10.63,0,0,1-1,.77,1,1,0,0,0-.46,1.09,9,9,0,0,0,.77,3.05,2.37,2.37,0,0,0,2.85,1.4,4.57,4.57,0,0,0,2-.89,14.61,14.61,0,0,0,1.77-1.57c1-1,1.87-2.13,2.82-3.19.66-.74,1.36-1.46,2-2.18.19-.2.45-.37.68-.15a.61.61,0,0,1,0,.74,9.3,9.3,0,0,1-.72,1.22,40.76,40.76,0,0,1-4.09,4.81,15.12,15.12,0,0,1-1.56,1.32,6.6,6.6,0,0,1-2.41,1.14,3.8,3.8,0,0,1-4.62-2.08,8.9,8.9,0,0,1-.73-2.24A2.28,2.28,0,0,0,292.46,188.61Zm-15.65-12.88c-.05.41-.12.83-.15,1.25a.37.37,0,0,0,.13.42c.23.14.4,0,.55-.13a12.85,12.85,0,0,0,4.13-6.56,3.57,3.57,0,0,0,.08-1.72.69.69,0,0,0-1.07-.5,4.29,4.29,0,0,0-1.55,1.53A14,14,0,0,0,276.81,175.73Zm13.5-.46c0-.37,0-.74,0-1.1a.46.46,0,0,0-.68-.38,3.56,3.56,0,0,0-1.31,1.33,14.9,14.9,0,0,0-1.74,3.7,16.28,16.28,0,0,0-.49,1.82c-.05.22-.23.53.09.68s.38-.11.53-.24a13,13,0,0,0,2.65-3.3A7.74,7.74,0,0,0,290.31,175.27Zm4.08,10.6a10.4,10.4,0,0,0,3.81-5.35c.18-.63.52-1.28-.08-1.88-.73,0-1.06.6-1.46,1.07a2.35,2.35,0,0,0-.19.25,14.38,14.38,0,0,0-2.13,5.2A5.27,5.27,0,0,0,294.39,185.87Zm-27-16.36a1.5,1.5,0,0,0,.5-.17,10.06,10.06,0,0,0,2.77-4.33,1.27,1.27,0,0,0,.06-.47.35.35,0,0,0-.15-.24.34.34,0,0,0-.28,0,3.83,3.83,0,0,0-.69.64A12.41,12.41,0,0,0,267.41,169.51Z" transform="translate(-5.52 -4.67)"/><path class="cls-5" d="M284.83,158.85a2.49,2.49,0,0,0-1.25.45,10.5,10.5,0,0,1-3.33.95,4.18,4.18,0,0,1-4.87-3.27,10.66,10.66,0,0,1-.32-3.41c-.35-.29-.63,0-.9.07a35.19,35.19,0,0,1-6,1.85,14.15,14.15,0,0,1-2.83.28,3.19,3.19,0,0,1-1.52-.34.38.38,0,0,1-.23-.37.32.32,0,0,1,.3-.31,4.07,4.07,0,0,1,.78,0,10.54,10.54,0,0,0,2.51-.11,32.1,32.1,0,0,0,7.37-2.27,1.55,1.55,0,0,0,1-1.13,15.43,15.43,0,0,1,1.25-3.4,12.18,12.18,0,0,1,2.09-2.94,4.35,4.35,0,0,1,1.71-1.12,1.5,1.5,0,0,1,2,.95,2.66,2.66,0,0,1-.07,2,8,8,0,0,1-2,2.81,15.64,15.64,0,0,1-3.26,2.47,1.9,1.9,0,0,0-1.06,1.78,8.41,8.41,0,0,0,.36,3.27,2.9,2.9,0,0,0,3,2.12,8.93,8.93,0,0,0,4.9-1.54,1.25,1.25,0,0,0,.54-.91c.16-.78.32-1.55.55-2.3a13.17,13.17,0,0,1,2.82-5.06,3.85,3.85,0,0,1,1.5-1.12,1.27,1.27,0,0,1,1.78,1,2.83,2.83,0,0,1-.13,1.55,11.32,11.32,0,0,1-2,3.72,16.19,16.19,0,0,1-2.92,2.87,1.23,1.23,0,0,0-.53,1.22,10.59,10.59,0,0,0,.87,3.67,4.22,4.22,0,0,0,5.6,2.05.87.87,0,0,0,.52-.88,13,13,0,0,1,.79-4,14.17,14.17,0,0,1,2.78-4.74,5.71,5.71,0,0,1,1.74-1.34,1.73,1.73,0,0,1,2.67,1.7,6.39,6.39,0,0,1-.42,2.32A12.78,12.78,0,0,1,298.4,161a16.31,16.31,0,0,1-3.56,3.33.88.88,0,0,0-.39,1.08,8.94,8.94,0,0,0,1,2.49,3.09,3.09,0,0,0,2.75,1.54,8.21,8.21,0,0,0,3.63-1,1.28,1.28,0,0,0,.86-1.34,14.67,14.67,0,0,1,1.05-5.55,11,11,0,0,1,1.68-3.2,5.52,5.52,0,0,1,1.08-1.13,1.67,1.67,0,0,1,2.84,1.11,4.75,4.75,0,0,1,0,1.25,10.72,10.72,0,0,1-1.77,4.85,13.09,13.09,0,0,1-2.87,3.33,1.49,1.49,0,0,0-.57,1.65,13.94,13.94,0,0,0,.57,2.29,2,2,0,0,0,2.43,1.52,12.31,12.31,0,0,0,2.61-.58c.32-.1.69-.39,1,0s0,.71-.51,1a6.73,6.73,0,0,1-4.26.81,3,3,0,0,1-2.24-1.8,11.5,11.5,0,0,1-.79-2.56c-.16-.67-.25-.72-.83-.49s-1.17.48-1.77.67a6.58,6.58,0,0,1-2.65.27,4.13,4.13,0,0,1-3.15-1.85,9,9,0,0,1-1.27-2.87.5.5,0,0,0-.69-.43,7.16,7.16,0,0,1-2.8.28,4.57,4.57,0,0,1-3.21-1.8,7,7,0,0,1-1.34-2.83C285.1,160.39,285,159.66,284.83,158.85Zm9.58,3.1c0,.26-.08.52-.1.78a.47.47,0,0,0,.09.28.32.32,0,0,0,.43,0,14.16,14.16,0,0,0,4.57-5.71,7.94,7.94,0,0,0,.41-1.52,3,3,0,0,0,0-.94.58.58,0,0,0-.89-.51,4.63,4.63,0,0,0-1.7,1.37A13.19,13.19,0,0,0,294.41,162Zm9.77,4.62c.25.05.38-.14.5-.28.58-.68,1.19-1.33,1.7-2.06a9.51,9.51,0,0,0,1.75-4.65,2.1,2.1,0,0,0-.08-1.08.45.45,0,0,0-.63-.24,3.88,3.88,0,0,0-1.24,1.4,15,15,0,0,0-2.08,6C304.07,166,303.9,166.3,304.18,166.57Zm-27.44-15.74a.63.63,0,0,0,.65-.08,10.58,10.58,0,0,0,4.13-4.22,1.71,1.71,0,0,0,.23-1.06c-.05-.66-.51-.94-1.08-.65a3.54,3.54,0,0,0-.78.52A11.31,11.31,0,0,0,276.74,150.83Zm9.56,5c.19,0,.32,0,.39,0A11.49,11.49,0,0,0,290.3,151a5.15,5.15,0,0,0,.24-1.23c0-.14,0-.35-.18-.38a1,1,0,0,0-.44.07,2.07,2.07,0,0,0-.5.38A12.09,12.09,0,0,0,286.3,155.88Z" transform="translate(-5.52 -4.67)"/><path class="cls-5" d="M285.86,202.77c-.74.27-1.32.52-1.92.68a4.07,4.07,0,0,1-4.89-1.91l-.08-.13c-.49-.77-.48-.75-1.44-.45a11.67,11.67,0,0,1-1.53.35,4.22,4.22,0,0,1-4.07-1.58,7.23,7.23,0,0,1-1.54-3.08,2.24,2.24,0,0,0-.41-1.19c-.49.17-1,.36-1.48.51a5.47,5.47,0,0,1-1.7.29,3.82,3.82,0,0,1-3.6-2.13,9,9,0,0,1-.75-1.91c-.11-.39-.1-.85-.52-1.18l-1.55.67A3,3,0,0,1,259,192a.49.49,0,0,1-.47-.36.37.37,0,0,1,.27-.48,11.75,11.75,0,0,0,2.58-1.17,1.26,1.26,0,0,0,.72-1.12,10.11,10.11,0,0,1,.67-3.07,7.06,7.06,0,0,1,.63-1.26,1.26,1.26,0,0,1,1.33-.66,1.39,1.39,0,0,1,1,1.09,3.21,3.21,0,0,1-.23,2.45,5.08,5.08,0,0,1-1.52,2,1.52,1.52,0,0,0-.54,1.82,12.48,12.48,0,0,0,.69,2.09,2.7,2.7,0,0,0,3.06,1.71,7.45,7.45,0,0,0,1.23-.25,2.32,2.32,0,0,0,2-2.13,9.86,9.86,0,0,1,1.14-3.59,5.55,5.55,0,0,1,1.31-1.76,1.17,1.17,0,0,1,2,.69,4,4,0,0,1-.14,2.33,7.3,7.3,0,0,1-2.39,3.28,2.3,2.3,0,0,0-.81,2.77,7.56,7.56,0,0,0,.76,1.89,3.36,3.36,0,0,0,4,1.78,6.63,6.63,0,0,0,1.05-.31,1.06,1.06,0,0,0,.8-1.18,9.55,9.55,0,0,1,.75-4.16,7.39,7.39,0,0,1,1.11-1.9,3.79,3.79,0,0,1,1.48-1.15,1.38,1.38,0,0,1,2,.95,4.06,4.06,0,0,1,0,2.34,8.49,8.49,0,0,1-1.9,3.24c-.49.55-1,1.06-1.56,1.56a.79.79,0,0,0-.16,1,3,3,0,0,0,3.72,1.83c.25-.06.5-.15.75-.22a1.78,1.78,0,0,0,1.5-1.89,7.56,7.56,0,0,1,1.31-4.17,3.33,3.33,0,0,1,1.08-1.13,1.24,1.24,0,0,1,2,.8,3.17,3.17,0,0,1,0,1.56,8.3,8.3,0,0,1-2.39,4,1.46,1.46,0,0,0-.42,2.07,1.65,1.65,0,0,0,1.86,1.15c.52,0,1-.16,1.56-.23a5.82,5.82,0,0,1,.93-.07.42.42,0,0,1,.43.39.74.74,0,0,1-.12.43.79.79,0,0,1-.36.29,6,6,0,0,1-3.25.35,2.78,2.78,0,0,1-1.92-1.51A14.78,14.78,0,0,1,285.86,202.77Zm-14.05-10.35a4.17,4.17,0,0,0,2-3.76.29.29,0,0,0-.16-.21.3.3,0,0,0-.28,0,6,6,0,0,0-1.58,4c-.15,0-.18,0-.1.09Zm7.68,4.69c.07.24-.28.72.07.9s.69-.35.95-.61a8.08,8.08,0,0,0,1.55-2.15,4.38,4.38,0,0,0,.43-1.5c0-.41.11-.84-.24-1.17s-.71,0-1.16.56A7.4,7.4,0,0,0,279.49,197.11Zm7.57,2.42c0-.09,0,.07,0,.22a.33.33,0,0,0,.16.22.27.27,0,0,0,.25-.08,5.92,5.92,0,0,0,1.63-3.47c0-.15,0-.32-.19-.38a.37.37,0,0,0-.4.14A6.83,6.83,0,0,0,287.06,199.53Zm-23.53-11.25A3.06,3.06,0,0,0,264.8,186c0-.25,0-.61-.23-.69s-.42.22-.52.46A5.44,5.44,0,0,0,263.53,188.28Z" transform="translate(-5.52 -4.67)"/><path class="cls-6" d="M326.46,113.16A.31.31,0,0,1,326,113l.36-.45.32.46A.45.45,0,0,1,326.46,113.16Z" transform="translate(-5.52 -4.67)"/><path class="cls-7" d="M76.31,213.47a138.93,138.93,0,0,0-16,9.66A120.41,120.41,0,0,1,49,230.36a37,37,0,0,1-11.9,4.09,24,24,0,0,1-17-3.66A30.32,30.32,0,0,1,9.62,219.52a31.64,31.64,0,0,1-3.57-21.23,32.78,32.78,0,0,1,14.77-22.56,24.59,24.59,0,0,1,3.23-1.86,42.83,42.83,0,0,1,8.48-2.67c1.42-.32,2.84-.59,4.25-.94A12.35,12.35,0,0,0,42,167.79a31.63,31.63,0,0,1,9.4-5.17,27,27,0,0,1,21.39.45,36.13,36.13,0,0,1,17.87,17.74,26.41,26.41,0,0,1,2.26,11.9,16.31,16.31,0,0,1-1.48,6.63,21.35,21.35,0,0,1-8.33,9.95A41,41,0,0,1,76.31,213.47Zm-11.2-47.62a4.56,4.56,0,0,0-4,1.66,4.65,4.65,0,0,0-.52,5.24,8.68,8.68,0,0,0,2.06,2.84,18.79,18.79,0,0,0,7.68,4.35,8.33,8.33,0,0,0,5.29-.15,3.23,3.23,0,0,0,2.35-4A9.88,9.88,0,0,0,76,171.43,14.3,14.3,0,0,0,65.11,165.85Z" transform="translate(-5.52 -4.67)"/><path class="cls-3" d="M29.92,162.41c-.46.6-1.2.62-1.83.85a10.19,10.19,0,0,0-5.76,5.08,7.56,7.56,0,0,0-.15,6.61,3.63,3.63,0,0,0,4,2.36,7.08,7.08,0,0,0,4.68-2.42,30.15,30.15,0,0,0,1.88-2.46,2.85,2.85,0,0,1,1-1.14c.46.21.69.73,1,1.15a13,13,0,0,0,3.61,3.37,5.65,5.65,0,0,0,3.13.95,2.24,2.24,0,0,0,2.4-2.31,5.81,5.81,0,0,0-1.64-4.34c-.47-.5-1.09-.85-1.38-1.52.43-.36.92-.15,1.38-.16,1.52,0,3,0,4.56,0a14.06,14.06,0,0,0,3.46-.57,5.17,5.17,0,0,0,2.13-1.23,2.25,2.25,0,0,0,0-3.46,4.86,4.86,0,0,0-2-1.08,16.57,16.57,0,0,0-4.69-.78l-3.52-.09a12.74,12.74,0,0,0-3.68.48c-.53.14-1.06.3-1.6.43-.7.17-.92.09-1.12-.51a18.56,18.56,0,0,1-1.15-5.24,6.94,6.94,0,0,1,2.92-6.08c.55-.41,1.18-.73,1.75-1.11a8.31,8.31,0,0,0,1.18-.83,1.23,1.23,0,0,0,0-2,30.43,30.43,0,0,0-5.63-3.84,2.45,2.45,0,0,0-3.19.48,6.28,6.28,0,0,1-.79.66,9.82,9.82,0,0,0-4,7.83,15.46,15.46,0,0,0,2.62,10c.15.23.28.47.41.71A1.08,1.08,0,0,1,29.92,162.41Z" transform="translate(-5.52 -4.67)"/><path class="cls-6" d="M76,171.43a14.3,14.3,0,0,0-10.87-5.58,4.56,4.56,0,0,0-4,1.66,4.65,4.65,0,0,0-.52,5.24,8.68,8.68,0,0,0,2.06,2.84,18.79,18.79,0,0,0,7.68,4.35,8.33,8.33,0,0,0,5.29-.15,3.23,3.23,0,0,0,2.35-4A9.88,9.88,0,0,0,76,171.43Z" transform="translate(-5.52 -4.67)"/><path class="cls-8" d="M68.81,124.09a84.74,84.74,0,0,1-12.12-2.88c-2.06-.6-4.09-1.3-6.08-2.08a44.91,44.91,0,0,1-13-8.07,22.61,22.61,0,0,1-2.6-2.67,42.61,42.61,0,0,1-5.8-8.83,25.73,25.73,0,0,1-1-21.31A20.38,20.38,0,0,1,39.38,67.06a9.48,9.48,0,0,1,3.2-.8,4.72,4.72,0,0,1,2,.2c.71.25,1.47.39,2.21.57,12.27,3.1,21.27,10.22,26.7,21.72a56.46,56.46,0,0,1,4.75,16.69c.1.68.19,1.36.34,2a.84.84,0,0,0,.89.71.93.93,0,0,0,.89-.73,3.44,3.44,0,0,0,.07-1.43,66.65,66.65,0,0,0-5.53-19.89C70.49,76.83,63.3,70.49,54,66.45a25.77,25.77,0,0,0-6.14-1.86,11.08,11.08,0,0,1-1.41-.32.45.45,0,0,1-.28-.66,9,9,0,0,1,1.79-2.77,18.2,18.2,0,0,1,8.9-5.45A24.52,24.52,0,0,1,71.1,56a19.54,19.54,0,0,1,6.38,3.78A34.22,34.22,0,0,1,87.91,75.67a64,64,0,0,1,2.8,16.92,100.28,100.28,0,0,1-.43,12.85,46,46,0,0,1-3.12,13.06,13.54,13.54,0,0,1-1.24,2.39,7.7,7.7,0,0,1-5.16,3.52,19.16,19.16,0,0,1-5,.31A62.93,62.93,0,0,1,68.81,124.09Zm-33-33a15.33,15.33,0,0,0-.2-3.95,3.7,3.7,0,0,0-.4-.94.92.92,0,0,0-1.06-.44.77.77,0,0,0-.49.83c.18,1.51.38,3,.63,4.5.15.83.6,1.38.87,1.22A1.64,1.64,0,0,0,35.78,91.07ZM42.15,98a11.6,11.6,0,0,0,0-2.7c-.1-.54-.14-1.08-.26-1.61a.79.79,0,0,0-.69-.66.93.93,0,0,0-.88.71,1.84,1.84,0,0,0-.1.6,12.78,12.78,0,0,0,.46,3.43,3.66,3.66,0,0,0,.42.92.67.67,0,0,0,.52.24.76.76,0,0,0,.4-.39A2,2,0,0,0,42.15,98Zm5.07-7.5a8.53,8.53,0,0,0-.45-3.67.77.77,0,0,0-.81-.52.85.85,0,0,0-.81.8,6.47,6.47,0,0,0,1,4,.65.65,0,0,0,.53.23c.16,0,.3-.24.43-.39S47.15,90.77,47.22,90.5ZM38.42,84a8,8,0,0,0-.31-3.08.76.76,0,0,0-1.51.19,5,5,0,0,0,1.07,3.45.45.45,0,0,0,.36.07.54.54,0,0,0,.28-.26A1.4,1.4,0,0,0,38.42,84Z" transform="translate(-5.52 -4.67)"/><path class="cls-3" d="M35.07,69.37a16.41,16.41,0,0,1-12.81-2.83,54.36,54.36,0,0,1-4.45-3.39c-2.9-2.46-5.74-5-8.6-7.49a16.15,16.15,0,0,1-1.15-1.19,1.49,1.49,0,0,1,.56-2.41,5.22,5.22,0,0,1,2.2-.55,40.14,40.14,0,0,1,5.59.13A36.3,36.3,0,0,1,32.14,57c3.68,2.21,7,4.87,10.49,7.41l.82.62a.7.7,0,0,1,.07,1.2,7.42,7.42,0,0,1-1.33,1,15.84,15.84,0,0,1-3.86,1.47C37.25,69,36.16,69.15,35.07,69.37Z" transform="translate(-5.52 -4.67)"/><path class="cls-5" d="M26.23,41.9a5.8,5.8,0,0,1,2.19-3.57,2,2,0,0,1,2.33,0A10.07,10.07,0,0,1,33,40.43,60.38,60.38,0,0,1,39.2,49a133.81,133.81,0,0,1,7,13.35,8,8,0,0,1,.38,1A1.51,1.51,0,0,1,46.12,65a7.15,7.15,0,0,1-2.34,1.29c-1.35.53-1.56.45-2.3-.84-2.1-3.65-4.55-7.09-6.94-10.55-2.27-3.29-4.66-6.51-7-9.77-.36-.5-.68-1-1-1.56A2.69,2.69,0,0,1,26.23,41.9Z" transform="translate(-5.52 -4.67)"/><path class="cls-6" d="M35.78,91.07a1.64,1.64,0,0,1-.65,1.22c-.27.16-.72-.39-.87-1.22-.25-1.49-.45-3-.63-4.5a.77.77,0,0,1,.49-.83.92.92,0,0,1,1.06.44,3.7,3.7,0,0,1,.4.94A15.33,15.33,0,0,1,35.78,91.07Z" transform="translate(-5.52 -4.67)"/><path class="cls-6" d="M47.22,90.5c-.07.27-.07.36-.11.4s-.27.36-.43.39a.65.65,0,0,1-.53-.23,6.47,6.47,0,0,1-1-4,.85.85,0,0,1,.81-.8.77.77,0,0,1,.81.52A8.53,8.53,0,0,1,47.22,90.5Z" transform="translate(-5.52 -4.67)"/><path class="cls-6" d="M38.42,84a1.4,1.4,0,0,1-.11.37.54.54,0,0,1-.28.26.45.45,0,0,1-.36-.07,5,5,0,0,1-1.07-3.45.76.76,0,0,1,1.51-.19A8,8,0,0,1,38.42,84Z" transform="translate(-5.52 -4.67)"/><path class="cls-9" d="M225.16,66.31a45.5,45.5,0,0,1,3.7-9.13,29.42,29.42,0,0,1,9.07-10.26c4.6-3.19,9.41-3.28,14.34-1a28.2,28.2,0,0,1,9.54,7.92c.37.45.72.9,1.1,1.38a8.73,8.73,0,0,0,.87-.3,23.76,23.76,0,0,1,9.82-2,19.18,19.18,0,0,1,13,4.47c4.37,3.69,7.07,8.33,7.31,14.19,0,.3,0,.59.06.88a39.37,39.37,0,0,1-1.18,12.61A42.83,42.83,0,0,1,289,94.22,61.19,61.19,0,0,1,280.24,106a16.27,16.27,0,0,1-5.31,3.82,30.17,30.17,0,0,1-6.66,2.17,15.59,15.59,0,0,1-15-4.56c-.46-.47-.9-1-1.36-1.44-2.07-2.09-1.8-2.14-4.45-.92a11.65,11.65,0,0,1-3.56,1,12.92,12.92,0,0,1-9.1-2.48,19,19,0,0,1-4.93-5.23,32.16,32.16,0,0,1-5.38-14A62,62,0,0,1,224,73.66,30.42,30.42,0,0,1,225.16,66.31Z" transform="translate(-5.52 -4.67)"/><path class="cls-3" d="M263.68,46.39a101.64,101.64,0,0,0-2.14-12.21,10.55,10.55,0,0,0-.6-2.1,1.3,1.3,0,0,0-2.3-.32,6.09,6.09,0,0,0-.86,1.51,34.5,34.5,0,0,0-2.49,11.29,11.93,11.93,0,0,0,.66,4.52,17.53,17.53,0,0,0,4.7,7.79l.83.71a1.54,1.54,0,0,0,1.82.26,17.69,17.69,0,0,0,7.54-6.15,23.46,23.46,0,0,0,2.51-5.1A60.46,60.46,0,0,0,276,34.18a1.61,1.61,0,0,0,0-.44,1.16,1.16,0,0,0-.7-1,1,1,0,0,0-1,.26c-1.41,1.37-2.89,2.69-4.18,4.17a42.68,42.68,0,0,0-5.39,8c-.21.38-.45.74-.68,1.11C264,46.26,263.93,46.27,263.68,46.39Z" transform="translate(-5.52 -4.67)"/><path class="cls-5" d="M278.29,82.44c0,.34,0,1,.06,1.62a.49.49,0,0,1-.38.52.6.6,0,0,1-.61-.27,1.72,1.72,0,0,1-.28-.44c-.29-.88-.57-1.77-.83-2.67a1.3,1.3,0,0,1,0-.52.77.77,0,0,1,1.47-.37A6.72,6.72,0,0,1,278.29,82.44Z" transform="translate(-5.52 -4.67)"/><path class="cls-5" d="M286.29,79.49c0,.4.12.92.15,1.44a.59.59,0,0,1-.36.55.6.6,0,0,1-.65-.11,1.59,1.59,0,0,1-.34-.39,7.19,7.19,0,0,1-.86-3.17.74.74,0,0,1,.55-.8.77.77,0,0,1,.9.36A5.66,5.66,0,0,1,286.29,79.49Z" transform="translate(-5.52 -4.67)"/><path class="cls-5" d="M279.69,72.3a3.81,3.81,0,0,1-.12,2.3.56.56,0,0,1-.39.3.51.51,0,0,1-.43-.22,5.8,5.8,0,0,1-.94-3.13,1.48,1.48,0,0,1,.2-.66.69.69,0,0,1,1.05-.12A3.27,3.27,0,0,1,279.69,72.3Z" transform="translate(-5.52 -4.67)"/><path class="cls-5" d="M280.68,61.17a3.9,3.9,0,0,1,0,1.63.44.44,0,0,1-.58.22,1.88,1.88,0,0,1-.41-.32,5.28,5.28,0,0,1-1-2.75,1.09,1.09,0,0,1,0-.18.8.8,0,0,1,.53-.82.71.71,0,0,1,.86.45C280.34,60.05,280.53,60.73,280.68,61.17Z" transform="translate(-5.52 -4.67)"/><path class="cls-5" d="M272.24,68.13a2.21,2.21,0,0,1,0-1.19.74.74,0,0,1,1.16-.29,1.43,1.43,0,0,1,.31.42,5.4,5.4,0,0,1,.33,3.1.55.55,0,0,1-.35.35.54.54,0,0,1-.47-.13,2.27,2.27,0,0,1-.48-.72C272.5,69.12,272.36,68.54,272.24,68.13Z" transform="translate(-5.52 -4.67)"/><path class="cls-5" d="M287.05,67.53A3.55,3.55,0,0,1,287,69.7a.6.6,0,0,1-.9.17,3.36,3.36,0,0,1-.52-3.15.56.56,0,0,1,.56-.36.9.9,0,0,1,.6.28A5.27,5.27,0,0,1,287.05,67.53Z" transform="translate(-5.52 -4.67)"/><path class="cls-5" d="M274.08,77.71c.05.4.08.63.1.86.07.68-.06,1-.38,1-.5,0-.74-.31-.94-.67a4.53,4.53,0,0,1-.64-2,.85.85,0,0,1,.67-.91.8.8,0,0,1,.85.49A8.86,8.86,0,0,1,274.08,77.71Z" transform="translate(-5.52 -4.67)"/><path class="cls-10" d="M109.52,67.51a35.79,35.79,0,0,1,9.26-23.39A33.45,33.45,0,0,1,140,32.7c10.86-1.44,20.37,1.79,28.3,9.35a34.81,34.81,0,0,1,10.49,20.71,36.38,36.38,0,0,1-16.18,35.79,32.61,32.61,0,0,1-21,5.3c-12.51-1.17-21.8-7.46-27.86-18.44A35.77,35.77,0,0,1,109.52,67.51Zm67.43.68a34.1,34.1,0,0,0-1.47-10.1c-4.85-16-20.12-25.49-35.6-23.18a31.72,31.72,0,0,0-20,11.19,33.09,33.09,0,0,0-7.94,22,33.51,33.51,0,0,0,5,17.92c9.11,14.84,28,19.94,42.91,11.39C171,91,176.41,80.94,177,68.19Z" transform="translate(-5.52 -4.67)"/><path class="cls-6" d="M177,68.19C176.41,80.94,171,91,159.83,97.39c-15,8.55-33.8,3.45-42.91-11.39a33.51,33.51,0,0,1-5-17.92,33.09,33.09,0,0,1,7.94-22,31.72,31.72,0,0,1,20-11.19c15.48-2.31,30.75,7.19,35.6,23.18A34.1,34.1,0,0,1,177,68.19Zm-6.62-7.63c0-.79,0-1.59,0-2.39a4.19,4.19,0,0,0-1.78-3.42,12.69,12.69,0,0,0-1.5-1,6.83,6.83,0,0,1-3.2-4.18c-.26-.76-.51-1.52-.78-2.27a4.73,4.73,0,0,0-4.84-3.47,4.83,4.83,0,0,1-4.14-2,5.38,5.38,0,0,0-2-1.63,3.64,3.64,0,0,0-4.13.29c-.27.2-.55.39-.81.6a3.13,3.13,0,0,1-3.9.19c-.51-.32-1-.69-1.52-1a1.5,1.5,0,0,0-1.85.23c-.39.36-.76.76-1.11,1.15a1.12,1.12,0,0,1-1.07.37c-.93-.13-1.86-.23-2.78-.33a3.48,3.48,0,0,0-2.74,1,9,9,0,0,0-1.77,2.17,5.25,5.25,0,0,1-2.92,2.3c-.63.22-1.27.42-1.91.6-2.34.65-3.71,2.43-3.24,4.74a7.32,7.32,0,0,1-1.93,6.82,8,8,0,0,0-.62.79,11.83,11.83,0,0,0-1.55,3c-.72,2.11-.87,4.14.51,6.11a6.5,6.5,0,0,1,1,4.41c-.08.86-.21,1.72-.25,2.59a5.85,5.85,0,0,0,2.58,5.53c.44.3.89.59,1.33.9a7.92,7.92,0,0,1,3.16,4c.18.5.41,1,.63,1.47,1.47,3.19,2.43,3.78,5.88,3.56a6.31,6.31,0,0,1,4.18,1.09c.65.46,1.31.92,2,1.34a5.32,5.32,0,0,0,3.85.74,19.43,19.43,0,0,0,2.14-.47,14,14,0,0,1,7.7-.36,6.22,6.22,0,0,0,7-2.6,29.92,29.92,0,0,1,5.15-5.57,7.58,7.58,0,0,0,.85-.85,6.67,6.67,0,0,0,1.86-4.32A6.76,6.76,0,0,1,169,77.18c.47-.74,1-1.46,1.36-2.22a9.5,9.5,0,0,0,.73-8.29A11.92,11.92,0,0,1,170.33,60.56Z" transform="translate(-5.52 -4.67)"/><path class="cls-10" d="M170.33,60.56a11.92,11.92,0,0,0,.8,6.11A9.5,9.5,0,0,1,170.4,75c-.41.76-.89,1.48-1.36,2.22a6.76,6.76,0,0,0-1.19,3.56A6.67,6.67,0,0,1,166,85.06a7.58,7.58,0,0,1-.85.85A29.92,29.92,0,0,0,160,91.48a6.22,6.22,0,0,1-7,2.6,14,14,0,0,0-7.7.36,19.43,19.43,0,0,1-2.14.47,5.32,5.32,0,0,1-3.85-.74c-.68-.42-1.34-.88-2-1.34a6.31,6.31,0,0,0-4.18-1.09c-3.45.22-4.41-.37-5.88-3.56-.22-.48-.45-1-.63-1.47a7.92,7.92,0,0,0-3.16-4c-.44-.31-.89-.6-1.33-.9a5.85,5.85,0,0,1-2.58-5.53c0-.87.17-1.73.25-2.59a6.5,6.5,0,0,0-1-4.41c-1.38-2-1.23-4-.51-6.11a11.83,11.83,0,0,1,1.55-3,8,8,0,0,1,.62-.79,7.32,7.32,0,0,0,1.93-6.82c-.47-2.31.9-4.09,3.24-4.74.64-.18,1.28-.38,1.91-.6a5.25,5.25,0,0,0,2.92-2.3,9,9,0,0,1,1.77-2.17,3.48,3.48,0,0,1,2.74-1c.92.1,1.85.2,2.78.33a1.12,1.12,0,0,0,1.07-.37c.35-.39.72-.79,1.11-1.15a1.5,1.5,0,0,1,1.85-.23c.53.28,1,.65,1.52,1a3.13,3.13,0,0,0,3.9-.19c.26-.21.54-.4.81-.6a3.64,3.64,0,0,1,4.13-.29,5.38,5.38,0,0,1,2,1.63,4.83,4.83,0,0,0,4.14,2,4.73,4.73,0,0,1,4.84,3.47c.27.75.52,1.51.78,2.27a6.83,6.83,0,0,0,3.2,4.18,12.69,12.69,0,0,1,1.5,1,4.19,4.19,0,0,1,1.78,3.42C170.34,59,170.33,59.77,170.33,60.56ZM146.6,65.47l0-.07a.88.88,0,0,1-.1-.76l1.17-6.51c.68-3.81,1.37-7.62,2-11.44a4,4,0,0,0,0-1.19.53.53,0,0,0-.93-.16,3.85,3.85,0,0,0-.53,1.7Q146.6,55.8,145,64.58a5.25,5.25,0,0,1-.22,1,.31.31,0,0,1-.49.13c-.39-.37-.74-.77-1.1-1.17L133,52.93c-.84-1-1.7-1.89-2.57-2.82a4.41,4.41,0,0,0-.93-.73.63.63,0,0,0-.86.83,3.35,3.35,0,0,0,.54.84c.68.83,1.38,1.64,2.08,2.44q5.31,6,10.63,12c.37.43.93.77,1,1.48a8.34,8.34,0,0,1-1,0l-16.28-2.21c-1.53-.2-3.06-.37-4.59-.52a3.88,3.88,0,0,0-1.17.11.58.58,0,0,0-.32.45.64.64,0,0,0,.25.5,5.1,5.1,0,0,0,1.93.5l4.37.56c5,.63,9.94,1.25,14.91,1.89.52.07,1.31-.11,1.47.39.21.66-.62.9-1,1.24-4.51,3.57-9,7.11-13.55,10.67a8,8,0,0,0-1.18,1.06.67.67,0,0,0,.09.91.75.75,0,0,0,.74.19,3,3,0,0,0,1.15-.77c4.57-3.6,9.13-7.22,13.7-10.81.4-.32.85-1,1.3-.76s.17,1.07.07,1.6c-1,5.52-2,11-3,16.56A7.12,7.12,0,0,0,140.5,90a.56.56,0,0,0,.49.55.59.59,0,0,0,.68-.29,4.42,4.42,0,0,0,.34-1.14c.88-4.87,1.72-9.74,2.62-14.6a27.32,27.32,0,0,1,.94-4.48,3.34,3.34,0,0,1,.59.41c4.36,5,8.87,9.83,13.05,15a5.25,5.25,0,0,0,.68.73.94.94,0,0,0,1.27,0,1,1,0,0,0,.11-1.28,4.42,4.42,0,0,0-.39-.47c-4.11-4.21-7.87-8.73-11.8-13.12-.35-.39-.71-.79-1-1.22a.65.65,0,0,1-.13-.52c.05-.11.33-.18.5-.16,1.79.2,3.58.41,5.37.66,4.17.59,8.33,1.22,12.49,1.82a5.62,5.62,0,0,0,1,.08.8.8,0,0,0,.7-.62.83.83,0,0,0-.47-1,5.68,5.68,0,0,0-1.16-.23c-.87-.09-1.74-.11-2.6-.22q-7.77-.95-15.52-1.93c-.32,0-.74,0-.81-.39,0-.18.25-.44.43-.61s.52-.42.78-.63L160,57.27c.84-.66,1.65-1.35,2.46-2.06a2.54,2.54,0,0,0,.61-.77.58.58,0,0,0-.6-.77,1.67,1.67,0,0,0-.73.3c-.77.53-1.53,1.08-2.26,1.66-3.79,3-7.56,6-11.35,8.93C147.64,64.91,147.27,65.45,146.6,65.47Z" transform="translate(-5.52 -4.67)"/><path class="cls-7" d="M146.6,65.47c.67,0,1-.56,1.5-.91,3.79-3,7.56-6,11.35-8.93.73-.58,1.49-1.13,2.26-1.66a1.67,1.67,0,0,1,.73-.3.58.58,0,0,1,.6.77,2.54,2.54,0,0,1-.61.77c-.81.71-1.62,1.4-2.46,2.06L148.62,66.2c-.26.21-.54.4-.78.63s-.46.43-.43.61c.07.39.49.35.81.39q7.75,1,15.52,1.93c.86.11,1.73.13,2.6.22a5.68,5.68,0,0,1,1.16.23.83.83,0,0,1,.47,1,.8.8,0,0,1-.7.62,5.62,5.62,0,0,1-1-.08c-4.16-.6-8.32-1.23-12.49-1.82-1.79-.25-3.58-.46-5.37-.66-.17,0-.45,0-.5.16A.65.65,0,0,0,148,70c.33.43.69.83,1,1.22,3.93,4.39,7.69,8.91,11.8,13.12a4.42,4.42,0,0,1,.39.47,1,1,0,0,1-.11,1.28.94.94,0,0,1-1.27,0,5.25,5.25,0,0,1-.68-.73c-4.18-5.13-8.69-10-13.05-15a3.34,3.34,0,0,0-.59-.41,27.32,27.32,0,0,0-.94,4.48c-.9,4.86-1.74,9.73-2.62,14.6a4.42,4.42,0,0,1-.34,1.14.59.59,0,0,1-.68.29.56.56,0,0,1-.49-.55,7.12,7.12,0,0,1,.13-1.39c1-5.52,2-11,3-16.56.1-.53.51-1.28-.07-1.6s-.9.44-1.3.76c-4.57,3.59-9.13,7.21-13.7,10.81a3,3,0,0,1-1.15.77.75.75,0,0,1-.74-.19.67.67,0,0,1-.09-.91,8,8,0,0,1,1.18-1.06c4.52-3.56,9-7.1,13.55-10.67.43-.34,1.26-.58,1-1.24-.16-.5-.95-.32-1.47-.39C136,67.64,131,67,126,66.39l-4.37-.56a5.1,5.1,0,0,1-1.93-.5.64.64,0,0,1-.25-.5.58.58,0,0,1,.32-.45,3.88,3.88,0,0,1,1.17-.11c1.53.15,3.06.32,4.59.52L141.82,67a8.34,8.34,0,0,0,1,0c0-.71-.59-1-1-1.48q-5.31-6-10.63-12c-.7-.8-1.4-1.61-2.08-2.44a3.35,3.35,0,0,1-.54-.84.63.63,0,0,1,.86-.83,4.41,4.41,0,0,1,.93.73c.87.93,1.73,1.87,2.57,2.82l10.21,11.58c.36.4.71.8,1.1,1.17a.31.31,0,0,0,.49-.13,5.25,5.25,0,0,0,.22-1q1.62-8.78,3.22-17.54a3.85,3.85,0,0,1,.53-1.7.53.53,0,0,1,.93.16,4,4,0,0,1,0,1.19c-.67,3.82-1.36,7.63-2,11.44l-1.17,6.51a.88.88,0,0,0,.1.76c-.16-.06-.25,0-.23.17s.06.16.09.16A.19.19,0,0,0,146.6,65.47Z" transform="translate(-5.52 -4.67)"/><path class="cls-11" d="M146.6,65.47a.19.19,0,0,1-.19.26s-.08-.1-.09-.16.07-.23.23-.17Z" transform="translate(-5.52 -4.67)"/><path class="cls-12" d="M147.63,72.35c.09.52.19,1.05.27,1.57a5.59,5.59,0,0,1,0,1,1.28,1.28,0,0,1-.84,1.25,1.21,1.21,0,0,1-1.41-.48,7.62,7.62,0,0,1-.77-1.17c-.32-.58-.59-1.19-.88-1.8-.51-.1-.62.37-.85.64a7.24,7.24,0,0,1-1.44,1.38,2.77,2.77,0,0,1-1.31.47,1.23,1.23,0,0,1-1.2-1.78,12.62,12.62,0,0,1,.88-1.32.37.37,0,0,0-.28-.58c-.39-.07-.8-.07-1.18-.17a3.67,3.67,0,0,1-1.09-.47,1.31,1.31,0,0,1,.29-2.37,5.75,5.75,0,0,1,1.36-.33c.46-.07.93,0,1.4-.08a.35.35,0,0,0,.23-.57c-.58-.65-1.17-1.29-1.74-1.94a4.28,4.28,0,0,1-1.07-1.67,1.43,1.43,0,0,1,.3-1.49,1.13,1.13,0,0,1,1.47,0,18.6,18.6,0,0,1,1.58,1.23c.5.41.83,1,1.48,1.29.5-.55.4-1.28.65-1.89a9.06,9.06,0,0,1,1.18-2.32,1.27,1.27,0,0,1,1.21-.57A1.34,1.34,0,0,1,147,61.27a6.45,6.45,0,0,1,.1,2.19.56.56,0,0,0,.38.61.49.49,0,0,0,.53-.14l.93-.77a4.21,4.21,0,0,1,.48-.35,1.85,1.85,0,0,1,2.39,0,1.75,1.75,0,0,1,0,2.23,13.24,13.24,0,0,1-2,2.53l-.64.72c.13.55.58.54.93.67a4,4,0,0,1,2,1.34,1.29,1.29,0,0,1,.25,1.48,1.33,1.33,0,0,1-1.3.77,6.59,6.59,0,0,1-1.18-.18c-.65-.17-1.28-.37-1.92-.56-.15,0-.4-.16-.45-.11C147.35,71.94,147.44,72.17,147.63,72.35Zm-.29-8-.13-.14a1.23,1.23,0,0,0-.12.26s.07.08.11.13Z" transform="translate(-5.52 -4.67)"/><ellipse class="cls-13" cx="167.38" cy="284.29" rx="119.75" ry="14.74"/><path class="cls-14" d="M188.94,139.27c.89-.54,24.07-40,68.83-43.87,0,0-22.82,12.12-5.35,33,0,0-15.87,10.34-8.2,19.08,0,0-10.34,6.24-6.24,13.55l-31.74,1.61Z" transform="translate(-5.52 -4.67)"/><path class="cls-15" d="M252.42,128.39c-17.47-20.87,5.35-33,5.35-33a80.14,80.14,0,0,0-10.62,1.65c-10.18,4.33-26.13,12.76-34,26.88l5-.71s-16.94,17.29-16.58,27.28a18.62,18.62,0,0,0,5.14,12.1L238,161c-4.1-7.31,6.24-13.55,6.24-13.55C236.55,138.73,252.42,128.39,252.42,128.39Z" transform="translate(-5.52 -4.67)"/><path class="cls-16" d="M209.15,161.38c10.9-6,22.29-11.65,34.56-13.58l.51-.33a9.09,9.09,0,0,1-1.2-1.72c-12.4,2-23.92,7.75-35,13.78C206.86,160.19,207.94,162,209.15,161.38Z" transform="translate(-5.52 -4.67)"/><path class="cls-16" d="M207.38,153.14c-1,.91.48,2.42,1.51,1.51a114.58,114.58,0,0,1,38.93-22.54,36.82,36.82,0,0,1,4.54-3.68A116.86,116.86,0,0,0,207.38,153.14Z" transform="translate(-5.52 -4.67)"/><path class="cls-16" d="M207.39,150.18a236,236,0,0,1,39.51-42.8,19.86,19.86,0,0,1,3-5.26,238.25,238.25,0,0,0-44.38,47C204.74,150.22,206.59,151.29,207.39,150.18Z" transform="translate(-5.52 -4.67)"/><path class="cls-17" d="M243.19,146a8.35,8.35,0,0,1-.46-.89c-5.19,1.46-16.6,5.4-21.34,5.53-6.77.18,10.17-13.91,10.17-13.91s-15.87,8.56-13.73,3.74c1.68-3.77,20.47-23.13,28.5-31.3a16.48,16.48,0,0,1,.8-2.4c-12.17,7.08-38,38.7-38,38.7L226.21,118l-4.82,2.32c1.37-5.2,15.88-16.6,22.14-21.69-10,4.67-23.39,12.72-30.34,25.26l5-.71s-16.94,17.29-16.58,27.28a18,18,0,0,0,.61,4.05c.47,1.21.93,2.42,1.38,3.59a19.1,19.1,0,0,0,3.15,4.46l28-1.41c-4.52-.71-11.74-2.09-15.15-4.09C215,154.37,236.2,149,243.19,146Z" transform="translate(-5.52 -4.67)"/><path class="cls-15" d="M203.51,121.81a129.65,129.65,0,0,0-14.57,17.46l2.77,3.74,8.28,8.74L203.2,146l-2.67-5,3.74-8.74-6.42,6.78-3.38-2.86a3.72,3.72,0,0,1,.15-.85C195.5,132.21,200.09,126.14,203.51,121.81Z" transform="translate(-5.52 -4.67)"/><path class="cls-15" d="M206.36,129.64a1.07,1.07,0,0,1-2.14,0,1.07,1.07,0,0,1,2.14,0Z" transform="translate(-5.52 -4.67)"/><path class="cls-15" d="M206.36,133.8a.48.48,0,1,1-.48-.48A.48.48,0,0,1,206.36,133.8Z" transform="translate(-5.52 -4.67)"/><path class="cls-15" d="M202.79,135.58a2.26,2.26,0,1,1-2.26-2.26A2.26,2.26,0,0,1,202.79,135.58Z" transform="translate(-5.52 -4.67)"/><path class="cls-15" d="M200.41,130.71h0Z" transform="translate(-5.52 -4.67)"/><path class="cls-15" d="M205.4,140.57a1.55,1.55,0,1,1-1.54-1.54A1.54,1.54,0,0,1,205.4,140.57Z" transform="translate(-5.52 -4.67)"/><circle class="cls-15" cx="198.69" cy="119.38" r="1.19"/><path class="cls-15" d="M200.89,130.71a.72.72,0,1,1-.72-.72A.71.71,0,0,1,200.89,130.71Z" transform="translate(-5.52 -4.67)"/><circle class="cls-14" cx="233.53" cy="118.79" r="1.31"/><path class="cls-14" d="M241.78,118.34a.48.48,0,0,1-.47.48.49.49,0,0,1-.48-.48.48.48,0,0,1,.48-.47A.47.47,0,0,1,241.78,118.34Z" transform="translate(-5.52 -4.67)"/><circle class="cls-14" cx="238.76" cy="117.6" r="1.07"/><path class="cls-14" d="M242.5,127.38a.24.24,0,0,1-.48,0,.24.24,0,0,1,.48,0Z" transform="translate(-5.52 -4.67)"/><path class="cls-14" d="M235.13,109.66a.6.6,0,0,1-.6.6.59.59,0,0,1-.59-.6.58.58,0,0,1,.59-.59A.59.59,0,0,1,235.13,109.66Z" transform="translate(-5.52 -4.67)"/><circle class="cls-14" cx="226.04" cy="138.88" r="1.19"/><path class="cls-14" d="M235.84,140.69a.48.48,0,1,1-1,0,.48.48,0,0,1,1,0Z" transform="translate(-5.52 -4.67)"/><path class="cls-14" d="M238.22,143.66a.6.6,0,0,1-.6.6.6.6,0,0,1,0-1.19A.6.6,0,0,1,238.22,143.66Z" transform="translate(-5.52 -4.67)"/><path class="cls-14" d="M231.56,156.27a.83.83,0,0,1-1.66,0,.83.83,0,1,1,1.66,0Z" transform="translate(-5.52 -4.67)"/><path class="cls-14" d="M233.94,152.82a.24.24,0,1,1-.24-.24A.24.24,0,0,1,233.94,152.82Z" transform="translate(-5.52 -4.67)"/><path class="cls-14" d="M235.6,158.53a.48.48,0,1,1-.47-.48A.47.47,0,0,1,235.6,158.53Z" transform="translate(-5.52 -4.67)"/><circle cx="222.23" cy="128.42" r="1.43"/><path d="M230.85,130.71a.24.24,0,1,1-.24-.24A.23.23,0,0,1,230.85,130.71Z" transform="translate(-5.52 -4.67)"/><circle cx="216.41" cy="131.39" r="1.31"/><circle cx="215.34" cy="135.55" r="0.48"/><path d="M226.09,117.75a1.31,1.31,0,1,1-1.31-1.31A1.3,1.3,0,0,1,226.09,117.75Z" transform="translate(-5.52 -4.67)"/><path d="M224,122.86a.48.48,0,0,1-.95,0,.48.48,0,1,1,.95,0Z" transform="translate(-5.52 -4.67)"/><path d="M224,150.08a1.79,1.79,0,1,1-1.78-1.78A1.79,1.79,0,0,1,224,150.08Z" transform="translate(-5.52 -4.67)"/><path d="M226.09,145.45a.48.48,0,0,1-1,0,.48.48,0,1,1,1,0Z" transform="translate(-5.52 -4.67)"/><path d="M225.85,158.17a.58.58,0,0,1-.59.59.59.59,0,0,1-.6-.59.6.6,0,0,1,.6-.6A.59.59,0,0,1,225.85,158.17Z" transform="translate(-5.52 -4.67)"/><path class="cls-14" d="M145.78,143.31c-.89-.54-24.07-39.95-68.83-43.87,0,0,22.82,12.12,5.35,33,0,0,15.87,10.34,8.2,19.08,0,0,10.34,6.24,6.24,13.55l31.74,1.61Z" transform="translate(-5.52 -4.67)"/><path class="cls-15" d="M82.3,132.43c17.47-20.87-5.35-33-5.35-33a78.52,78.52,0,0,1,10.62,1.66c10.18,4.32,26.13,12.76,34,26.87l-5-.71s16.94,17.3,16.58,27.28a18.62,18.62,0,0,1-5.14,12.1l-31.24-1.58c4.1-7.31-6.24-13.55-6.24-13.55C98.17,142.77,82.3,132.43,82.3,132.43Z" transform="translate(-5.52 -4.67)"/><path class="cls-16" d="M125.57,165.42c-10.9-6-22.29-11.65-34.56-13.57l-.51-.34a9.09,9.09,0,0,0,1.2-1.72c12.4,2,23.92,7.75,35,13.78C127.86,164.23,126.78,166.08,125.57,165.42Z" transform="translate(-5.52 -4.67)"/><path class="cls-16" d="M127.35,157.18c1,.91-.49,2.42-1.52,1.51A114.58,114.58,0,0,0,86.9,136.15a36.82,36.82,0,0,0-4.54-3.68A117.23,117.23,0,0,1,127.35,157.18Z" transform="translate(-5.52 -4.67)"/><path class="cls-16" d="M127.33,154.22a236.33,236.33,0,0,0-39.51-42.8,19.86,19.86,0,0,0-3-5.26,238.53,238.53,0,0,1,44.38,47C130,154.26,128.13,155.33,127.33,154.22Z" transform="translate(-5.52 -4.67)"/><path class="cls-17" d="M91.53,150.09a9.57,9.57,0,0,0,.46-.9c5.19,1.46,16.6,5.41,21.34,5.53,6.77.18-10.17-13.91-10.17-13.91s15.87,8.56,13.73,3.75c-1.68-3.78-20.47-23.13-28.5-31.31a16.89,16.89,0,0,0-.8-2.4c12.17,7.08,38,38.7,38,38.7l-17.12-27.46,4.82,2.31c-1.37-5.2-15.88-16.6-22.14-21.69,10,4.68,23.39,12.73,30.34,25.26l-5-.71s16.94,17.3,16.58,27.28a18,18,0,0,1-.61,4.05c-.47,1.21-.93,2.42-1.38,3.59a19.1,19.1,0,0,1-3.15,4.46l-28-1.41c4.52-.71,11.74-2.09,15.15-4.09C119.77,158.41,98.52,153.07,91.53,150.09Z" transform="translate(-5.52 -4.67)"/><path class="cls-15" d="M131.21,125.86a129.25,129.25,0,0,1,14.57,17.45L143,147.06l-8.28,8.73-3.21-5.71,2.67-5-3.74-8.74,6.42,6.78,3.38-2.85a3.55,3.55,0,0,0-.15-.85C139.22,136.25,134.63,130.18,131.21,125.86Z" transform="translate(-5.52 -4.67)"/><path class="cls-15" d="M128.36,133.68a1.07,1.07,0,1,0,1.07-1.07A1.07,1.07,0,0,0,128.36,133.68Z" transform="translate(-5.52 -4.67)"/><path class="cls-15" d="M128.36,137.84a.48.48,0,0,0,1,0,.48.48,0,0,0-1,0Z" transform="translate(-5.52 -4.67)"/><path class="cls-15" d="M131.93,139.62a2.26,2.26,0,1,0,2.26-2.26A2.26,2.26,0,0,0,131.93,139.62Z" transform="translate(-5.52 -4.67)"/><path class="cls-15" d="M134.31,134.75h0Z" transform="translate(-5.52 -4.67)"/><circle class="cls-15" cx="125.34" cy="139.95" r="1.55"/><circle class="cls-15" cx="124.98" cy="123.42" r="1.19"/><path class="cls-15" d="M133.83,134.75a.72.72,0,1,0,.72-.72A.71.71,0,0,0,133.83,134.75Z" transform="translate(-5.52 -4.67)"/><path class="cls-14" d="M94.36,127.5a1.31,1.31,0,1,0,1.31-1.31A1.31,1.31,0,0,0,94.36,127.5Z" transform="translate(-5.52 -4.67)"/><path class="cls-14" d="M92.94,122.38a.47.47,0,0,0,.47.48.48.48,0,1,0,0-1A.47.47,0,0,0,92.94,122.38Z" transform="translate(-5.52 -4.67)"/><path class="cls-14" d="M89.37,126.31a1.07,1.07,0,1,0,1.07-1.07A1.07,1.07,0,0,0,89.37,126.31Z" transform="translate(-5.52 -4.67)"/><path class="cls-14" d="M92.22,131.42a.24.24,0,1,0,.24-.24A.24.24,0,0,0,92.22,131.42Z" transform="translate(-5.52 -4.67)"/><path class="cls-14" d="M99.59,113.7a.6.6,0,0,0,.6.6.6.6,0,0,0,0-1.19A.6.6,0,0,0,99.59,113.7Z" transform="translate(-5.52 -4.67)"/><path class="cls-14" d="M102,147.59a1.19,1.19,0,1,0,1.19-1.19A1.19,1.19,0,0,0,102,147.59Z" transform="translate(-5.52 -4.67)"/><path class="cls-14" d="M98.88,144.73a.48.48,0,1,0,.48-.47A.47.47,0,0,0,98.88,144.73Z" transform="translate(-5.52 -4.67)"/><path class="cls-14" d="M96.5,147.71a.59.59,0,0,0,.6.59.58.58,0,0,0,.59-.59.59.59,0,0,0-.59-.6A.6.6,0,0,0,96.5,147.71Z" transform="translate(-5.52 -4.67)"/><path class="cls-14" d="M103.16,160.31a.83.83,0,1,0,.83-.83A.83.83,0,0,0,103.16,160.31Z" transform="translate(-5.52 -4.67)"/><circle class="cls-14" cx="95.5" cy="152.2" r="0.24"/><circle class="cls-14" cx="94.07" cy="157.9" r="0.48"/><circle cx="101.44" cy="132.46" r="1.43"/><path d="M103.87,134.75a.24.24,0,1,0,.24-.24A.24.24,0,0,0,103.87,134.75Z" transform="translate(-5.52 -4.67)"/><circle cx="107.27" cy="135.43" r="1.31"/><path d="M113.38,144.26a.48.48,0,0,0,1,0,.48.48,0,1,0-1,0Z" transform="translate(-5.52 -4.67)"/><path d="M108.63,121.79a1.31,1.31,0,1,0,1.31-1.31A1.31,1.31,0,0,0,108.63,121.79Z" transform="translate(-5.52 -4.67)"/><path d="M110.77,126.9a.48.48,0,1,0,1,0,.48.48,0,0,0-1,0Z" transform="translate(-5.52 -4.67)"/><path d="M110.77,154.13a1.79,1.79,0,1,0,1.78-1.79A1.78,1.78,0,0,0,110.77,154.13Z" transform="translate(-5.52 -4.67)"/><path d="M108.63,149.49a.48.48,0,1,0,.47-.48A.48.48,0,0,0,108.63,149.49Z" transform="translate(-5.52 -4.67)"/><path d="M108.87,162.21a.59.59,0,0,0,.59.6.6.6,0,0,0,.6-.6.59.59,0,0,0-.6-.59A.58.58,0,0,0,108.87,162.21Z" transform="translate(-5.52 -4.67)"/><path class="cls-15" d="M105.54,212.5s33.76,10.46,48.27-7.61v-8.08S124.32,213.93,110.53,207,105.54,212.5,105.54,212.5Z" transform="translate(-5.52 -4.67)"/><path class="cls-15" d="M104.35,212.26s10.46-1.66,12.6-5.94-8.32-14.74-12.84-11.41S104.35,212.26,104.35,212.26Z" transform="translate(-5.52 -4.67)"/><path class="cls-15" d="M220.43,212.58S213,228,185.91,216.31V197.76s20,26.83,27.29,13.24S220.43,212.58,220.43,212.58Z" transform="translate(-5.52 -4.67)"/><path class="cls-15" d="M221.27,211.7s-9.5,4.68-13.72,2.43-1.73-16.85,3.88-16.74S221.27,211.7,221.27,211.7Z" transform="translate(-5.52 -4.67)"/><ellipse class="cls-14" cx="164.81" cy="215.56" rx="26.75" ry="32.93"/><ellipse class="cls-15" cx="165.28" cy="215.8" rx="19.14" ry="23.56"/><path class="cls-17" d="M188.24,196.48c-4.74-5.26-11-8.47-17.91-8.47-7.51,0-14.29,3.82-19.15,10C161.54,200.24,175.88,200.57,188.24,196.48Z" transform="translate(-5.52 -4.67)"/><path class="cls-14" d="M166.17,129.31a30,30,0,0,0-8.73,1.14,57.07,57.07,0,0,0-10.31,4.21,43.84,43.84,0,0,0-19.84,20.77C117,179,130.86,189,147.27,193.6s51,2.49,61.7-17.48c.23-.43.45-.87.65-1.31,5.46-12.12-2.55-24.76-11.64-32.52a59.37,59.37,0,0,0-19.07-10.82A41.14,41.14,0,0,0,166.17,129.31Z" transform="translate(-5.52 -4.67)"/><path class="cls-18" d="M209,176.12c.23-.43.45-.87.65-1.31a20,20,0,0,0,1.67-10.38c-.22-2.1-4.48-1.37-5.56-.9a6.87,6.87,0,0,0-4.08,4.62c-.74,2.56-.6,5.35-1.63,7.82-1.15,2.79-3.63,4.8-6.18,6.42a28,28,0,0,1-13.46,4.66c-2.23.09-4.33-.4-6.52-.19a63.56,63.56,0,0,1-8.16.44c-2.13-.08-3.85-.51-5.87.15s-4,1.62-6.2,1.27c-.83-.13-1.61-.44-2.43-.61a18.84,18.84,0,0,0-3.68-.18,26.82,26.82,0,0,1-7.7-1.17c-1.53-.47-3.23-1.34-3.48-2.91a8.18,8.18,0,0,1,.31-2.49c.57-3.67-2.43-6.37-5.91-6.19-4.52.24-4,4.28-4,4.28-.09.31-.17.62-.24.92,4,6.76,12.06,10.76,20.81,13.23C163.67,198.23,198.27,196.09,209,176.12Z" transform="translate(-5.52 -4.67)"/><path class="cls-19" d="M137.22,206.79c12.49-3.39,26.07-7,38.75-2.4,11.45,4.15,16.93,15.44,25.76,23,1,.89,2.56-.62,1.51-1.51-9.18-7.85-14.77-19.23-26.7-23.54-13-4.71-27-1.08-39.89,2.4a1.07,1.07,0,0,0,.57,2.07Z" transform="translate(-5.52 -4.67)"/><path class="cls-19" d="M87.82,262.39c6.5-5.15,2.33-14.83,7.8-20.66,5.68-6,14.57-7.72,22.34-9.28,1.35-.27.78-2.33-.57-2.06-7.51,1.5-15.51,3.16-21.54,8.21a15.08,15.08,0,0,0-5.56,9.71c-.66,4.46-.06,9.46-4,12.57-1.08.86.45,2.36,1.52,1.51Z" transform="translate(-5.52 -4.67)"/><path class="cls-20" d="M141.07,285.68c4.67-1.24,8.69,1.66,12.49,4a70.17,70.17,0,0,0,9.27,4.81,69.35,69.35,0,0,0,19.5,5.13,27.25,27.25,0,0,0,9.49-.17c3.07-.74,5.8-2.48,8.52-4,7.46-4.25,15.64-8.42,24.48-6.83,1.35.25,1.93-1.81.57-2.06-7-1.26-13.54.64-19.81,3.66-3.56,1.72-6.86,3.92-10.4,5.67-4.18,2.06-8.31,2.14-12.85,1.61a66.86,66.86,0,0,1-23.43-7.2c-5.71-3-11.48-8.48-18.4-6.64a1.07,1.07,0,0,0,.57,2.07Z" transform="translate(-5.52 -4.67)"/><path class="cls-14" d="M197.51,220.87c6.62-7.73,20.62-19,29.38-7.69,6.65,8.57,3.91,20.51,7.12,30.31.43,1.31,2.5.75,2.07-.57-3.56-10.87,0-26.1-10.4-34s-23.06,2.68-29.68,10.42c-.89,1,.61,2.56,1.51,1.51Z" transform="translate(-5.52 -4.67)"/><path class="cls-14" d="M106.54,234.63a30.08,30.08,0,0,1,3.39-17c3.13-5.72,7.74-7.9,13.71-9.89,10.82-3.63,22.79-5.57,33.35-.09,1.22.63,2.3-1.21,1.08-1.85-11.93-6.18-25.34-3.61-37.42.71-5.6,2-9.66,4.7-12.57,10a32.21,32.21,0,0,0-3.68,18.09c.11,1.36,2.25,1.37,2.14,0Z" transform="translate(-5.52 -4.67)"/><path class="cls-19" d="M85.18,284.4s-20.42,1.21-16.57-10.83,18.18-10.64,22.27-16,3.75-14.89,13-22.36,2.44-24.83,32.65-31.63,50.38,11.52,60.88,12.57,11.32-2.78,25.82,3.36,9.56,14.41,15.28,14.68,16.82,4.63,22.44,15.37,4,17.47,7.38,20.2c2.27,1.81,4.07,2.23,6.24,4.36,6.39,6.26-7.11,11.47-11.25,13.07a50,50,0,0,1-27.59,2.3c-26.83-5.23-37.21,4.72-46.73,4.59s-23.31-8.53-36.14-9.51C140.49,283.6,115.19,298.55,85.18,284.4Z" transform="translate(-5.52 -4.67)"/><g class="cls-21"><path class="cls-19" d="M107.44,252.29a37.06,37.06,0,0,1,23.3,7.1c1.12.81,2.19-1.05,1.08-1.85a39,39,0,0,0-24.38-7.39c-1.37,0-1.38,2.19,0,2.14Z" transform="translate(-5.52 -4.67)"/></g><g class="cls-21"><path class="cls-19" d="M93.73,256.17c6.28-7.62,17.17-11.2,26.32-6.75,1.23.6,2.32-1.25,1.08-1.85-10-4.86-22-1.34-28.92,7.09-.87,1.06.64,2.58,1.52,1.51Z" transform="translate(-5.52 -4.67)"/></g><g class="cls-21"><path class="cls-19" d="M100.37,248.59c12.44-6.93,26.34-1.63,37.85,4.57,1.22.65,2.3-1.19,1.08-1.85-12.23-6.58-26.86-11.89-40-4.57-1.2.67-.12,2.52,1.08,1.85Z" transform="translate(-5.52 -4.67)"/></g><g class="cls-21"><path class="cls-19" d="M140.05,246.82a35.61,35.61,0,0,0-17.34-8.73c-1.35-.26-1.93,1.8-.57,2.06a33.53,33.53,0,0,1,16.4,8.18c1,.93,2.53-.58,1.51-1.51Z" transform="translate(-5.52 -4.67)"/></g><g class="cls-21"><path class="cls-19" d="M103.43,241.52A59.83,59.83,0,0,1,116.36,240a1.07,1.07,0,0,0,0-2.14,62,62,0,0,0-13.5,1.63c-1.34.31-.77,2.38.57,2.06Z" transform="translate(-5.52 -4.67)"/></g><g class="cls-21"><path class="cls-19" d="M90.79,284.57a95.92,95.92,0,0,0,23.07,1.6c1.37-.07,1.38-2.22,0-2.14a93.37,93.37,0,0,1-22.51-1.53c-1.34-.25-1.92,1.81-.56,2.07Z" transform="translate(-5.52 -4.67)"/></g><g class="cls-21"><path class="cls-19" d="M97.18,281.09a78.31,78.31,0,0,0,9.55.9c1.37,0,1.37-2.1,0-2.14a73.09,73.09,0,0,1-9-.82c-1.34-.21-1.93,1.85-.57,2.06Z" transform="translate(-5.52 -4.67)"/></g><g class="cls-21"><path class="cls-19" d="M157.49,204c6.53,2.41,8.36,9.72,9.42,15.88a63.43,63.43,0,0,1,.33,18.86c-.17,1.37,2,1.35,2.14,0a64.45,64.45,0,0,0-1.2-23.28c-1.43-5.85-4.18-11.32-10.12-13.52-1.29-.48-1.85,1.59-.57,2.06Z" transform="translate(-5.52 -4.67)"/></g><g class="cls-21"><path class="cls-19" d="M168.09,206.35a27.58,27.58,0,0,1,4.59,14.59,1.07,1.07,0,0,0,2.14,0,29.84,29.84,0,0,0-4.88-15.67c-.76-1.15-2.61-.08-1.85,1.08Z" transform="translate(-5.52 -4.67)"/></g><g class="cls-21"><path class="cls-19" d="M177,209.11a29.51,29.51,0,0,1-.37,23.71c-.56,1.24,1.28,2.33,1.85,1.08a31.53,31.53,0,0,0,.58-25.36c-.52-1.26-2.59-.71-2.06.57Z" transform="translate(-5.52 -4.67)"/></g><g class="cls-21"><path class="cls-19" d="M183.62,225.84a48.34,48.34,0,0,1,3.57-11.13c.58-1.24-1.26-2.33-1.84-1.08a50.17,50.17,0,0,0-3.79,11.64c-.26,1.35,1.8,1.93,2.06.57Z" transform="translate(-5.52 -4.67)"/></g><g class="cls-21"><path class="cls-19" d="M220.71,250a80.37,80.37,0,0,1,16.94-4.77c5.15-.83,13.62-2.63,17.9,1.31,1,.93,2.53-.58,1.51-1.52-4.2-3.87-10.57-3-15.81-2.42a81,81,0,0,0-21.11,5.34c-1.27.5-.71,2.57.57,2.06Z" transform="translate(-5.52 -4.67)"/></g><g class="cls-21"><path class="cls-19" d="M227.94,251.9c9.27-1.18,19-2.31,27.82,1.53,1.25.55,2.34-1.3,1.08-1.85-9.25-4-19.16-3.06-28.9-1.82-1.35.17-1.37,2.31,0,2.14Z" transform="translate(-5.52 -4.67)"/></g><g class="cls-21"><path class="cls-19" d="M230.48,256.3c10.57-.29,23.36.36,29,10.91.64,1.22,2.49.14,1.85-1.08-6-11.25-19.48-12.28-30.82-12a1.07,1.07,0,0,0,0,2.14Z" transform="translate(-5.52 -4.67)"/></g><path class="cls-20" d="M243.33,263.38c-75.53-63-118.56,8.28-128.13,27.09,16.43-.58,29.71-6.53,37.66-5.92,12.83,1,26.62,9.37,36.14,9.51s19.9-9.82,46.73-4.59a50.12,50.12,0,0,0,27.41-2.23C261.42,281.17,255.28,273.36,243.33,263.38Z" transform="translate(-5.52 -4.67)"/><g class="cls-21"><path class="cls-20" d="M129.6,286.2c-.48-5.12,3.56-9.77,6.39-13.7a36.92,36.92,0,0,1,10.75-10.56,1.07,1.07,0,0,0-1.08-1.85c-4.73,2.84-8.32,6.88-11.52,11.33-3.08,4.28-7.21,9.18-6.68,14.78.13,1.36,2.27,1.37,2.14,0Z" transform="translate(-5.52 -4.67)"/></g><g class="cls-21"><path class="cls-20" d="M135.8,284.69a32.42,32.42,0,0,1,4.87-12.42c.76-1.16-1.09-2.23-1.85-1.08a34,34,0,0,0-5.09,12.93c-.23,1.35,1.84,1.93,2.07.57Z" transform="translate(-5.52 -4.67)"/></g><g class="cls-21"><path class="cls-20" d="M140.54,283.41a66.65,66.65,0,0,1,27.7-29.83,1.07,1.07,0,0,0-1.08-1.84,68.44,68.44,0,0,0-28.46,30.59c-.59,1.24,1.26,2.33,1.84,1.08Z" transform="translate(-5.52 -4.67)"/></g><g class="cls-21"><path class="cls-20" d="M195.46,259.55c11.48-2.25,23.32-4.39,34.75-.77,1.32.41,1.88-1.65.57-2.07-11.8-3.73-24.05-1.55-35.89.77-1.35.27-.78,2.33.57,2.07Z" transform="translate(-5.52 -4.67)"/></g><g class="cls-21"><path class="cls-20" d="M142.51,260c-.15-2.41,8.11-5,9.87-5.75,3.53-1.53,7.11-3,10.72-4.32,1.28-.48.72-2.55-.57-2.07-4.8,1.82-9.56,3.76-14.24,5.88-2.66,1.2-8.15,2.52-7.92,6.26.08,1.36,2.22,1.37,2.14,0Z" transform="translate(-5.52 -4.67)"/></g><path class="cls-20" d="M117.32,288.86c-1.64-5.94,2.26-12.62,5.65-17.3a80.94,80.94,0,0,1,11.53-12.24c8.61-7.8,18.18-14.88,29.81-17.11,1.35-.26.78-2.32-.57-2.06-12.74,2.44-23.17,10.58-32.46,19.22-7.42,6.91-19.14,18.73-16,30.06a1.07,1.07,0,0,0,2.07-.57Z" transform="translate(-5.52 -4.67)"/><path class="cls-16" d="M72.23,278.22c-1-7.9-.45-16.9,9.63-17,5.2-.08,10.36.94,14.67-2.66,1-.88-.47-2.39-1.52-1.51-5.87,4.91-14.52-.38-20.72,4.06-5.46,3.91-5,11.28-4.2,17.15.17,1.35,2.31,1.37,2.14,0Z" transform="translate(-5.52 -4.67)"/><path class="cls-19" d="M238.78,235.38c4-.51,8.22-1.06,12.19-.12,4.63,1.08,7.51,4.27,9.74,8.28,4.6,8.28,4.06,16.85,4.06,26a1.07,1.07,0,0,0,2.14,0c0-5.44.43-11.1-.42-16.49a33.37,33.37,0,0,0-5.1-12.59c-5.31-8.17-13.77-8.36-22.61-7.25-1.35.17-1.37,2.31,0,2.14Z" transform="translate(-5.52 -4.67)"/><path class="cls-19" d="M159,188.8c-5.95.64-12.06,1-17.93-.45-5.16-1.25-9.74-4.28-15-5.08s-10.35.54-15.32,1.94c-5.71,1.62-11.41,3.27-17.12,4.9-3.94,1.13-7.19,2.23-10.2,5.1-2.79,2.67-5.74,5.6-7,9.32-2.65,7.58,2.7,13.14,9.9,14.38,5.3.9,11-.44,16.12,1.51,6,2.27,8.64,9.27,6.56,15.1-.47,1.3,1.6,1.86,2.06.57,3.12-8.71-2.81-17.35-11.7-18.6-5.66-.8-11.91.69-17.17-2.11-7.53-4-3.66-11.94.76-16.57,2.07-2.18,4.09-4.26,7-5.37s6-1.74,8.91-2.59c6.52-1.86,13.13-4.28,19.85-5.33A23.34,23.34,0,0,1,131,186.88c2.77,1.05,5.42,2.38,8.28,3.21,6.42,1.84,13.19,1.56,19.76.85,1.35-.14,1.37-2.29,0-2.14Z" transform="translate(-5.52 -4.67)"/><path class="cls-19" d="M187.12,185.9c13-6.38,26.24,5.09,39.36,5,11,0,19.7-9,29.71-12.44,5.17-1.8,13.62-2.59,13.78,5.2.13,6.34-5.84,14.47-11.21,17.49-1.07.61-4.23,1.86-4.83-.11a3.88,3.88,0,0,1,1.76-4.14,6.78,6.78,0,0,1,5.23-.24c4.19,1.5,4.83,6.34,3.53,10.09-2.14,6.16-9.57,11.93-14.81,15.45a24,24,0,0,1-11.44,4.2c-3,.27-6.23.14-9.11,1.28-4.15,1.66-7.08,6-5.2,10.31.55,1.26,2.39.17,1.85-1.08-1.61-3.72,2.13-6.72,5.24-7.59,2.34-.65,4.82-.57,7.22-.78a25.54,25.54,0,0,0,10.55-3.26,51.56,51.56,0,0,0,9-7c3.12-2.85,6.5-5.89,8.26-9.83,2.2-4.93,1.39-11.77-4.28-13.85-3.75-1.37-11.77.52-10.46,6a5,5,0,0,0,4.68,3.46c3.38.16,6.21-2.7,8.34-5,4.29-4.53,9.32-11.49,7.41-18.13-3.68-12.74-21.89-2.29-28.52,1.35-4.93,2.7-9.68,6-15.47,6.37-5.5.33-10.87-1.5-16-3.23-8.34-2.82-17.3-5.61-25.7-1.49-1.23.61-.15,2.45,1.08,1.85Z" transform="translate(-5.52 -4.67)"/><path class="cls-16" d="M101.16,238.18c-7-6.24-13.57-13.43-9.8-23.37a49.76,49.76,0,0,1,7.2-12.48c3.59-4.68,7.44-7.65,13.61-6.84,7.15.94,14,5.29,21.38,3.64a11.22,11.22,0,0,0,7.1-5c1.18-1.79,2-3.88,3.43-5.47,3.33-3.58,6.91-.92,8.8,2.51.66,1.21,2.51.13,1.84-1.08-1.69-3.07-4.46-6.22-8.36-5.34-4.9,1.11-5.75,6.81-8.82,9.92-7.81,7.91-21.22-3-30.46-1.29-4.81.87-7.87,4.5-10.67,8.23a47.18,47.18,0,0,0-7.73,14.44c-2.91,9.93,4.11,17.48,11,23.63,1,.92,2.54-.59,1.51-1.51Z" transform="translate(-5.52 -4.67)"/><path class="cls-16" d="M192.91,183.88c2.88,1.52,3.7,4.55,5.27,7.16a14,14,0,0,0,4.61,4.83,13.38,13.38,0,0,0,12.11,1c5.31-2.16,6.94-6.78,9.57-11.41a24.9,24.9,0,0,1,14.09-11.33A22.78,22.78,0,0,1,247,173c5.81.42,6.09,6.29,5.32,10.86-1,6.24-4.54,12.1-8.13,17.22a70.72,70.72,0,0,1-12.38,13.48c-3.27,2.75-7.47,6-6,10.81a1.07,1.07,0,0,0,2.06-.57c-1.48-4.94,6.38-9.33,9.37-12.24a72.48,72.48,0,0,0,8.83-10.4c4.89-7,10.44-16.54,8.32-25.42-2-8.21-12.42-6.36-18.36-4a27.62,27.62,0,0,0-9.51,6.38c-3.18,3.3-4.52,7.4-7,11.14-3.93,5.93-12.19,7.35-17.47,2.24-3.29-3.18-3.77-8.28-8-10.54-1.21-.64-2.3,1.21-1.08,1.85Z" transform="translate(-5.52 -4.67)"/><path class="cls-16" d="M176.4,273.85c-14,10.92-5.87,17.73,13.07,20.68,8.63-1.94,23.36-9.52,46.26-5.06a50,50,0,0,0,27.59-2.3c4.14-1.6,17.64-6.81,11.25-13.07-2.17-2.13-4-2.55-6.24-4.36C268.33,269.74,209.92,247.69,176.4,273.85Z" transform="translate(-5.52 -4.67)"/><path class="cls-14" d="M167.14,287.86c0-.63,0-1.28,0-2,0,.57,0,1.23,0,1.94Z" transform="translate(-5.52 -4.67)"/><path class="cls-14" d="M145.08,202.26a61.39,61.39,0,0,0-8.55,1.3c-23.82,5.36-24.63,17.29-28.44,25.75,8.93,2.76,58.82,19.73,59,55.24,0,.46,0,.9,0,1.35a7.57,7.57,0,0,1,.23-2.3c.71-.24,14-17.6,14-17.6S168.21,213.46,145.08,202.26Z" transform="translate(-5.52 -4.67)"/><path class="cls-16" d="M197.23,266.1a64.47,64.47,0,0,1,33.09-10.3c5.68-.15,11.85.2,17.28,2,5.8,1.9,10,8,14.09,12.36.94,1,2.45-.51,1.51-1.51-3.93-4.2-8-10.09-13.42-12.33s-12.36-2.7-18.27-2.65a66.66,66.66,0,0,0-35.36,10.61c-1.15.74-.08,2.6,1.08,1.85Z" transform="translate(-5.52 -4.67)"/><path class="cls-16" d="M68,279.39a15.91,15.91,0,0,0,10.17,8.41c5.29,1.4,10.16-.5,14.67-3.2,11.57-6.91,24.51-13,38.38-10.91,1.35.2,1.93-1.86.57-2.06-10.64-1.58-21.42,1.32-31,5.95-5.18,2.52-10,6.8-15.67,8.2a13.59,13.59,0,0,1-15.3-7.47c-.61-1.23-2.45-.15-1.85,1.08Z" transform="translate(-5.52 -4.67)"/><path class="cls-16" d="M222.79,288.14c6.42-.78,12.49,1.93,18.81,2.57a90.34,90.34,0,0,0,19-.09c7.32-.82,20.2-5.62,15.23-15.42-.62-1.23-2.47-.15-1.85,1.08,3.22,6.35-4.32,10.28-9.27,11.49-4.69,1.15-9.6,1.1-14.4,1.1a64.36,64.36,0,0,1-14.85-1.4c-4.24-1-8.32-2-12.7-1.47-1.35.16-1.37,2.31,0,2.14Z" transform="translate(-5.52 -4.67)"/><path class="cls-16" d="M266.51,272.12c5,.52,21.24,4.33,14.4,12.19-4.57,5.25-10.26,8.44-17.32,8.12-12.56-.56-23.11-9.24-35.83-9.11a1.07,1.07,0,0,0,0,2.14c15.71-.16,32.12,15.61,47.61,6.4,4.05-2.41,11.36-7.95,8.89-13.46-2.69-6-12-7.83-17.75-8.42-1.37-.14-1.36,2,0,2.14Z" transform="translate(-5.52 -4.67)"/><path class="cls-14" d="M139.65,204.54c9.29-2.82,21-.34,26.88,7.91,3.39,4.76,2.29,11.07,2,16.56q-.39,8.67-.79,17.33c-.06,1.38,2.08,1.38,2.14,0,.34-7.39.72-14.79,1-22.18.21-5.33-.1-10.17-3.75-14.34-6.83-7.82-18.37-10.3-28.09-7.34-1.32.4-.76,2.47.56,2.06Z" transform="translate(-5.52 -4.67)"/><path class="cls-14" d="M152.15,210.37c9.35.43,19.38,2.13,21,13,1.29,8.43,1.2,17.65-2.17,25.59-.54,1.26,1.3,2.35,1.84,1.08a47.57,47.57,0,0,0,1.82-30c-2.87-9.93-13.68-11.42-22.54-11.83-1.38-.06-1.38,2.08,0,2.14Z" transform="translate(-5.52 -4.67)"/><path class="cls-14" d="M175.86,290c10.51-10.76,22.67-20,34.44-29.35,11.56-9.16,25-20.14,40.07-22,1.35-.17,1.36-2.31,0-2.14-14.79,1.85-27.49,11.74-38.94,20.59-12.72,9.84-25.83,19.89-37.08,31.41-1,1,.55,2.5,1.51,1.52Z" transform="translate(-5.52 -4.67)"/><path class="cls-14" d="M144.9,286c2-13.34,4.49-27.84,14.18-38,4.41-4.63,10.1-7.74,14.89-11.93,2.65-2.32,5.1-4.8,8.09-6.7a66.82,66.82,0,0,1,9.92-4.83c1.25-.53.7-2.6-.57-2.07-6.23,2.63-11.74,5.51-16.76,10.09-5.42,4.95-12,8.61-17.09,13.93-10,10.46-12.61,25.21-14.72,38.95-.21,1.35,1.85,1.93,2.06.57Z" transform="translate(-5.52 -4.67)"/><path class="cls-20" d="M200.88,242.44a61.88,61.88,0,0,1,24.27,4.21c7.63,3.1,17.38,8.91,19.4,17.5.31,1.34,2.38.77,2.06-.57-2-8.57-11-14.54-18.56-18a62.79,62.79,0,0,0-27.17-5.29,1.07,1.07,0,0,0,0,2.14Z" transform="translate(-5.52 -4.67)"/><path class="cls-20" d="M215.58,243.71c8.43-1.05,19-.84,26.49,3.73,6.46,3.95,9.15,12.17,6.92,19.26-.41,1.32,1.66,1.89,2.07.57a19.07,19.07,0,0,0-6.12-20.42c-7.65-6.08-20.14-6.43-29.36-5.28-1.35.16-1.37,2.3,0,2.14Z" transform="translate(-5.52 -4.67)"/><path class="cls-19" d="M95.11,258.75C94,254,92.18,248.36,87,246.68c-3.54-1.15-7.56.09-10.8-2.05-4.57-3-4.47-9-3.46-13.81.28-1.34-1.78-1.91-2.07-.57-1.28,6.09-.89,14,5.64,16.92,3.32,1.51,7.12.34,10.42,1.73,4.12,1.74,5.39,6.42,6.3,10.42.3,1.34,2.36.77,2.06-.57Z" transform="translate(-5.52 -4.67)"/><path class="cls-16" d="M253.64,276.94c8.15-2,19.95-6.23,18.86-16.84-.16-1.52-.61-2.44-.36-4,.31-2,1.47-2.83,3.23-3.86a6,6,0,0,1,4.18-1c2.47.73,3.11,2.2,1.93,4.43a3.62,3.62,0,0,1-6-1c-.95-2.52,0-6.33.76-8.79a20.53,20.53,0,0,1,5.33-8.43c1-1-.53-2.48-1.52-1.51-4.76,4.68-9.18,13.75-6.26,20.5,2.29,5.32,11.86,2.05,10.4-3.46-1.86-7.05-12.56-3.28-14.43,1.79-.61,1.66.12,3,.41,4.6a10.31,10.31,0,0,1-2.56,8.64c-3.61,4.23-9.41,5.59-14.57,6.88-1.34.33-.77,2.39.57,2.06Z" transform="translate(-5.52 -4.67)"/><g class="cls-21"><path class="cls-16" d="M209.1,269.56a121.74,121.74,0,0,1,43.9,4.6,1.07,1.07,0,0,0,.56-2.06,123.26,123.26,0,0,0-44.46-4.68c-1.37.1-1.38,2.24,0,2.14Z" transform="translate(-5.52 -4.67)"/></g><g class="cls-21"><path class="cls-16" d="M179.94,288.37a151.76,151.76,0,0,1,58.39-13.05,1.07,1.07,0,0,0,0-2.14,154.29,154.29,0,0,0-59.47,13.35c-1.25.56-.17,2.4,1.08,1.84Z" transform="translate(-5.52 -4.67)"/></g><g class="cls-21"><path class="cls-16" d="M199.61,282.26c6.47-1.19,13.08-.19,19.56.39l19.13,1.72c1.37.13,1.36-2,0-2.14l-20.5-1.84c-6.26-.56-12.51-1.34-18.76-.19-1.35.25-.78,2.31.57,2.06Z" transform="translate(-5.52 -4.67)"/></g><g class="cls-21"><path class="cls-16" d="M228.71,279.26a71.47,71.47,0,0,1,32.66,9.6,1.07,1.07,0,0,0,1.08-1.84,73.74,73.74,0,0,0-33.74-9.9c-1.37-.07-1.37,2.07,0,2.14Z" transform="translate(-5.52 -4.67)"/></g><g class="cls-21"><path class="cls-16" d="M259.17,272.86c2.08.81,13.67,7,8.51,9.83-1.2.66-.13,2.51,1.08,1.85,2.76-1.5,2.59-4.87.9-7.13-2.34-3.14-6.37-5.22-9.92-6.62-1.28-.5-1.84,1.57-.57,2.07Z" transform="translate(-5.52 -4.67)"/></g><path class="cls-16" d="M90.24,258.25c-4.77,4.57-18,3.85-21.63,15.32-3.85,12,16.57,10.83,16.57,10.83.55.26,1.09.5,1.63.74.48-3.13,4.15-12,30.62-11.41,32.1.71,49.22,12.48,54.57,15.33S137.3,244.91,90.24,258.25Z" transform="translate(-5.52 -4.67)"/><path class="cls-14" d="M237.05,233.84c-3.44-1.63-.82-8.84-13.82-14.35-12.48-5.29-14.82-3.18-21.94-3.16-27.69,10.56-48.95,51.66-56.91,69.11a31.7,31.7,0,0,1,8.48-.89c7.26.56,14.83,3.48,21.75,5.95C192.92,260.12,229.27,238.28,237.05,233.84Z" transform="translate(-5.52 -4.67)"/><g class="cls-22"><path class="cls-14" d="M160.6,279c6.14-26,26.81-44.14,48-58.58,1.14-.77.07-2.62-1.08-1.84-21.62,14.74-42.69,33.32-49,59.85-.32,1.34,1.75,1.91,2.06.57Z" transform="translate(-5.52 -4.67)"/></g><g class="cls-22"><path class="cls-14" d="M176.43,261.88C177.85,256.26,183,251,187,247a77.44,77.44,0,0,1,13.75-11.19c1.16-.75.08-2.6-1.08-1.85a79.75,79.75,0,0,0-15,12.4c-3.92,4.17-8.8,9.33-10.24,15a1.07,1.07,0,0,0,2.07.57Z" transform="translate(-5.52 -4.67)"/></g><g class="cls-22"><path class="cls-14" d="M175,278.8c13.5-19.05,27.77-38.8,49.05-49.69,1.22-.63.14-2.48-1.08-1.85-21.6,11.06-36.12,31.12-49.81,50.46-.8,1.12,1.05,2.19,1.84,1.08Z" transform="translate(-5.52 -4.67)"/></g><g class="cls-22"><path class="cls-14" d="M199.18,257a122.87,122.87,0,0,1,20-18.88c1.09-.81,0-2.67-1.08-1.85a124.75,124.75,0,0,0-20.43,19.21c-.89,1,.62,2.57,1.51,1.52Z" transform="translate(-5.52 -4.67)"/></g><g class="cls-22"><path class="cls-14" d="M116,224.53c6.56-.66,13.19,4,18.52,7.42A109.16,109.16,0,0,1,150,244c1,.93,2.52-.58,1.51-1.52a111.73,111.73,0,0,0-17-13c-5.41-3.37-11.88-7.72-18.54-7.05-1.35.14-1.37,2.28,0,2.14Z" transform="translate(-5.52 -4.67)"/></g><g class="cls-22"><path class="cls-14" d="M128.6,222.2a36.63,36.63,0,0,1,12.25,7.42c1,.93,2.54-.58,1.51-1.51a39.24,39.24,0,0,0-13.19-8c-1.3-.48-1.85,1.59-.57,2.06Z" transform="translate(-5.52 -4.67)"/></g><g class="cls-22"><path class="cls-14" d="M128.65,211.9c6.83,3.3,12.47,8.91,17.55,14.45a109.69,109.69,0,0,1,13.42,18.2,1.07,1.07,0,0,0,1.85-1.08,112.41,112.41,0,0,0-13.75-18.63c-5.2-5.66-11-11.41-18-14.79-1.24-.6-2.32,1.25-1.08,1.85Z" transform="translate(-5.52 -4.67)"/></g><g class="cls-22"><path class="cls-14" d="M153.22,222.58A36.63,36.63,0,0,1,162,234.74c.56,1.26,2.4.17,1.84-1.08a37.9,37.9,0,0,0-9.12-12.59c-1-.93-2.53.58-1.51,1.51Z" transform="translate(-5.52 -4.67)"/></g><g class="cls-21"><path class="cls-16" d="M84.36,280.87C83,277.05,94.57,273,96.87,272a77.62,77.62,0,0,1,39.83-4.75c1.35.19,1.93-1.88.57-2.07a80.71,80.71,0,0,0-33.41,2.18,78.39,78.39,0,0,0-15.06,6c-2.88,1.51-8,3.9-6.5,8,.47,1.28,2.54.73,2.06-.56Z" transform="translate(-5.52 -4.67)"/></g><g class="cls-21"><path class="cls-16" d="M124.26,269.84a143.58,143.58,0,0,1,21.86,6.48c1.29.49,1.84-1.57.57-2.06a143.58,143.58,0,0,0-21.86-6.48c-1.34-.28-1.92,1.78-.57,2.06Z" transform="translate(-5.52 -4.67)"/></g><g class="cls-21"><path class="cls-16" d="M149.35,272.45l-9.25-4.33c-1.23-.59-2.32,1.26-1.08,1.84l9.25,4.34c1.24.58,2.33-1.27,1.08-1.85Z" transform="translate(-5.52 -4.67)"/></g><g class="cls-21"><path class="cls-16" d="M72.1,281.21c-.06-4.78,4.22-7.85,7.8-10.28a59.77,59.77,0,0,1,10.83-5.82,61.57,61.57,0,0,1,23.13-4.54,1.07,1.07,0,0,0,0-2.14,63.69,63.69,0,0,0-27.24,6.18c-6.38,3.06-16.77,8.31-16.66,16.6a1.07,1.07,0,0,0,2.14,0Z" transform="translate(-5.52 -4.67)"/></g><path class="cls-15" d="M162.64,182.47c-.14.08-.59-.4-1.12-.71a5.45,5.45,0,0,0-1.09-.49,5.14,5.14,0,0,0-1.1-.48c-.3-.08-.61-.14-.84-.18s-.43-.08-.44-.16.13-.18.38-.28a3.53,3.53,0,0,1,1-.16,4.38,4.38,0,0,1,1.46.23,4.54,4.54,0,0,1,1.16.92C162.54,181.71,162.77,182.4,162.64,182.47Z" transform="translate(-5.52 -4.67)"/><path class="cls-15" d="M169.88,178.89c.09.13-.31.59-.59,1.09a23.57,23.57,0,0,1-1,2c-.11.26-.2.54-.28.75s-.14.38-.22.38-.16-.15-.21-.39a3.66,3.66,0,0,1-.07-.91,2.85,2.85,0,0,1,1.16-2.36C169.19,179,169.8,178.76,169.88,178.89Z" transform="translate(-5.52 -4.67)"/><path class="cls-23" d="M174.1,150.51s7.69-16.11,16-13.83a60.51,60.51,0,0,0-11.19-5.21,41.14,41.14,0,0,0-12.74-2.16,30,30,0,0,0-8.73,1.14,57.07,57.07,0,0,0-10.31,4.21,47.5,47.5,0,0,0-8.31,5.61l-.23.3s12.48,2.39,15.93,12.13c0,0,7.87,11.73,9.22,17.89C163.74,170.59,167.77,150.91,174.1,150.51Z" transform="translate(-5.52 -4.67)"/><path class="cls-15" d="M173.25,148.54s7.66-15.52,15.69-12.13a1.68,1.68,0,0,0,1.07.21,61.08,61.08,0,0,0-11.1-5.15,41.14,41.14,0,0,0-12.74-2.16,30,30,0,0,0-8.73,1.14,57.07,57.07,0,0,0-10.31,4.21,49.17,49.17,0,0,0-5.9,3.71c-.33.41-.65.82-1,1.25,0,0,11.6,2.14,14.81,10.88,0,0,7.31,10.52,8.56,16.05C163.62,166.55,167.36,148.9,173.25,148.54Z" transform="translate(-5.52 -4.67)"/><g class="cls-24"><path d="M163.3,130.69a3.56,3.56,0,1,0,6.79,1.5,3.63,3.63,0,0,0-.32-1.47c-1.08-.1-2.16-.15-3.24-.16S164.37,130.6,163.3,130.69Z" transform="translate(-5.52 -4.67)"/><path d="M162.72,142.42a1,1,0,1,0,.95-.95A1,1,0,0,0,162.72,142.42Z" transform="translate(-5.52 -4.67)"/><path d="M175.53,131.66a3.46,3.46,0,1,0,5.64,1.77c-.63-.24-1.26-.49-1.9-.71A37.86,37.86,0,0,0,175.53,131.66Z" transform="translate(-5.52 -4.67)"/><path d="M156.3,144.2a2.5,2.5,0,1,0,2.5-2.5A2.5,2.5,0,0,0,156.3,144.2Z" transform="translate(-5.52 -4.67)"/><circle cx="145.19" cy="135.97" r="3.21"/><circle cx="160.65" cy="143.58" r="1.07"/><circle cx="168.02" cy="134.54" r="1.31"/><path d="M169.74,138.85a1.79,1.79,0,1,0,1.78,1.78A1.79,1.79,0,0,0,169.74,138.85Z" transform="translate(-5.52 -4.67)"/><path d="M157.25,134.21a1.55,1.55,0,1,0,1.55-1.54A1.55,1.55,0,0,0,157.25,134.21Z" transform="translate(-5.52 -4.67)"/><path d="M177.47,140a1,1,0,1,0,.95,1A1,1,0,0,0,177.47,140Z" transform="translate(-5.52 -4.67)"/><path d="M162.25,149.55a2.14,2.14,0,1,0,2.14,2.14A2.14,2.14,0,0,0,162.25,149.55Z" transform="translate(-5.52 -4.67)"/><path d="M157,139.09a.95.95,0,0,0,0-1.9.95.95,0,0,0,0,1.9Z" transform="translate(-5.52 -4.67)"/></g><path class="cls-14" d="M163,129.44a3.45,3.45,0,0,0-.35,1.5,3.57,3.57,0,0,0,7.14,0,3.48,3.48,0,0,0-.33-1.47c-1.08-.09-2.16-.15-3.24-.16S164,129.35,163,129.44Z" transform="translate(-5.52 -4.67)"/><path class="cls-14" d="M162.37,141.17a.95.95,0,1,0,.95-.95A.95.95,0,0,0,162.37,141.17Z" transform="translate(-5.52 -4.67)"/><path class="cls-14" d="M175.17,130.41a3.44,3.44,0,1,0,5.74,2.55,3.31,3.31,0,0,0-.09-.77c-.64-.25-1.27-.5-1.91-.72A37.1,37.1,0,0,0,175.17,130.41Z" transform="translate(-5.52 -4.67)"/><path class="cls-14" d="M156,143a2.5,2.5,0,1,0,2.49-2.5A2.49,2.49,0,0,0,156,143Z" transform="translate(-5.52 -4.67)"/><circle class="cls-14" cx="144.84" cy="134.72" r="3.21"/><circle class="cls-14" cx="160.29" cy="142.33" r="1.07"/><path class="cls-14" d="M174.49,138a1.31,1.31,0,1,0-1.3,1.31A1.31,1.31,0,0,0,174.49,138Z" transform="translate(-5.52 -4.67)"/><path class="cls-14" d="M169.38,137.6a1.79,1.79,0,1,0,1.78,1.78A1.78,1.78,0,0,0,169.38,137.6Z" transform="translate(-5.52 -4.67)"/><path class="cls-14" d="M156.9,133a1.55,1.55,0,1,0,1.54-1.54A1.54,1.54,0,0,0,156.9,133Z" transform="translate(-5.52 -4.67)"/><path class="cls-14" d="M177.11,138.79a1,1,0,1,0,.95,1A.95.95,0,0,0,177.11,138.79Z" transform="translate(-5.52 -4.67)"/><path class="cls-14" d="M161.89,148.3a2.14,2.14,0,1,0,2.14,2.14A2.14,2.14,0,0,0,161.89,148.3Z" transform="translate(-5.52 -4.67)"/><path class="cls-14" d="M156.66,137.84a1,1,0,1,0-.95-1A.95.95,0,0,0,156.66,137.84Z" transform="translate(-5.52 -4.67)"/><path class="cls-16" d="M156.91,132.84a1.53,1.53,0,0,0,2.35-1.18,1.49,1.49,0,0,0-.82-.24A1.54,1.54,0,0,0,156.91,132.84Z" transform="translate(-5.52 -4.67)"/><path class="cls-16" d="M171.9,137.7a1.26,1.26,0,0,0,.57.14,1.29,1.29,0,0,0,1.28-1.05,1.19,1.19,0,0,0-.56-.14A1.31,1.31,0,0,0,171.9,137.7Z" transform="translate(-5.52 -4.67)"/><path class="cls-16" d="M177.19,138.81l-.08,0a1,1,0,0,0-.8.46l.09,0A.93.93,0,0,0,177.19,138.81Z" transform="translate(-5.52 -4.67)"/><path class="cls-16" d="M178.91,131.47a37.1,37.1,0,0,0-3.74-1.06A3.43,3.43,0,0,0,174,133a3.25,3.25,0,0,0,.09.77,3.42,3.42,0,0,0,6-1.8Z" transform="translate(-5.52 -4.67)"/><path class="cls-16" d="M156,136.41a.93.93,0,0,0,.79-.46h-.08a.92.92,0,0,0-.79.46Z" transform="translate(-5.52 -4.67)"/><path class="cls-16" d="M159.75,150.44a.88.88,0,0,0,0,.17,2.1,2.1,0,0,0,1.41.54,2.14,2.14,0,0,0,2.14-2.14,1.11,1.11,0,0,0,0-.17,2.13,2.13,0,0,0-3.55,1.6Z" transform="translate(-5.52 -4.67)"/><path class="cls-16" d="M166.09,146a1.26,1.26,0,0,0-.28,0,1.07,1.07,0,0,0-1,.68,1.26,1.26,0,0,0,.28,0A1.07,1.07,0,0,0,166.09,146Z" transform="translate(-5.52 -4.67)"/><path class="cls-16" d="M170.45,138a1.76,1.76,0,0,0-1.07-.37,1.78,1.78,0,0,0-1.78,1.78,1.78,1.78,0,0,0,2.85-1.41Z" transform="translate(-5.52 -4.67)"/><path class="cls-16" d="M150.36,136.17a3.21,3.21,0,0,0-3.21,3.21,3.42,3.42,0,0,0,.06.65,3.2,3.2,0,0,0,5.65-2.07,3.5,3.5,0,0,0-.07-.65A3.19,3.19,0,0,0,150.36,136.17Z" transform="translate(-5.52 -4.67)"/><path class="cls-16" d="M165.46,133.08a3.56,3.56,0,0,0,3.56-3.56v-.07c-1-.08-1.9-.13-2.85-.14s-2.16,0-3.22.13a3.45,3.45,0,0,0-.35,1.5,3.61,3.61,0,0,0,.11.82A3.53,3.53,0,0,0,165.46,133.08Z" transform="translate(-5.52 -4.67)"/><path class="cls-16" d="M163.32,140.22a1,1,0,0,0-.8.46h.08a.94.94,0,0,0,.8-.46Z" transform="translate(-5.52 -4.67)"/><path class="cls-16" d="M157.73,144a2.5,2.5,0,0,0,2.5-2.5,2.09,2.09,0,0,0,0-.35A2.49,2.49,0,0,0,156,143c0,.12,0,.24,0,.35A2.46,2.46,0,0,0,157.73,144Z" transform="translate(-5.52 -4.67)"/><circle class="cls-14" cx="235.9" cy="99.53" r="1.31"/><path class="cls-19" d="M173.54,173s8.8,2.62,17.36-1.19,10.7-16.41,10.7-16.41S176.87,161.62,173.54,173Z" transform="translate(-5.52 -4.67)"/><path class="cls-15" d="M191.26,164.41A4.46,4.46,0,1,1,186.8,160,4.46,4.46,0,0,1,191.26,164.41Z" transform="translate(-5.52 -4.67)"/><path class="cls-20" d="M189.29,164.41a2.5,2.5,0,1,1-2.49-2.5A2.49,2.49,0,0,1,189.29,164.41Z" transform="translate(-5.52 -4.67)"/><path class="cls-12" d="M193,164.47a1.67,1.67,0,1,1-1.66-1.66A1.66,1.66,0,0,1,193,164.47Z" transform="translate(-5.52 -4.67)"/><path class="cls-18" d="M174.76,170.36a9.86,9.86,0,0,0,15.43-8.15,10,10,0,0,0-.38-2.69C184,162,177.64,165.67,174.76,170.36Z" transform="translate(-5.52 -4.67)"/><path class="cls-18" d="M195.77,160.84a1.49,1.49,0,1,1-1.48-1.48A1.49,1.49,0,0,1,195.77,160.84Z" transform="translate(-5.52 -4.67)"/><path class="cls-25" d="M201.6,155.43s-24.73,6.19-28.06,17.6l.88.22c3.63-3.42,14.75-13.16,26.77-16C201.48,156.13,201.6,155.43,201.6,155.43Z" transform="translate(-5.52 -4.67)"/><path class="cls-15" d="M172.35,173.51s15.46-15.94,31.39-17.84C203.74,155.67,177.82,142.12,172.35,173.51Z" transform="translate(-5.52 -4.67)"/><path class="cls-15" d="M178,153.9c.13.09-1.1,2-2,4.15a29.54,29.54,0,0,0-1,2.95c-.24.81-.37,1.36-.37,1.36s-.16.54-.37,1.37a30.67,30.67,0,0,0-.58,3.06c-.14,1.13-.23,2.27-.26,3.13a4.92,4.92,0,0,1-.13,1.45,3.55,3.55,0,0,1-.31-1.43,21.73,21.73,0,0,1-.09-3.22,26.1,26.1,0,0,1,.36-3.21c.16-.87.3-1.44.3-1.44s.16-.57.46-1.4a27.44,27.44,0,0,1,1.3-2.95A13.32,13.32,0,0,1,178,153.9Z" transform="translate(-5.52 -4.67)"/><path class="cls-15" d="M192.44,152.6a25.66,25.66,0,0,1-3.72.26,15.85,15.85,0,0,0-2.45.38l-.77.23-.29.1a10.31,10.31,0,0,0-1.05.35,17.53,17.53,0,0,0-2.24,1.1,25.21,25.21,0,0,1-3.22,1.89,12,12,0,0,1,2.78-2.55,15,15,0,0,1,2.26-1.38,10.43,10.43,0,0,1,1.12-.48l.33-.09c.22,0,.48-.11.87-.18a13.41,13.41,0,0,1,2.64-.16A11.81,11.81,0,0,1,192.44,152.6Z" transform="translate(-5.52 -4.67)"/><path class="cls-15" d="M193.62,150.37c0,.07-.47,0-1.12-.15a19.69,19.69,0,0,0-2.38-.32,16.8,16.8,0,0,0-2.38,0c-.65.05-1.07.11-1.07.11s-.43,0-1.07.12a17.82,17.82,0,0,0-2.33.49,21.85,21.85,0,0,0-2.26.82c-.6.27-1,.46-1.06.39s.29-.37.84-.76a12.83,12.83,0,0,1,2.21-1.2,16.7,16.7,0,0,1,2.41-.76c.68-.15,1.14-.21,1.14-.21s.46,0,1.15,0a15.27,15.27,0,0,1,2.52.23,12,12,0,0,1,2.4.69C193.25,150.06,193.64,150.3,193.62,150.37Z" transform="translate(-5.52 -4.67)"/><path class="cls-15" d="M172.65,172a10.19,10.19,0,0,1-1-2.76c-.39-1.39-.71-2.82-.71-2.82a22.52,22.52,0,0,1-.18-2.94,6.19,6.19,0,0,1,.49-2.91c.15,0,.09,1.46.3,2.87s.5,2.79.5,2.79l.38,2.86A10.18,10.18,0,0,1,172.65,172Z" transform="translate(-5.52 -4.67)"/><path class="cls-15" d="M180.8,175.3c0,.15-.87.4-1.8.51a13.38,13.38,0,0,1-1.87.07,12.79,12.79,0,0,1-1.8-.47c-.89-.3-1.71-.73-1.65-.88s.94,0,1.82.11,1.75.12,1.75.12.86.16,1.74.26S180.77,175.14,180.8,175.3Z" transform="translate(-5.52 -4.67)"/><path class="cls-15" d="M200.25,165.87c-.13-.09.39-1.09.76-2.13a17.66,17.66,0,0,0,.61-2.1,18.05,18.05,0,0,0,.6-2.1,10.58,10.58,0,0,1,.48-2.2c.16,0,.35,1.12.3,2.3a13.06,13.06,0,0,1-.3,2.31,13.31,13.31,0,0,1-1,2.13C201.15,165.09,200.38,166,200.25,165.87Z" transform="translate(-5.52 -4.67)"/><path class="cls-15" d="M196.29,172.1a31.44,31.44,0,0,0,2.71-2.34,15.3,15.3,0,0,0,1.49-1.92c.35-.54.58-1,.58-1l.16-.25c.11-.16.26-.39.43-.68.34-.57.77-1.36,1.17-2.17a19.2,19.2,0,0,1,1.69-3.25,13.72,13.72,0,0,1-1,3.56c-.32.87-.68,1.72-1,2.35l-.39.76-.16.28s-.25.38-.69.95a13.65,13.65,0,0,1-1.77,1.89,10,10,0,0,1-2.15,1.43C196.78,172.06,196.32,172.17,196.29,172.1Z" transform="translate(-5.52 -4.67)"/><path class="cls-19" d="M157.8,174.69s-8.79,2.62-17.35-1.18-10.7-16.41-10.7-16.41S154.47,163.28,157.8,174.69Z" transform="translate(-5.52 -4.67)"/><path class="cls-15" d="M140.09,166.07a4.46,4.46,0,1,0,4.46-4.45A4.46,4.46,0,0,0,140.09,166.07Z" transform="translate(-5.52 -4.67)"/><path class="cls-20" d="M142.05,166.07a2.5,2.5,0,1,0,2.5-2.49A2.5,2.5,0,0,0,142.05,166.07Z" transform="translate(-5.52 -4.67)"/><path class="cls-12" d="M138.31,166.13a1.66,1.66,0,1,0,1.66-1.66A1.66,1.66,0,0,0,138.31,166.13Z" transform="translate(-5.52 -4.67)"/><path class="cls-18" d="M156.58,172a9.87,9.87,0,0,1-15.42-8.15,10,10,0,0,1,.38-2.7C147.35,163.7,153.7,167.34,156.58,172Z" transform="translate(-5.52 -4.67)"/><path class="cls-18" d="M135.57,162.51a1.49,1.49,0,1,0,1.49-1.49A1.49,1.49,0,0,0,135.57,162.51Z" transform="translate(-5.52 -4.67)"/><path class="cls-25" d="M129.75,157.1s24.72,6.18,28.05,17.59c0,0-.31.1-.88.22-3.62-3.42-14.74-13.16-26.76-16C129.87,157.79,129.75,157.1,129.75,157.1Z" transform="translate(-5.52 -4.67)"/><path class="cls-15" d="M159,175.17s-15.45-15.93-31.38-17.83C127.61,157.34,153.52,143.78,159,175.17Z" transform="translate(-5.52 -4.67)"/><path class="cls-15" d="M153.39,155.56c-.13.1,1.1,2.05,2,4.16.42,1.05.8,2.12,1,2.94s.37,1.37.37,1.37.16.54.36,1.36a28.09,28.09,0,0,1,.59,3.07c.14,1.13.23,2.27.26,3.12a4.54,4.54,0,0,0,.13,1.45,3.79,3.79,0,0,0,.3-1.42,21.7,21.7,0,0,0,.1-3.22,26.1,26.1,0,0,0-.36-3.21c-.16-.87-.3-1.45-.3-1.45s-.17-.56-.47-1.39a26.2,26.2,0,0,0-1.29-3A13.49,13.49,0,0,0,153.39,155.56Z" transform="translate(-5.52 -4.67)"/><path class="cls-15" d="M138.9,154.27a26.47,26.47,0,0,0,3.72.25,14.6,14.6,0,0,1,2.46.39c.3.07.6.17.77.22l.29.1a10.11,10.11,0,0,1,1.05.36,15.22,15.22,0,0,1,2.24,1.1,24.49,24.49,0,0,0,3.22,1.88,12.13,12.13,0,0,0-2.79-2.55,15.76,15.76,0,0,0-2.25-1.38,9.51,9.51,0,0,0-1.13-.47l-.32-.09c-.23-.06-.49-.12-.87-.19a14.34,14.34,0,0,0-2.65-.16A11.66,11.66,0,0,0,138.9,154.27Z" transform="translate(-5.52 -4.67)"/><path class="cls-15" d="M137.73,152c0,.08.47,0,1.12-.15a21.58,21.58,0,0,1,2.38-.32,16.82,16.82,0,0,1,2.38,0c.64,0,1.07.12,1.07.12s.43,0,1.07.11a17.82,17.82,0,0,1,2.33.49,19.43,19.43,0,0,1,2.25.83c.61.26,1,.46,1.07.38s-.29-.37-.85-.76a12.76,12.76,0,0,0-2.21-1.2,16.32,16.32,0,0,0-2.41-.76c-.67-.14-1.13-.21-1.13-.21s-.46,0-1.15,0a15,15,0,0,0-2.52.22,13,13,0,0,0-2.41.7C138.09,151.73,137.7,152,137.73,152Z" transform="translate(-5.52 -4.67)"/><path class="cls-15" d="M158.7,173.63a9.69,9.69,0,0,0,1-2.75c.4-1.39.71-2.82.71-2.82a21.56,21.56,0,0,0,.19-2.94,6,6,0,0,0-.5-2.91,26.83,26.83,0,0,0-.29,2.86c-.18,1.41-.5,2.8-.5,2.8l-.38,2.85A9.41,9.41,0,0,0,158.7,173.63Z" transform="translate(-5.52 -4.67)"/><path class="cls-15" d="M150.55,177c0,.15.87.41,1.8.51a13.23,13.23,0,0,0,1.86.07,13.55,13.55,0,0,0,1.81-.46c.89-.3,1.7-.74,1.65-.88s-.94,0-1.82.1-1.76.13-1.76.13-.85.16-1.74.25S150.57,176.81,150.55,177Z" transform="translate(-5.52 -4.67)"/><path class="cls-15" d="M131.09,167.53c.13-.09-.39-1.08-.75-2.12a19.59,19.59,0,0,1-.62-2.1,19.23,19.23,0,0,1-.59-2.1,9.79,9.79,0,0,0-.49-2.21,4.62,4.62,0,0,0-.3,2.3,13.66,13.66,0,0,0,.31,2.32,13,13,0,0,0,1,2.12C130.2,166.76,131,167.62,131.09,167.53Z" transform="translate(-5.52 -4.67)"/><path class="cls-15" d="M135.05,173.77c.06-.14-1.54-1-2.71-2.35a14.46,14.46,0,0,1-1.48-1.92c-.36-.54-.58-.94-.58-.94l-.17-.25c-.1-.16-.25-.4-.42-.69-.35-.57-.77-1.36-1.17-2.17a19.24,19.24,0,0,0-1.69-3.24,12.82,12.82,0,0,0,1,3.55,23.43,23.43,0,0,0,1,2.36c.15.31.29.57.39.75l.16.29s.25.38.69,1a13.62,13.62,0,0,0,1.77,1.88,9.38,9.38,0,0,0,2.14,1.43C134.57,173.73,135,173.83,135.05,173.77Z" transform="translate(-5.52 -4.67)"/><path class="cls-15" d="M203.94,178.13c-.13.08-.61-.33-1.16-.53a18.27,18.27,0,0,0-2.23-.43c-.29,0-.59,0-.81.07s-.42.08-.46,0,.05-.22.25-.39a3,3,0,0,1,.89-.47,3.87,3.87,0,0,1,1.46-.14,4,4,0,0,1,1.31.67C203.78,177.38,204.07,178.05,203.94,178.13Z" transform="translate(-5.52 -4.67)"/><path class="cls-15" d="M139.91,181.15c0,.17-1,.38-1.94.39-.48,0-.94.06-1.26.11s-.53.1-.53.1a4.27,4.27,0,0,0-.51.09,2.44,2.44,0,0,0-1,.48,2.06,2.06,0,0,0-.61.94c-.09.3-.07.55-.14.58s-.09,0-.16-.13a1.32,1.32,0,0,1-.13-.48,2.12,2.12,0,0,1,.44-1.43,3,3,0,0,1,1.23-.94,3.51,3.51,0,0,1,.65-.21,4.24,4.24,0,0,1,.66,0,9,9,0,0,1,1.38.13A7.23,7.23,0,0,1,139.91,181.15Z" transform="translate(-5.52 -4.67)"/><path class="cls-12" d="M192,184.74l.89,3.21s2.68-4.28,2.14-4.64S192,184.74,192,184.74Z" transform="translate(-5.52 -4.67)"/><path class="cls-12" d="M186.26,187.06l.89,3.21s2.68-4.28,2.14-4.64S186.26,187.06,186.26,187.06Z" transform="translate(-5.52 -4.67)"/><path class="cls-12" d="M160.09,190.33l-.42,3.31s4.12-2.92,3.76-3.46S160.09,190.33,160.09,190.33Z" transform="translate(-5.52 -4.67)"/><path class="cls-12" d="M183.62,187.87l.69,3.26s-4.35-2.57-4-3.13S183.62,187.87,183.62,187.87Z" transform="translate(-5.52 -4.67)"/><path class="cls-12" d="M147.48,187.87l.69,3.26s-4.35-2.57-4-3.13S147.48,187.87,147.48,187.87Z" transform="translate(-5.52 -4.67)"/><path class="cls-12" d="M156.62,190.22l-.53,3.29s-3.13-4-2.64-4.37S156.62,190.22,156.62,190.22Z" transform="translate(-5.52 -4.67)"/><path class="cls-14" d="M136.92,185.39c4.05.72,22.59,6,31.87,5s29.24-6.66,33.05-12.13" transform="translate(-5.52 -4.67)"/><path class="cls-14" d="M136.92,185.39c4.05.72,22.59,6,31.87,5s29.24-6.66,33.05-12.13" transform="translate(-5.52 -4.67)"/><path class="cls-15" d="M201.84,178.26s-.17.54-.82,1.26A15.39,15.39,0,0,1,198,182a56.48,56.48,0,0,1-10.72,4.94,107.8,107.8,0,0,1-11.32,3.34c-3.14.74-5.29,1-5.29,1l-.39.05-1.09.11a31.12,31.12,0,0,1-4,.06,78.79,78.79,0,0,1-11.72-1.7c-4.19-.88-8.32-2-11.4-2.82s-5.11-1.45-5.09-1.6,2.16.13,5.29.75,7.31,1.44,11.49,2.11a82.59,82.59,0,0,0,11.49,1.19,31.83,31.83,0,0,0,3.7-.17l1.06-.15.36-.05s2.07-.24,5.17-.86a113.84,113.84,0,0,0,11.25-2.82,65.36,65.36,0,0,0,10.78-4.19,19.54,19.54,0,0,0,3.2-2C201.42,178.62,201.76,178.21,201.84,178.26Z" transform="translate(-5.52 -4.67)"/><g class="cls-26"><path class="cls-12" d="M132.23,178.94a1.34,1.34,0,1,1-1.34-1.33A1.34,1.34,0,0,1,132.23,178.94Z" transform="translate(-5.52 -4.67)"/><path class="cls-12" d="M134.9,176.45a.45.45,0,1,1-.44-.45A.44.44,0,0,1,134.9,176.45Z" transform="translate(-5.52 -4.67)"/><circle class="cls-12" cx="128.93" cy="174.99" r="0.8"/><path class="cls-12" d="M204.1,172.88a1.34,1.34,0,1,1-1.34-1.34A1.34,1.34,0,0,1,204.1,172.88Z" transform="translate(-5.52 -4.67)"/><path class="cls-12" d="M206.41,168.24a.62.62,0,0,1-.62.63.63.63,0,0,1,0-1.25A.62.62,0,0,1,206.41,168.24Z" transform="translate(-5.52 -4.67)"/><circle class="cls-12" cx="201.07" cy="169.55" r="0.53"/></g><path class="cls-14" d="M187.27,157.89c.08.13-1.79,1.38-3.49,2.81s-3.27,3-3.27,3-1.64,1.48-3.13,3.15-2.81,3.47-2.94,3.39a15.1,15.1,0,0,1,2.33-3.89,36.35,36.35,0,0,1,3-3.46,37.13,37.13,0,0,1,3.57-2.84A15.27,15.27,0,0,1,187.27,157.89Z" transform="translate(-5.52 -4.67)"/><path class="cls-14" d="M199.5,154.86c0,.15-1.64-.11-3.25,0a26.61,26.61,0,0,0-3.18.36s-1.6.16-3.21.44a14.54,14.54,0,0,1-3.27.42,11.58,11.58,0,0,1,3.09-1.19c1.59-.48,3.24-.78,3.24-.78a20.12,20.12,0,0,1,3.35,0A7.2,7.2,0,0,1,199.5,154.86Z" transform="translate(-5.52 -4.67)"/><path class="cls-14" d="M156.77,170.86a14.56,14.56,0,0,1-1.55-2.16c-.77-1.06-1.64-2-1.64-2a24.53,24.53,0,0,0-1.67-2c-.89-.95-1.91-1.8-1.82-1.93a6.07,6.07,0,0,1,2.36,1.35,17.19,17.19,0,0,1,2,1.86,16.2,16.2,0,0,1,1.45,2.31A5.9,5.9,0,0,1,156.77,170.86Z" transform="translate(-5.52 -4.67)"/><path class="cls-14" d="M154.05,168.1c-.12.1-.63-.21-1.13-.5l-1-.58-.87-.78c-.43-.39-.89-.78-.82-.92s.67,0,1.24.24a11.58,11.58,0,0,1,1.11.55,9.34,9.34,0,0,1,.85.88C153.83,167.46,154.16,168,154.05,168.1Z" transform="translate(-5.52 -4.67)"/><path class="cls-14" d="M146.16,161.17a17.86,17.86,0,0,1-2.88-1.36c-1.42-.69-2.88-1.26-2.88-1.26s-1.4-.68-2.87-1.26a18.83,18.83,0,0,1-3-1.18,8.89,8.89,0,0,1,3.2.43,27.52,27.52,0,0,1,3.08,1,26.81,26.81,0,0,1,2.82,1.59A9,9,0,0,1,146.16,161.17Z" transform="translate(-5.52 -4.67)"/><g class="cls-27"><circle cx="139.99" cy="179.45" r="1.16"/><path d="M151.31,185.54a.45.45,0,1,1-.45-.44A.45.45,0,0,1,151.31,185.54Z" transform="translate(-5.52 -4.67)"/><circle cx="145.79" cy="177.93" r="0.53"/><path d="M186.8,178a.54.54,0,1,1-.54-.53A.54.54,0,0,1,186.8,178Z" transform="translate(-5.52 -4.67)"/><path d="M184.12,183.94a1,1,0,1,1-1-1A1,1,0,0,1,184.12,183.94Z" transform="translate(-5.52 -4.67)"/><path d="M188.94,182.42a.36.36,0,1,1-.36-.35A.36.36,0,0,1,188.94,182.42Z" transform="translate(-5.52 -4.67)"/><circle cx="187.96" cy="174.46" r="0.62"/><path d="M176.81,182.33a.45.45,0,1,1-.44-.44A.45.45,0,0,1,176.81,182.33Z" transform="translate(-5.52 -4.67)"/><path d="M158.8,185.81a1.07,1.07,0,1,1-1.07-1.07A1.07,1.07,0,0,1,158.8,185.81Z" transform="translate(-5.52 -4.67)"/><path d="M162,187.42a.18.18,0,0,1-.36,0,.18.18,0,1,1,.36,0Z" transform="translate(-5.52 -4.67)"/><circle cx="149.09" cy="179.63" r="0.27"/><path d="M176.46,186.08a.63.63,0,1,1-.63-.63A.63.63,0,0,1,176.46,186.08Z" transform="translate(-5.52 -4.67)"/></g><path class="cls-14" d="M87,201.34a10,10,0,0,0-3.46,2.94c-2.81,4-.13,9,2.69,12.21,2.63,3,6.44,4.95,10.48,3.86,6.18-1.67,5.94-5.71,9.27-6.9s6.9-3.56,7.61-6.89-4.28-5.71-5.7-7.61-1-3.09-1-3.09-1.18-6-4.75-4.52a19.4,19.4,0,0,0-5.94,3.39c-1.5,1.22-2.31,2.8-4,3.87S88.75,200.38,87,201.34Z" transform="translate(-5.52 -4.67)"/><path class="cls-14" d="M104.59,192.53c.19-.49,2.09-1.43,2.53-1.95a7.29,7.29,0,0,0,1.46-2.93c.32-1.27.07-3,1.06-3.94a2.07,2.07,0,0,1,2.17-.51,3,3,0,0,1,1,.74c3.19,3.17,1.34,9.49-2.31,11.68C105.78,198.47,103.4,195.62,104.59,192.53Z" transform="translate(-5.52 -4.67)"/><path class="cls-15" d="M86.85,207.68c.16-.07,1.09,2,2.3,4A18.62,18.62,0,0,0,91,214.12c.29.32.51.54.7.72l.29.27.27.25A8.77,8.77,0,0,0,93,216a10.27,10.27,0,0,0,2.63,1.49,8.6,8.6,0,0,0,3,.56,7.67,7.67,0,0,1,1.43,0,2.77,2.77,0,0,1-1.4.47,7.89,7.89,0,0,1-3.27-.25,10.26,10.26,0,0,1-3-1.41,8.34,8.34,0,0,1-.87-.66l-.33-.28-.27-.28c-.17-.18-.44-.48-.71-.83a16.89,16.89,0,0,1-1.76-2.74A15,15,0,0,1,86.85,207.68Z" transform="translate(-5.52 -4.67)"/><path class="cls-15" d="M92.49,204.88c.08,0,.3.41.65,1a20.09,20.09,0,0,0,1.43,2.19A17,17,0,0,0,96.3,210c.24.25.48.43.63.57l.24.21.24.21c.16.13.36.34.64.56a17.11,17.11,0,0,0,2.12,1.47,19,19,0,0,0,2.34,1.14c.67.27,1.14.44,1.12.52a2.58,2.58,0,0,1-1.23-.1,12.75,12.75,0,0,1-2.59-.85,15.5,15.5,0,0,1-2.38-1.36c-.32-.2-.55-.41-.73-.54l-.27-.21-.24-.24c-.15-.16-.39-.37-.63-.66a15.62,15.62,0,0,1-1.65-2.18,13.1,13.1,0,0,1-1.17-2.46C92.5,205.39,92.42,204.91,92.49,204.88Z" transform="translate(-5.52 -4.67)"/><path class="cls-15" d="M100.6,198.76c.08,0,.28.44.59,1.11a26,26,0,0,0,1.26,2.39,20.49,20.49,0,0,0,1.56,2.18c.46.57.79.92.79.92s.3.38.79.92a22,22,0,0,0,1.93,1.86c.76.62,1.56,1.2,2.17,1.6s1.06.68,1,.75-.52-.06-1.22-.36a16,16,0,0,1-2.45-1.36,19.23,19.23,0,0,1-2.19-1.76c-.55-.53-.9-.91-.9-.91s-.33-.4-.77-1a18,18,0,0,1-1.42-2.43,15.21,15.21,0,0,1-1-2.62C100.59,199.28,100.53,198.78,100.6,198.76Z" transform="translate(-5.52 -4.67)"/><path class="cls-15" d="M108.61,198.48c-.11.11-.74-.42-1.3-1a13.91,13.91,0,0,1-1-1.29,16.42,16.42,0,0,1-.65-1.51c-.28-.78-.46-1.59-.31-1.65s.57.63,1,1.29.9,1.29.9,1.29.35.71.73,1.4S108.73,198.38,108.61,198.48Z" transform="translate(-5.52 -4.67)"/><path class="cls-16" d="M109,186.23l1.66-.36-.48-4.4A24.54,24.54,0,0,0,109,186.23Z" transform="translate(-5.52 -4.67)"/><path class="cls-28" d="M106,213.45c3.33-1.19,6.9-3.56,7.61-6.89s-4.28-5.71-5.7-7.61-1-3.09-1-3.09-1.1-5.52-4.37-4.65c1.83,2.7,6.4,9.84,5.92,13.09-.59,4-6.66-2.62-6.66-2.62s3.81,4.16.36,7.85-7.64-1.43-7.64-1.43,2.53,3.81,1,6.42-6.89-3.09-6.89-3.09,3.8,4.64,1.42,6.18c-1.68,1.1-5-3.05-6.75-5.57a18.56,18.56,0,0,0,2.93,4.45c2.63,3,6.44,4.95,10.48,3.86C102.92,218.68,102.68,214.64,106,213.45Z" transform="translate(-5.52 -4.67)"/><path class="cls-14" d="M232.31,200.48a10.19,10.19,0,0,1,4,2.12c3.61,3.34,2.06,8.76,0,12.5-1.93,3.52-5.23,6.22-9.41,6-6.39-.29-7-4.29-10.54-4.73s-7.5-2-8.92-5.09,2.95-6.5,3.93-8.66.27-3.23.27-3.23-.13-6.06,3.66-5.43a19.25,19.25,0,0,1,6.53,2c1.73.86,2.87,2.23,4.74,2.92S230.43,199.91,232.31,200.48Z" transform="translate(-5.52 -4.67)"/><path class="cls-14" d="M213.27,195.66c-.29-.44-2.35-.94-2.89-1.36a7.31,7.31,0,0,1-2.06-2.53c-.59-1.18-.7-2.87-1.89-3.63a2.07,2.07,0,0,0-2.22,0,3.14,3.14,0,0,0-.86.95c-2.43,3.78.75,9.55,4.78,10.9C213.39,201.72,215.1,198.42,213.27,195.66Z" transform="translate(-5.52 -4.67)"/><path class="cls-15" d="M233.85,206.63c-.16,0-.61,2.24-1.38,4.38a18.37,18.37,0,0,1-1.28,2.81c-.21.37-.38.63-.53.85l-.22.32s-.08.11-.2.31-.34.47-.6.79a10,10,0,0,1-2.25,2,8.46,8.46,0,0,1-2.79,1.2,10.41,10.41,0,0,0-1.41.27,2.61,2.61,0,0,0,1.47.16,7.89,7.89,0,0,0,3.14-.94,10.68,10.68,0,0,0,2.61-2,9.13,9.13,0,0,0,.71-.84l.26-.34.21-.34c.12-.21.32-.56.51-1a16.76,16.76,0,0,0,1.12-3.06A14.57,14.57,0,0,0,233.85,206.63Z" transform="translate(-5.52 -4.67)"/><path class="cls-15" d="M227.75,205.12c-.08,0-.21.46-.42,1.14a19.18,19.18,0,0,1-.92,2.44,17.83,17.83,0,0,1-1.28,2.25c-.18.29-.37.52-.49.69l-.19.25-.19.26a7,7,0,0,1-.51.68,17,17,0,0,1-1.75,1.9,20.18,20.18,0,0,1-2,1.62c-.59.41-1,.67-1,.75a2.86,2.86,0,0,0,1.18-.36,13.57,13.57,0,0,0,2.34-1.4,15.81,15.81,0,0,0,2-1.83c.26-.27.45-.52.59-.69l.22-.26.19-.29c.11-.19.3-.45.47-.78a15.87,15.87,0,0,0,1.14-2.49,13,13,0,0,0,.61-2.65C227.84,205.62,227.82,205.12,227.75,205.12Z" transform="translate(-5.52 -4.67)"/><path class="cls-15" d="M218.51,200.89c-.08,0-.18.49-.34,1.21a24.1,24.1,0,0,1-.72,2.61,22.53,22.53,0,0,1-1,2.46c-.34.65-.58,1.07-.58,1.07s-.21.43-.57,1.07a22.13,22.13,0,0,1-1.49,2.23,25,25,0,0,1-1.77,2c-.52.53-.89.89-.84,1s.5-.17,1.11-.61a17.31,17.31,0,0,0,2.11-1.85,19.45,19.45,0,0,0,1.75-2.2c.43-.64.69-1.09.69-1.09s.23-.46.53-1.17a18.29,18.29,0,0,0,.86-2.67,14.9,14.9,0,0,0,.39-2.77A2.87,2.87,0,0,0,218.51,200.89Z" transform="translate(-5.52 -4.67)"/><path class="cls-15" d="M210.62,202.35c.14.07.64-.58,1.06-1.3a16,16,0,0,0,.74-1.48s.2-.8.31-1.62.1-1.65,0-1.67-.43.74-.72,1.47-.61,1.46-.61,1.46-.19.76-.4,1.53S210.48,202.27,210.62,202.35Z" transform="translate(-5.52 -4.67)"/><path class="cls-16" d="M207.61,190.46h-1.7l-.48-4.4A24.26,24.26,0,0,1,207.61,190.46Z" transform="translate(-5.52 -4.67)"/><path class="cls-28" d="M216.39,216.4c-3.51-.44-7.5-2-8.92-5.09s2.95-6.5,3.93-8.66.27-3.23.27-3.23-.12-5.62,3.27-5.47c-1.21,3-4.13,11-3,14.05,1.45,3.82,5.93-4,5.93-4s-2.81,4.88,1.35,7.74,7.15-3.05,7.15-3.05-1.65,4.27.43,6.49,6.06-4.51,6.06-4.51-2.71,5.35-.06,6.35c1.88.7,4.2-4.06,5.4-6.9a18.77,18.77,0,0,1-1.9,5c-1.93,3.52-5.23,6.22-9.41,6C220.54,220.84,219.9,216.84,216.39,216.4Z" transform="translate(-5.52 -4.67)"/></g></g></svg>