<svg id="Layer_1" data-name="Layer 1" xmlns="http://www.w3.org/2000/svg" xmlns:xlink="http://www.w3.org/1999/xlink" viewBox="0 0 380.54 380.54"><defs><style>.cls-1{fill:#9ecac6;}.cls-2{fill:#b7623c;}.cls-3{fill:#c7714c;}.cls-4{fill:url(#linear-gradient);}.cls-5{fill:#150d0c;}.cls-6{fill:#010101;}.cls-7{fill:#673313;}.cls-8{fill:#b64e34;}.cls-9{fill:#a13e2d;}.cls-10{fill:#fff;}.cls-11{fill:#3c150d;}</style><linearGradient id="linear-gradient" x1="471.19" y1="17.28" x2="471.19" y2="91.11" gradientTransform="matrix(-1, 0, 0, 1, 662.95, 0)" gradientUnits="userSpaceOnUse"><stop offset="0" stop-color="#581f10"/><stop offset="1" stop-color="#160e0d"/></linearGradient></defs><circle class="cls-1" cx="190" cy="190" r="190.27" transform="translate(-78.43 190.27) rotate(-45)"/><path class="cls-2" d="M128.91,336.33c8.16-19.28-.74-71.2-.74-71.2l134.24-8.9s-1.48,68.23,3.71,81.58c2.08,5.36,10.49,11.31,19.82,16.52a190.5,190.5,0,0,1-182.8,5C113.7,353.62,125,345.67,128.91,336.33Z" transform="translate(0.27 0.27)"/><path class="cls-3" d="M91.65,194.08l-.33-.73c-1.09-6.37-3.38-11.77-3.52-18.64-.08-3.92-.17-8.1,2.45-10.3A8.66,8.66,0,0,1,96,162s.12-.35.32-.82c-.58-3.59-8.68-55.7,6.26-86,15.59-31.62,64.15-51,89.71-51.43s65.86,18.64,87.51,53.88c21.54,35.05,9.38,85.4,9.38,85.4l-.59.82.35,0c4.17-2.7,8.35,3,10.07,6.24,3.68,7.43,2.45,21.73,0,28.86a126.67,126.67,0,0,1-11.22,23.24l-.73,1c-2.92,6.59-4.85,16.34-13.63,13.83a52.26,52.26,0,0,0-4.85,5.33l-.66-.4c-.85,6.82-2.4,15.9-5.58,20.54-4,5.78-10.5,11.54-15.56,16.94a164.42,164.42,0,0,1-34.57,26.43s-15.14,14.47-35.66,14.27c0,0-23,.13-30.74-12.15,0,0-7.58-8.94-10.51-12.2s-17.23-18.9-20.58-25.07-7.79-21.2-7.63-39.95l-.33.22c-1.21-.5-2.92-1.48-4.13-2v-.24a95.91,95.91,0,0,1-4.58-12.43l0-1c-3.71-4.66-8-14.93-6.46-21C91.6,194.24,91.63,194.16,91.65,194.08Z" transform="translate(0.27 0.27)"/><path class="cls-3" d="M279,180.07c12.13,8.54,9.89,32.62-5,53.79s-36.81,31.42-48.94,22.88-9.88-32.61,5-53.79S266.87,171.54,279,180.07Z" transform="translate(0.27 0.27)"/><path class="cls-3" d="M107.1,230.75l-.33.22c-1.21-.5-2.92-1.48-4.13-2v-.24a95.91,95.91,0,0,1-4.58-12.43l0-1c-3.71-4.66-8-14.93-6.46-21,0-.09,0-.17.07-.25l-.33-.73c-.93-5.43-2.73-10.16-3.33-15.7,12.36-3.67,30.92,5.63,44.61,23.34,15.84,20.48,19.17,44.44,7.44,53.51-7.55,5.84-19.5,4.08-31.28-3.36A113.53,113.53,0,0,1,107.1,230.75Z" transform="translate(0.27 0.27)"/><path class="cls-3" d="M245.43,139.88a74.33,74.33,0,0,1-3.05-19.42c-.07-11.12,1-22.84-1.91-33.78-4.13-15.68-24.11-6.77-33.92-3.86a107.74,107.74,0,0,1-24,4.16c-8.11.5-24.39,1.47-31.33-3.72,0,0-11.41-8.54-18.73-6.55s-15.43,13-14.68,27.94.64,35.72.64,35.72l41.19,20.92,39,.18Z" transform="translate(0.27 0.27)"/><path class="cls-3" d="M199.06,290.22l-7.64-4.77s-22,.89-29.26-1l-6,5.36A293.6,293.6,0,0,1,199.06,290.22Z" transform="translate(0.27 0.27)"/><path class="cls-3" d="M208.58,183.46l3.9-.23s7.35,5,15.41,6C227.89,189.22,216.92,189.89,208.58,183.46Z" transform="translate(0.27 0.27)"/><path class="cls-3" d="M155.07,183.17l-3.2-.27s-5.92,4.88-12.49,5.82C139.38,188.72,148.37,189.51,155.07,183.17Z" transform="translate(0.27 0.27)"/><path class="cls-3" d="M196.72,219.84a6.68,6.68,0,0,0-1.3-1.16c-4.42-3-7.2-2.6-8.62-8.54-1.1-4.58-.81-9.39-1.09-14-.62-10.29,3.3-20.61,8.33-29.22,0,0-.11,13.05,3.11,18.23S207.81,206,208.1,210.44c.39,6.17-7.29,10.08-9.28,15.21A11,11,0,0,0,196.72,219.84Z" transform="translate(0.27 0.27)"/><path class="cls-3" d="M155.29,220.8a8.16,8.16,0,0,0-2.26,2.71c-1.28-3.12-3.5-5.58-4.66-8.89-1.33-3.8-2.51-9.27-2-13.27.29-2.14,2.13-4.22,3.33-5.92,3-4.19,6.83-8.12,9.21-12.73,1.89-3.68,4.25-9.08,4.25-9.08,0,2-.31,13.27-.49,17.93-.17,4.34,1.43,14.62.52,19.35a2.79,2.79,0,0,1,0,1.3,12.75,12.75,0,0,1-1.14,3.19c-.86,1.8-2.72,3.65-2.73,5.73,0-1.39-2.25-1.1-3-.88A4.05,4.05,0,0,0,155.29,220.8Z" transform="translate(0.27 0.27)"/><path class="cls-3" d="M180.52,234.34c1.94-.8,6.6-6.52,7.09-8.41,1.22-4.74-3.59-11.16-6.09-14.81,0,0-1.57-9.55-.56-16.52s.46-23.22-.31-26.92l-15.34.29s-.89,15.12-.38,26,1.1,14.69.23,17.62c-1.17,3.94-5.14,8-4.72,12.44.33,3.57,3.76,8.39,6.66,10.42A17.36,17.36,0,0,0,180.52,234.34Z" transform="translate(0.27 0.27)"/><path class="cls-3" d="M197.37,230.44s1.37-8.4-1.37-9.88a9.57,9.57,0,0,0-5.65-1s.25,7.14-1.72,9.32C188.63,228.92,194.62,228.05,197.37,230.44Z" transform="translate(0.27 0.27)"/><path class="cls-3" d="M155.27,231.61s2.14-2.54,4-2.53c0,0-1.89-5.31-1.56-7.68C157.67,221.4,151.87,222.09,155.27,231.61Z" transform="translate(0.27 0.27)"/><path class="cls-3" d="M182.62,211.74s-13.14-3.26-18.67.13l0-2.94s10.14-3.35,18.67.37Z" transform="translate(0.27 0.27)"/><path class="cls-3" d="M274.9,188.86s-7.75-15.2-10.74-29.68l-12.6-21.26s-6.69-10.85-5.64-21.31,3.52-34.54-7.27-42.85c0,0-12.24-4.55-29.91,4.85,0,0-30.86,10.08-57.12.27,0,0-13.74-9-23.22-4.55s-13.68,15.72-14.21,26.94,3.85,31.31,1.42,38.35-6.88,22.17-6.88,22.17l-5,25-3.08-27.64-4.88-1.6c-1.74-12.91-6.24-56,6.79-82.41,15.59-31.62,64.15-51,89.71-51.43s65.86,18.64,87.51,53.88c17.76,28.89,12.61,68.22,10.25,81.1l-7.12,7.61Z" transform="translate(0.27 0.27)"/><path class="cls-4" d="M192.3,23.73c25.6-.38,65.86,18.64,87.51,53.88,1.28,2.09,2.44,4.23,3.5,6.42a6.12,6.12,0,0,0-5.05-2.63c1.54-2.13.78-4-2-4,1-2.39-.53-4.53-3.07-3.64a3.35,3.35,0,0,0-2.76-4,8.65,8.65,0,0,1,.76-1.33c-.64-.18-1.26.06-1.89-.16a5.51,5.51,0,0,0,.36-2.37c-.8.28-1.9,0-2.82.38.32-2.83-1.19-3.85-3.06-1.65a4.08,4.08,0,0,0-3.92-3c.75-.57,1.42-2.39,1.87-2.85-.74.07-1.64-.19-2.37-.18.29-.46.67-1.52.88-1.84-.67.22-1.64.14-2.34.37,1.85-3.69-2.32-5.48-2.94-1.49-.31-2.55-2.69-3.52-5-2.72.71-.55,1.28-1.66,1.88-2.21-1,.13-2.34-.34-3.36-.2.68-.62,1-1.94,1.37-2.45-1.45,0-2.25-.73-3.86.35,1-2.83-.71-3.61-2.56-1.49.43-2.79-1.57-4.22-3.85-2.94-.13-.48,0-.91-.18-1.39-1.14.18-2.7-.42-3.82-.17,1.11-2.6-.9-3.59-3.51-3.05.6-.79.49-1.67.86-2.35-1.39.39-2.53.08-3.8,1.27.18-2.86-3.2-5.57-4.57-2.29a2.84,2.84,0,0,0-4-1.28,7.65,7.65,0,0,1,.48-1.75c-1.09.37-2.72.31-3.87.85.25-.76.15-1.66.35-2.39-.65.43-2,.56-2.79,1.27.11-.79-.29-2-.19-2.78-1.73.47-2.22-.1-3.37,1.78-1.12-1.57-2.22-1.69-3.9-1.79a10.42,10.42,0,0,0-.13,1.37,30.39,30.39,0,0,1-3.8,0,23.68,23.68,0,0,1,.32-2.41c-.66.37-1.53.29-2.3.89-.05-.62-.17-1.29-.19-1.9-.77.5-2.39.51-3.27,1.37-1.66-1.95-3.13-1.77-3.16,1-1.2-2.18-5.14-3.34-4.92.37a2.85,2.85,0,0,0-4.27.64,6.89,6.89,0,0,1-.19-1.92c-.37.22-1.29.63-1.78.9-.67-3.06-2.94-1.87-4.14.37-2.22-2.23-4.95-1.25-4,2-1.21-.84-2.12-.36-3.21-.77-.13.48.05.9-.13,1.37a18.41,18.41,0,0,1-3.29,1.41c-.06-.74-.53-1.75-.58-2.3-.38.55-1.47,1.13-2,1.93-2.26-2.6-4.72-.91-4,2.53-2.29-1.72-4.84-.9-3.46,2.2a10.93,10.93,0,0,0-3.85.69,20.09,20.09,0,0,1-.09-2.29c-2,2.83-6.35-.79-5.84,3.92-.58-.38-1.75-.52-2.32-.91.14.86-.26,2-.11,2.9-1.83-.72-3.39-.13-4,2.05a11.93,11.93,0,0,1-.48-2.41c-1,1-1.46.46-2,2.41-2.47-3.15-5-.47-3.48,2.89-4.26-3.49-3.52,1.49-6.69,2.51-.12-.64-.33-1.26-.45-1.8-2.23,1.36-2,4.18-5.3,3.56.36.78.16,2.05.77,3-1-.29-2.23.24-3.18,0,.07.71-.21,1.65-.1,2.36-.59.47-2.12,1.46-2.85,1.92-.31-.49-.73-1-1-1.42-1.23,2.11-4,3.8-3.52,6.13-.72-.1-1.51.11-2.19,0a20.26,20.26,0,0,1-.12,2.34A5.87,5.87,0,0,0,109.33,70c-1.82-2.74-3,.11-2.47,2.6-.45-.17-1.32-.2-1.77-.38,0,1-.77,2.14-.61,3.37-2.76.18-2.3,3.27-2.86,5.52a5.06,5.06,0,0,0-1.39-.49c.71-1.88,1.5-3.71,2.36-5.46C118.18,43.54,166.74,24.11,192.3,23.73Z" transform="translate(0.27 0.27)"/><path class="cls-5" d="M277.65,184.81,275,189.73s0-.3-.11-.87a51.66,51.66,0,0,1-.16-7.51c.23-5.43,2.15-22.49.41-30.43S264.54,130,264.54,130s.39-29.72-8.29-42.78-19.84-17.87-19.84-17.87-13.35-2.29-28.79,7.49c0,0-35.06,8.2-55,.15,0,0-13.13-8.55-22.42-6.81s-20,20-20,20-4.17,25.13-2.82,45.22a105.74,105.74,0,0,0-2.51,21.46c0,11.07-.88,30.21-.88,30.21s-3.79-21.13-6-24.82l-1.72-.83.1-.25c-.58-3.59-8.68-55.7,6.26-86,15.59-31.62,64.15-51,89.71-51.43s65.86,18.64,87.51,53.88c21.54,35.05,9.38,85.4,9.38,85.4l-.59.82h0c-1.08,1.48-6.36,8.86-7.51,12.68C281.12,176.51,279.66,182.6,277.65,184.81Z" transform="translate(0.27 0.27)"/><path class="cls-3" d="M209,306.54c1.77-3.59,10-16.87,15-21.16s6.39-19.16,6.7-26.43,15.12-27.62,23.84-34.89,19.31-20.45,19.31-20.45l-4,10.64c-1.81,4.4.78,14.69,2.62,18.73,1.47,3.23,6,3.21,7.7,3.07-1.68,1.28-3.82,1.79-6.72,1a52.26,52.26,0,0,0-4.85,5.33l-.66-.4c-.85,6.82-2.4,15.9-5.58,20.54-4,5.78-10.5,11.54-15.56,16.94a164.42,164.42,0,0,1-34.57,26.43A152.8,152.8,0,0,1,196,316.12C200.55,312.93,207.82,308.86,209,306.54Z" transform="translate(0.27 0.27)"/><path class="cls-3" d="M104.89,226.7c1-4.37-1.48-20.46-1.48-20.46.43,3.66,5.33,13.92,10.52,20.89s12.65,20.11,13.56,31.36,3.6,21.38,9.12,28.28c4.68,5.86,10.48,20,11.74,24.42a17.5,17.5,0,0,1-1.5-2s-8.61-10.15-11.54-13.41-17.23-18.9-20.58-25.07-7.79-21.2-7.63-39.95l-.33.22c-1.21-.5-2.92-1.48-4.13-2v-.24c-.66-1.45-1.27-2.94-1.86-4.46A8.76,8.76,0,0,0,104.89,226.7Z" transform="translate(0.27 0.27)"/><path class="cls-3" d="M132.66,280.33c-1.22-4.65-2.69-9.84-4.39-15.21A56,56,0,0,0,132.66,280.33Zm78.19,22.84,3.86,1.24q4.83-2.85,9.49-6.1l5.64-4.44s-3.57-26.11,6.49-43c8.27-13.89,26.68-29.72,33.09-35a7.94,7.94,0,0,1,.42-1.6l4-10.64s-10.57,13.17-19.31,20.45S231,251.67,230.69,259,229,281.08,224,285.38C220,288.77,214.05,297.78,210.85,303.17Zm-74.24-16.4a32.64,32.64,0,0,1-4-6.44c2,7.72,3.37,13.94,4,16.95,3.61,4.13,10.2,11.9,10.2,11.9a17.5,17.5,0,0,0,1.5,2C147.09,306.77,141.29,292.63,136.61,286.77Zm-33.2-80.53s1.22,7.93,1.6,14.17l1.35,1.32c9.32,9.06,16.71,27,21.91,43.39-.34-2.15-.6-4.37-.78-6.63-.91-11.25-8.37-24.4-13.56-31.36S103.84,209.9,103.41,206.24Z" transform="translate(0.27 0.27)"/><path class="cls-3" d="M132.66,280.33c-1.22-4.65-2.69-9.84-4.39-15.21A56,56,0,0,0,132.66,280.33Zm78.19,22.84,3.86,1.24q4.83-2.85,9.49-6.1l5.64-4.44s-3.57-26.11,6.49-43c8.27-13.89,26.68-29.72,33.09-35a7.94,7.94,0,0,1,.42-1.6l4-10.64s-10.57,13.17-19.31,20.45S231,251.67,230.69,259,229,281.08,224,285.38C220,288.77,214.05,297.78,210.85,303.17Zm-74.24-16.4a32.64,32.64,0,0,1-4-6.44c2,7.72,3.37,13.94,4,16.95,3.61,4.13,10.2,11.9,10.2,11.9a17.5,17.5,0,0,0,1.5,2C147.09,306.77,141.29,292.63,136.61,286.77Zm-33.2-80.53s1.22,7.93,1.6,14.17l1.35,1.32c9.32,9.06,16.71,27,21.91,43.39-.34-2.15-.6-4.37-.78-6.63-.91-11.25-8.37-24.4-13.56-31.36S103.84,209.9,103.41,206.24Z" transform="translate(0.27 0.27)"/><path class="cls-3" d="M132.66,280.33c-1.22-4.65-2.69-9.84-4.39-15.21A56,56,0,0,0,132.66,280.33Zm78.19,22.84,3.86,1.24q4.83-2.85,9.49-6.1l5.64-4.44s-3.57-26.11,6.49-43c8.27-13.89,26.68-29.72,33.09-35a7.94,7.94,0,0,1,.42-1.6l4-10.64s-10.57,13.17-19.31,20.45S231,251.67,230.69,259,229,281.08,224,285.38C220,288.77,214.05,297.78,210.85,303.17Zm-74.24-16.4a32.64,32.64,0,0,1-4-6.44c2,7.72,3.37,13.94,4,16.95,3.61,4.13,10.2,11.9,10.2,11.9a17.5,17.5,0,0,0,1.5,2C147.09,306.77,141.29,292.63,136.61,286.77Zm-33.2-80.53s1.22,7.93,1.6,14.17l1.35,1.32c9.32,9.06,16.71,27,21.91,43.39-.34-2.15-.6-4.37-.78-6.63-.91-11.25-8.37-24.4-13.56-31.36S103.84,209.9,103.41,206.24Z" transform="translate(0.27 0.27)"/><path class="cls-3" d="M132.66,280.33c-1.22-4.65-2.69-9.84-4.39-15.21A56,56,0,0,0,132.66,280.33Zm78.19,22.84,3.86,1.24q4.83-2.85,9.49-6.1l5.64-4.44s-3.57-26.11,6.49-43c8.27-13.89,26.68-29.72,33.09-35a7.94,7.94,0,0,1,.42-1.6l4-10.64s-10.57,13.17-19.31,20.45S231,251.67,230.69,259,229,281.08,224,285.38C220,288.77,214.05,297.78,210.85,303.17Zm-74.24-16.4a32.64,32.64,0,0,1-4-6.44c2,7.72,3.37,13.94,4,16.95,3.61,4.13,10.2,11.9,10.2,11.9a17.5,17.5,0,0,0,1.5,2C147.09,306.77,141.29,292.63,136.61,286.77Zm-33.2-80.53s1.22,7.93,1.6,14.17l1.35,1.32c9.32,9.06,16.71,27,21.91,43.39-.34-2.15-.6-4.37-.78-6.63-.91-11.25-8.37-24.4-13.56-31.36S103.84,209.9,103.41,206.24Z" transform="translate(0.27 0.27)"/><path class="cls-3" d="M252.23,175.8s13.18-9.07,11.44-15.76-17-11.22-17-11.22l-37.17,4.79-11.41,8.11s1.87,15.79,11.16,18.79Z" transform="translate(0.27 0.27)"/><path class="cls-3" d="M155.51,180.22s7.86-12,3.87-18.93-17.64-8.22-17.64-8.22l-22.91-3.31-8.21,3.63-4.2,4.94s1.84,10.59,9.46,16.53Z" transform="translate(0.27 0.27)"/><path class="cls-3" d="M160.17,231.46c3.62-.16,6.23,5,6.23,5,8.75,4.07,14.69-.08,14.69-.08s5.74-5.61,10.28-5.77,6.77,3.89,6.77,3.89c-4,7.38-12.9,12.93-20,13.69-.47,1.43-1.71,4.54-3.52,4.53s-3.43-3.93-4.1-5.8c-5.86-2.44-11.11-7.41-12.57-8.15-1.82-.93-2.95-3.85-2.95-3.85A6.44,6.44,0,0,1,160.17,231.46Z" transform="translate(0.27 0.27)"/><path class="cls-6" d="M191.6,234.48s-2.43-.26-5.67,2.27c0,0,4.74,1.25,7-2.14Z" transform="translate(0.27 0.27)"/><path class="cls-6" d="M163.44,236.23s-1.6-1.84-2.93-1.48a3.34,3.34,0,0,0-1.91,1.32,7.1,7.1,0,0,0,5.32.65Z" transform="translate(0.27 0.27)"/><path class="cls-7" d="M250.77,167.5c-4.74-4.65-11.94-6.48-18.4-6.93a26.83,26.83,0,0,0-19.84,6.72c-.08.08-.19,0-.12-.12,5-5.95,12.59-6.86,20-6.9,6.7,0,14.28,1.37,18.44,7.2,0,0,0,.05,0,0Z" transform="translate(0.27 0.27)"/><path class="cls-7" d="M149.15,166c-9.92-8.39-25.33-7-34.8,1.23,0,0-.08,0,0,0a24.69,24.69,0,0,1,18.89-7.56c5.65.18,11.93,2.32,16,6.31a0,0,0,1,1-.07.07Z" transform="translate(0.27 0.27)"/><path class="cls-3" d="M93,190.24a74.44,74.44,0,0,1-3.64-18.59l.3-3.06a13.58,13.58,0,0,1,1.65-2,116.48,116.48,0,0,1,11,31.43s-1,2.49,1.33,9.64c0,0-.4,7.5-2.41,6.75S93.6,204.53,94,196.3c0,0,1.12-7.15.19-8.26Z" transform="translate(0.27 0.27)"/><path class="cls-3" d="M99.32,200.72a18.19,18.19,0,0,1,.69-6c-.34-.93-.7-1.91-1.09-2.94l-.2,3.1S98,187,94.66,185.05l.92-2.22c-2.85-7.57-5.49-14.49-5.49-14.49L91.27,167c.26.34.53.74.79,1.16,1.51,3,3,6.29,4.34,9.76,1,2.71,1.86,5.55,2.64,8.19l.24.31,0,.4c1.68,5.74,2.78,10.38,2.78,10.38l.09,1.76a9.55,9.55,0,0,0,0,1.56c0-.11-.07-.22-.12-.34l.14.61a27.91,27.91,0,0,0,1.26,6.15C103,206.67,99.61,204.18,99.32,200.72Z" transform="translate(0.27 0.27)"/><path class="cls-8" d="M218.27,265.08s-9.6,7.17-12.86,10.12-11,6.68-14.7,7.69c-5.61,1.53-22.33,1.77-28.34-.79-4.64-2-10.91-9.73-13.56-11.86s-9.82-7.83-9.82-7.83a87.74,87.74,0,0,0,10.37,2c3.1.2,21.83-1.78,21.83-1.78l19.58-.78Z" transform="translate(0.27 0.27)"/><path class="cls-8" d="M202,276.58a2.3,2.3,0,0,1-.4,1.34,56.15,56.15,0,0,1-9.45,4.53,71.53,71.53,0,0,1-14,1.59c-6.07,0-12.47-.55-15.73-1.94-2.69-1.15-5.92-4.22-8.68-7,3.13-2.89,12.33-5.09,23.3-5.25C190.65,269.61,201.84,272.64,202,276.58Z" transform="translate(0.27 0.27)"/><path class="cls-9" d="M148.81,270.24c-2.66-2.14-9.82-7.83-9.82-7.83a87.74,87.74,0,0,0,10.37,2c3.1.2,21.83-1.78,21.83-1.78l19.58-.78,27.5,3.21s-6,4.46-10.09,7.79l-.27-.13s2-3.17.92-3.64c-1.65-.74-3.67-.05-5.35.09-3.73.33-7.26-.2-10.84.58-4.31.93-8.76.94-13.16,1.21-6.2.38-12.41-1-18.57-1.13-1.07,0-9.33.74-9.56-.37,0,0,1.72,4.56,3.58,6.22.33.29.36.55.17.78C152.52,274,150.18,271.34,148.81,270.24Z" transform="translate(0.27 0.27)"/><path class="cls-9" d="M162.37,282.1a25,25,0,0,1-6.42-4.8,22.37,22.37,0,0,0,7.41,3.82c6.25,2.08,19.87,1.4,25.26.84s14-4.79,14-4.79l0,.06a51.6,51.6,0,0,1-12,5.66C185.1,284.42,168.38,284.66,162.37,282.1Z" transform="translate(0.27 0.27)"/><path class="cls-9" d="M144.69,263.54c3.63.39,8.19-2.49,11.37-3.73a61,61,0,0,1,8-2.65,17.81,17.81,0,0,1,3.91-.69c1.45,0,2.18.76,3.41,1.36a12.39,12.39,0,0,0,4.06,1.12c2.25.23,4.53-1.83,6.43-2.61s4.14-.13,6.22.29a67.47,67.47,0,0,1,7,1.86c4.54,1.42,9,3.13,13.5,4.56a26.75,26.75,0,0,0,15,.26c-11.74,4.78-22.89,3.49-38.16,2.27h-.26c-2.25,2-6.86,3-9.7,2.81l-.27-.26-.49.51c-2.34-.45-5.71-.88-7.57-2.54-12.1.18-21.76,3.22-33-7.24C134.22,258.86,140.82,263.11,144.69,263.54Z" transform="translate(0.27 0.27)"/><path class="cls-9" d="M175.42,268.78c3,.34,7.64-.47,9.8-2.6,0,0,.24-.42.14-.42.52,0,1.07.07,1.59.11,1.41.11,2.83.23,4.25.33,2.43.19,4.86.37,7.29.49,8.64.41,17.2,0,25.16-3.37,0,0,0-.05,0,0-8,3.07-16.52,3.61-25.15,3.12-2.43-.14-4.86-.32-7.29-.52a52.37,52.37,0,0,0-6-.48c-.64,0-.86.3-1.42.6a13.26,13.26,0,0,1-2.82,1.19,21.39,21.39,0,0,1-5.46.8C175,268,174.93,268.72,175.42,268.78ZM134.11,259a28.26,28.26,0,0,0,20,7.94c3.64,0,7.27-.19,10.91-.33,1.08-.05,1.86-.33,2.8.33a6.5,6.5,0,0,0,1.59.77,28.3,28.3,0,0,0,5.32,1.13c.23,0,.32-.28.09-.33a27.76,27.76,0,0,1-5.7-1.55c-.5-.24-1.38-1-1.85-1.08a12.4,12.4,0,0,0-2.28-.11c-3.31.13-6.58.59-9.9.64a31.36,31.36,0,0,1-10.28-1.28,29.89,29.89,0,0,1-10.46-6.35C134.18,258.61,134,258.83,134.11,259Z" transform="translate(0.27 0.27)"/><path class="cls-3" d="M274.07,218.88c-.06.08.05.19.11.11,1.75-2.16,3.52-.93,5.25.33a.11.11,0,0,0,.15,0,16.83,16.83,0,0,0,3.52-10.76c-.07-1.23-.38-3.1-1.78-3.51-1.22-.37-2.84-.15-3.31-1.79a21.51,21.51,0,0,1-.44-3.67.07.07,0,0,0-.15,0c-.16,1.61-.19,4.65,1.78,5.27,1.63.5,3.12.39,3.51,2.58a11.1,11.1,0,0,1-.17,4.22c-.17.77-2.25,7.95-3.38,7.17C277.3,217.53,275.62,216.94,274.07,218.88Zm9.73-30.13c0,.05,0,.13.07.08,3.17-3.6,4,5.48,4.31,7.27.85,4.62,3,11.08,0,15.26-.09.13.13.3.24.17,1.84-2.14,1.7-5.52,1.38-8.17-.35-2.85-1.08-5.64-1.47-8.49C288,193,286.92,185.09,283.8,188.75Zm-11,29.8a14,14,0,0,0,2.84-4.12,9.12,9.12,0,0,0,.45-5.09,18.82,18.82,0,0,1,0-6.22,22.93,22.93,0,0,1,2.23-5.76c1.94-3.62,4-7.23,6.07-10.81,1-1.69,4.13-7.46,7.48-11-2.43,3.56-2.18,9.31-1.8,13.34.4,4.26,1.13,9.29,3.82,12.8a.06.06,0,0,0,.07,0c.79-.25.26-.05,1.24-.74.07-.05,0-.16-.06-.11-.62.42-1.18.79-1.65,0a13,13,0,0,1-.63-1.16,21,21,0,0,1-1.22-3.23,39.36,39.36,0,0,1-1.39-7.61c-.36-4.51-.38-9.6,2.07-13.55a.11.11,0,0,0-.08-.17c2.58-2.6,5.24-3.75,7.05-.58,0,0,.09,0,.07,0-3.8-8.06-12.53,6.79-14.24,9.65-2.08,3.51-4,7.12-6,10.65-1.82,3.15-3.91,6.83-3.7,10.62.13,2.32.69,4.71.08,7-.56,2.14-1.86,4-2.91,5.88C272.43,218.51,272.65,218.7,272.78,218.55Z" transform="translate(0.27 0.27)"/><path class="cls-7" d="M192.72,239.32c-.05,0,0,.09,0,.08,3-.9,5.61-2.73,6.44-5.94,1-3.86-.11-8.48-.73-12.36a.1.1,0,0,0-.2,0c.55,3.83,1.07,7.64.24,11.43C197.77,235.82,195.55,237.8,192.72,239.32Zm-10.35-.52c-.14.19.13.41.32.31,3.41-1.86,8-6.66,12.14-3.34a.07.07,0,1,0,.1-.1c-1.68-1.72-4.11-1.75-6.24-.94S183.83,236.88,182.37,238.8Zm-16.69.94c4.09,3.62,11.59,2.69,16.2,1,.07,0,0-.13,0-.12a27.75,27.75,0,0,1-7.81.75,22.24,22.24,0,0,1-8-2.16C165.75,239.13,165.39,239.49,165.68,239.74Zm-7.84-2.51c1.11-1.45,3-3.15,4.73-1.6a9.27,9.27,0,0,1,2.46,3.23c.08.18.34,0,.26-.15a8.61,8.61,0,0,0-1.48-2.33c-.65-.7-1.88-1.37-2.35-2.19A.41.41,0,0,0,161,234a6.44,6.44,0,0,0-3.86,2.69C156.86,237.09,157.54,237.62,157.84,237.23Zm-5-8.88c.4,3.63,1.71,8.42,5,10.56.22.14.42-.2.2-.35-3-2-4.26-6.5-4.62-9.83-.4-3.63.06-7.63,3.94-8.82a.16.16,0,0,0-.05-.32C153.12,219.81,152.46,225.11,152.82,228.35Zm10.45-15.11c.88-1.56.62-4.3.59-6-.11-5.14-.76-10.28-1.09-15.42a.06.06,0,0,0-.11,0c-.14,5.14.78,10.27.61,15.41a17.82,17.82,0,0,1-1.36,7.32,44.35,44.35,0,0,0-2.89,7.4c0,.14.17.19.22.06A63.55,63.55,0,0,1,163.27,213.24Z" transform="translate(0.27 0.27)"/><path class="cls-5" d="M263.89,158.33s-9.27-7-16.31-6.3-24.48,6.3-37.83,6.67c0,0-8.53,1.12-9.64,1.12a10.88,10.88,0,0,0-3,.74s3.71-10.39,8.16-14.83c0,0,7.42,1.48,22.25-3.34S245,135,252.77,135.71C252.77,135.71,262,142.76,263.89,158.33Z" transform="translate(0.27 0.27)"/><path class="cls-5" d="M199.6,158.36l.51,0c.66,0,5.36-.56,9.45-1.1h.15c8.35-.23,18.38-2.54,26.43-4.4,4.63-1.06,8.63-2,11.28-2.27q.6-.06,1.23-.06c4.77,0,10,2.74,13.24,4.7-2.24-11-8.28-16.79-9.71-18-.67-.05-1.28-.08-1.88-.08-3.69,0-6.46,1-11.5,2.92-2.76,1-6.19,2.31-10.79,3.81-9.22,3-15.68,3.62-19.48,3.62a26.33,26.33,0,0,1-2.67-.12c-2.62,2.92-5,8-6.26,11.06Z" transform="translate(0.27 0.27)"/><path class="cls-5" d="M106.33,158.33s7.31-7,12.86-6.3,19.29,6.3,29.81,6.67c0,0,6.72,1.12,7.6,1.12a7.13,7.13,0,0,1,2.34.74s-2.92-10.39-6.43-14.83c0,0-5.85,1.48-17.54-3.34s-13.73-7.42-19.87-6.68C115.1,135.71,107.79,142.76,106.33,158.33Z" transform="translate(0.27 0.27)"/><path class="cls-5" d="M156.7,158.33c-1-3-2.82-8-4.86-11a17.67,17.67,0,0,1-1.88.09c-3,0-8.21-.63-15.55-3.66-3.64-1.5-6.35-2.79-8.53-3.82-4-1.91-6-2.87-8.84-2.87-.39,0-.8,0-1.24.06-1.25,1.42-5.74,7.12-7.51,17.64,2.59-1.93,6.48-4.28,10-4.28a7,7,0,0,1,1,.07,72.68,72.68,0,0,1,9,2.28c6.32,1.85,14.18,4.15,20.69,4.38l.19,0c3.2.53,6.82,1.08,7.36,1.09Z" transform="translate(0.27 0.27)"/><path class="cls-6" d="M210.62,176.26c5.07-15.95,21.14-14.71,21.14-14.71a27.45,27.45,0,0,1,14,5.14c3.44,2.3,6.13,7,6.13,7-4.82,7.29-14.71,8.9-14.71,8.9l3.45-6.69Z" transform="translate(0.27 0.27)"/><path class="cls-10" d="M248.32,176.32c-11.68,10.57-25.78,7.79-36.16,2.78,0,0-3.15.37-3.71-.19s2-2.41,2-2.41c6.86-13.53,24.48-16.13,35.23-5,1.11,1.11,2,2.59,3.15,3.89Z" transform="translate(0.27 0.27)"/><path class="cls-11" d="M230.43,183.36a10.47,10.47,0,0,1-7.58-17.7,21.51,21.51,0,0,1,15.88.86,10.46,10.46,0,0,1-8.3,16.84Z" transform="translate(0.27 0.27)"/><path class="cls-11" d="M239.7,172.89a9.27,9.27,0,1,1-14-8,21.46,21.46,0,0,1,10.27.56A9.26,9.26,0,0,1,239.7,172.89Z" transform="translate(0.27 0.27)"/><path class="cls-6" d="M225,172.89a5.47,5.47,0,1,0,5.47-5.47A5.47,5.47,0,0,0,225,172.89Z" transform="translate(0.27 0.27)"/><path class="cls-10" d="M228.19,168.35a2.24,2.24,0,1,0,2.24-2.25A2.24,2.24,0,0,0,228.19,168.35Z" transform="translate(0.27 0.27)"/><path class="cls-6" d="M210.48,176.49c3-6.88,10.5-11.88,17.94-12.44a21.6,21.6,0,0,1,10.83,2.19c4.21,2,7.19,5.28,9.81,9,.14.21-.17.43-.34.26-1.53-1.56-2.73-3.35-4.38-4.83a23.12,23.12,0,0,0-4.72-3.24,21.71,21.71,0,0,0-10.76-2.4c-8.18.2-14.23,4.62-18.35,11.44,0,0,0,0,0,0Z" transform="translate(0.27 0.27)"/><path class="cls-3" d="M248.39,176.39a27.94,27.94,0,0,1-18.11,7.27,36.45,36.45,0,0,1-18.16-4.49c-.08,0,0-.18.06-.15,5.63,2.2,10.91,4.26,17,4.41a27.51,27.51,0,0,0,19-7.19c.11-.09.26.06.15.15Z" transform="translate(0.27 0.27)"/><path class="cls-6" d="M151.39,176.26c-4.68-15.95-19.49-14.71-19.49-14.71A24.16,24.16,0,0,0,119,166.69c-3.17,2.3-5.65,7-5.65,7,4.44,7.29,13.55,8.9,13.55,8.9l-3.18-6.69Z" transform="translate(0.27 0.27)"/><path class="cls-10" d="M116.64,176.32c10.76,10.57,23.75,7.79,33.32,2.78,0,0,2.9.37,3.42-.19s-1.88-2.41-1.88-2.41c-6.32-13.53-22.56-16.13-32.47-5-1,1.11-1.88,2.59-2.9,3.89Z" transform="translate(0.27 0.27)"/><path class="cls-11" d="M135.09,183.36c-5.46,0-9.89-4.69-9.89-10.47a10.76,10.76,0,0,1,3-7.46,18.38,18.38,0,0,1,15.28,1.84,10.86,10.86,0,0,1,1.55,5.62C145,178.67,140.56,183.36,135.09,183.36Z" transform="translate(0.27 0.27)"/><path class="cls-11" d="M143.85,172.89a8.77,8.77,0,1,1-17.51,0,9.36,9.36,0,0,1,4.53-8.12,18.3,18.3,0,0,1,10,1.21A9.5,9.5,0,0,1,143.85,172.89Z" transform="translate(0.27 0.27)"/><path class="cls-6" d="M129.93,172.89a5.17,5.17,0,1,0,5.16-5.47A5.32,5.32,0,0,0,129.93,172.89Z" transform="translate(0.27 0.27)"/><path class="cls-10" d="M133,168.35a2.12,2.12,0,1,0,2.11-2.25A2.19,2.19,0,0,0,133,168.35Z" transform="translate(0.27 0.27)"/><path class="cls-6" d="M151.51,176.49A20.44,20.44,0,0,0,135,164.05a18.56,18.56,0,0,0-10,2.19c-3.88,2-6.63,5.28-9,9a.2.2,0,0,0,.31.26c1.41-1.56,2.52-3.35,4-4.83a21.65,21.65,0,0,1,4.36-3.24,18.69,18.69,0,0,1,9.91-2.4c7.54.2,13.11,4.62,16.91,11.44,0,0,0,0,0,0Z" transform="translate(0.27 0.27)"/><path class="cls-3" d="M116.57,176.39a24.74,24.74,0,0,0,16.7,7.27A31.51,31.51,0,0,0,150,179.17c.07,0,0-.18-.06-.15-5.18,2.2-10.05,4.26-15.71,4.41a24.26,24.26,0,0,1-17.52-7.19c-.1-.09-.23.06-.14.15Z" transform="translate(0.27 0.27)"/></svg>