<svg id="Layer_1" data-name="Layer 1" xmlns="http://www.w3.org/2000/svg" viewBox="0 0 380.54 380.54"><defs><style>.cls-1{fill:#ffe29d;}.cls-2{fill:#f38a61;}.cls-3{fill:#f6906c;}.cls-4{fill:#ce4727;}.cls-5{fill:#771214;}.cls-6{fill:#ef3747;}.cls-7{fill:#cf2028;}.cls-8{fill:#010101;}.cls-9{fill:#fff;}.cls-10{fill:#68af7d;}.cls-11{fill:#9d4532;}</style></defs><circle class="cls-1" cx="190" cy="190" r="190.27" transform="translate(-78.43 190.27) rotate(-45)"/><path class="cls-2" d="M113.12,364.09a63.77,63.77,0,0,0,6.58-8.82c.23-.35.46-.72.69-1.09l.33-.55c.18-.29.37-.58.55-.88s.26-.45.4-.67l.54-.9.4-.68.94-1.62c6.23-10.82,7.78-34.82,8.1-50.36,0-.32,0-.63,0-.95s0-.35,0-.52c0-.34,0-.68,0-1s0-.48,0-.72v-.72c0-.21,0-.42,0-.62v-.6c0-.32,0-.62,0-.92v-2.27c0-.45,0-.89,0-1.3v-.32c0-.18,0-.35,0-.52v-.23c0-.3,0-.58,0-.85v-.25c0-.14,0-.28,0-.41v-.17c0-.26,0-.49,0-.7v-.09a2.44,2.44,0,0,0,0-.28v-.34c0-.11,0-.2,0-.27v-.2a.13.13,0,0,1,0-.06v-.05L191.3,315.5c-.11,1.17-.22,2.31-.31,3.43,0,.37-.05.72-.08,1.09l-.15,2.23-.06,1.24c0,.66-.06,1.32-.08,2,0,.42,0,.84,0,1.26l0,1.85v1.23c0,.6,0,1.2,0,1.8,0,.38,0,.77,0,1.14,0,.63,0,1.25.07,1.87,0,.32,0,.65.05,1,0,.82.1,1.62.16,2.41,0,.1,0,.21,0,.31.08.89.17,1.75.27,2.61,0,.27.07.54.1.82.07.57.15,1.14.23,1.69,0,.32.1.64.15.95.08.5.16,1,.25,1.48.05.32.12.64.18,1s.18.92.28,1.38.13.62.21.93.21.9.32,1.34.15.57.22.85l.39,1.39.21.71c.18.6.38,1.18.57,1.75l.09.26c4.1,11.75,11.06,18.87,18.73,23.46a190.82,190.82,0,0,1-100-14.78Z" transform="translate(0.27 0.27)"/><path class="cls-3" d="M85.36,189.63c1-.71,4.79-1.77,5.83-2-2.53-19.72-8.82-56.42,18.45-85.51,30.68-32.72,72.61-32.72,95.62-27.1s50.12,28.64,55.75,53.7,2.1,32.62,4.62,40.71,7.08,19.21,1,31.35a119.37,119.37,0,0,0-3,25.78c0,13.65-8.09,32.87-23.26,52.08s-24.35,39.3-42,41c-26.79,2.53-64.88-21.61-77.86-49.51a147.1,147.1,0,0,1-8.6-25.39c-4.25.78-7.67-2-10.64-6.48-3.79-5.69-8.72-9.48-12.51-14.79C83.08,215.42,77,195.7,85.36,189.63Z" transform="translate(0.27 0.27)"/><path class="cls-3" d="M253.84,127.42a43.17,43.17,0,0,0-13-19.24c-11.67-9.75-28.49-14.27-43.52-13.29-7.93.52-17.49,2.5-24.58,6.27-13,6.9-20.28,14.28-22.57,29.17-1,6.26-.94,12.66-2.1,18.9-.21,1.14-5.25,15.72-7.4,13.86,0,0,8.72,7.58,9.86,7.58s113,4.17,113,4.17l2.66-1.51s-7.59-10.62-8-19C257.86,145.25,256.83,135.9,253.84,127.42Z" transform="translate(0.27 0.27)"/><path class="cls-3" d="M223.41,252.05s-.25,2.78-4.3,3.29a7.38,7.38,0,0,1-8.34-4.81c-1.52-3.54-4.55-22.25-3.54-42.72l15.17.25s-2.78,21.23-2.27,28.06S223.41,252.05,223.41,252.05Z" transform="translate(0.27 0.27)"/><path class="cls-3" d="M222.49,248.09a8,8,0,0,0-4.05-1.52c-2,0-9.44,2.86-9.44,2.86l-1-2s7.75-3,10.45-3a5.28,5.28,0,0,1,2.87,1Z" transform="translate(0.27 0.27)"/><path class="cls-3" d="M175.23,224a8.91,8.91,0,1,0,8.91-8.91A8.91,8.91,0,0,0,175.23,224Z" transform="translate(0.27 0.27)"/><path class="cls-3" d="M221.52,223.39c-.38,4.59,2.31,8.56,6,8.87s7-3.16,7.4-7.75-2.31-8.57-6-8.88S221.9,218.8,221.52,223.39Z" transform="translate(0.27 0.27)"/><path class="cls-3" d="M117,255.24c9.2,16.05,26.12,23.63,37.79,16.94s13.67-25.13,4.46-41.18-26.13-23.63-37.79-16.94S107.79,239.19,117,255.24Z" transform="translate(0.27 0.27)"/><path class="cls-3" d="M234.78,239.48c5.27-15.73,18.44-26.7,29.49-24.6a109.81,109.81,0,0,0-.66,11.63c0,12.12-6.38,28.62-18.42,45.62C234.16,269.85,229.5,255.25,234.78,239.48Z" transform="translate(0.27 0.27)"/><path class="cls-3" d="M262.45,201.77s3.79-26.93-5.69-31.1-21.24.76-21.24.76l-6.45,8-.75,2.66s-3.79,16.68-2.66,43.61l11-8.73s9.1-9.1,11-9.48,9.48-.38,9.48-.38Z" transform="translate(0.27 0.27)"/><path class="cls-3" d="M187.36,223.76s7.59-39.44-1.51-51.57-23.89-11-23.89-11L146,162.71s-14.79,4.17-17.82,7.58c0,0,0,22,9.86,42.09Z" transform="translate(0.27 0.27)"/><path class="cls-3" d="M224.34,254.66c.19.88-2.79,2.68-3.36,2.92-4,1.72-8.53-.42-12.32-1.74-3.37-1.18-8.76,1.85-9.27,3.71,0,0-.16,2.19,1.18,2.53s21.41.16,21.41.16l2.19-1.34.84-3.21Z" transform="translate(0.27 0.27)"/><path class="cls-3" d="M224.68,257.1s-1.27,3.54-6.58,3.29-8.59-2.78-10.36-3.29-8.09,1.27-7.84,3.29l.51,2s3,13.4,9.1,13.66,5.05-8.6,9.35-10.62C218.86,265.45,224.68,261.91,224.68,257.1Z" transform="translate(0.27 0.27)"/><path class="cls-3" d="M205.21,303.37s-8.09.5-10.36,0c0,0,1.26,4.3,3.79,4S205.21,303.37,205.21,303.37Z" transform="translate(0.27 0.27)"/><path class="cls-3" d="M228.22,279.86l1.51,3.54S233,279.86,228.22,279.86Z" transform="translate(0.27 0.27)"/><path class="cls-3" d="M157.68,278.34l-2.78,4.3S151.61,278.85,157.68,278.34Z" transform="translate(0.27 0.27)"/><path class="cls-4" d="M166.89,181.67s-11-4.93-25.79,2.65C141.1,184.32,155.13,171.43,166.89,181.67Z" transform="translate(0.27 0.27)"/><path class="cls-4" d="M236.17,185.37s8.42-4,18.84,3.77C255,189.14,245.49,176.46,236.17,185.37Z" transform="translate(0.27 0.27)"/><path class="cls-3" d="M85.38,202.75a27.36,27.36,0,0,1,4-5.42c1.26.68,3.75,2.16,4.68,3.65,1.26,2,0,5.44,0,5.44s1.31-.83,2.47-1.72l-.07.07s3,3,2.4,4.3l.44-.14-1.07,1a2.59,2.59,0,0,1,3,1.39c.35.63.8,1.61,1.25,2.67a5.32,5.32,0,0,0-1.5,5.05c.88,3,5.18,4.55,5.18,4.55a7.89,7.89,0,0,1-1.47-5l.57-1.79a5.21,5.21,0,0,1,.4-.6l-.16-.13.16-.5s-3-7.08-4.55-8.47l-.09.09-2.82-4.38s-4.87-7.13-7.12-8.49l-2.11-2C87.27,194.28,85.38,202.75,85.38,202.75Zm12,11.25.76,4.3C99.15,215,97.38,214,97.38,214Zm-3.53-1.39s-1.27,3.41,1.39,8.47A48.2,48.2,0,0,0,93.85,212.61Zm-8.09-6.07s-.64,5.44,3.41,12.39c0,0-2.53-9.74-1.27-13.15Z" transform="translate(0.27 0.27)"/><path class="cls-3" d="M220,262.75s-4.89,3-7.08,2.87a5,5,0,0,1-4-3.38S215.57,263.93,220,262.75Z" transform="translate(0.27 0.27)"/><path class="cls-3" d="M82.78,210.86a41.28,41.28,0,0,0,6.11,12.95c2,2.72,4.49,5.16,6.8,7.67a58.55,58.55,0,0,1,3.91,4.57c1,1.26,1.76,2.62,2.73,3.86,1.56,2,3.57,4.11,6.12,4.8a9.06,9.06,0,0,0,7.34-1.44c.21-.14,0-.47-.19-.34-2.73,1.56-5.81,2.3-8.7.68s-4.42-4.14-6.27-6.62c-3.81-5.13-9.11-9.15-12.37-14.69a50.93,50.93,0,0,1-5.73-14.05c-1.11-4.7-2-10.44.2-15a8.42,8.42,0,0,1,6-4.71c3.56-.66,6.42.68,9.28,2.63a11.64,11.64,0,0,1,2.93,3.73c.8,1.33,1.51,2.72,2.22,4.1a43.33,43.33,0,0,0,5,8.07,0,0,0,1,0,0,0c-2.74-3.4-4.49-7.43-6.43-11.3-.45-.88-.87-1.78-1.36-2.64A8.69,8.69,0,0,0,99,191a12.53,12.53,0,0,0-4.49-2.93,9.53,9.53,0,0,0-10,1.8,11.71,11.71,0,0,0-3.21,6.43C80.54,201.11,81.39,206.22,82.78,210.86Zm23.46,12.37a6.13,6.13,0,0,1-.35-6.8c.3-.58-.58-1.09-.87-.51a6,6,0,0,0,.15,6.1c1.32,2.31,3,4.3,3.31,7,0,0,0,0,0,0A12.36,12.36,0,0,0,106.24,223.23Zm-12.62-26a54.44,54.44,0,0,1,4.49,5.55h0c-.66,1.45-2.55,2-3.73,2.95s-1.12,2.21-1,3.58c.28,4,2.12,7.75,1.87,11.76h0c.27-3.92-1.43-7.57-1.64-11.44,0-.86-.1-2.09.6-2.72a12.48,12.48,0,0,1,1.9-1.21,4.5,4.5,0,0,0,2.28-2.58c1.08,1.57,2.09,3.18,3,4.82a.25.25,0,0,0-.13,0c-3.44.11-4.79,4.34-3.81,7.11,0,0,.06,0,0,0-.67-2.8.5-6.33,3.76-6.55a.28.28,0,0,0,.27-.28c1.32,2.26,2.55,4.58,3.78,6.91.09.17.32,0,.25-.14a74,74,0,0,0-7.47-12.87,57.14,57.14,0,0,0-4.35-5.55,32.35,32.35,0,0,0-4.36-4.32c-.45-.34-1.05.44-.61.79A41.21,41.21,0,0,1,93.62,197.25Z" transform="translate(0.27 0.27)"/><path class="cls-4" d="M220.74,233.62a22.69,22.69,0,0,0,1,12.18c1.07,3.2,2.9,6.19,3.62,9.5a8.14,8.14,0,0,1-2,7.51A13.07,13.07,0,0,1,218.3,266a23.65,23.65,0,0,1-3.81.88,11.39,11.39,0,0,1-3.67.3.23.23,0,0,1,0-.44c1.16-.2,2.34-.23,3.5-.46a16.62,16.62,0,0,0,3.88-1.6,14.15,14.15,0,0,0,4.74-3.47c1.86-2.22,1.44-5.13.84-7.73-.73-3.18-2-6.19-2.8-9.35a21.27,21.27,0,0,1-.25-10.54Z" transform="translate(0.27 0.27)"/><path class="cls-4" d="M206.59,263.92c.63-1.54-.54-1.88-1.84-2a9.66,9.66,0,0,0-3.71.21c-.12,0-.17-.16,0-.2,1.56-.51,3.23-1.13,4.88-.66,1.37.4,1.51,1.59.93,2.71a.11.11,0,0,1-.21-.09Z" transform="translate(0.27 0.27)"/><path class="cls-4" d="M201.37,263.62c-2-1.37-2.6-4.2-2.37-6.49a.12.12,0,0,1,.24,0c.29,2.51.37,4.47,2.19,6.41a.05.05,0,0,1-.06.08Z" transform="translate(0.27 0.27)"/><path class="cls-5" d="M206.6,262.86s.19-1.27-3.54-.89C203.06,262,205,263.42,206.6,262.86Z" transform="translate(0.27 0.27)"/><path class="cls-3" d="M225.35,281.8s-5.11-4.4-8.82-5.08c-2.36-.43-4.23,1.65-6.48,1.89-2.65.28-4.9-1.27-7.52-1.38-3.87-.17-5.9.38-13.65,1.89s-26.39,1.66-28.08,1.5c0,0,10.79,6.06,13.82,6.06s23.6,2,24.44,2.2,10.62-.51,12.47-.51Z" transform="translate(0.27 0.27)"/><path class="cls-6" d="M172.06,281.56c1.95.45,4,1.24,6.36,1.24,5.8,0,30.06.49,30.7.74s11.59-.25,12.24-.25h4.5a54,54,0,0,1-4.08,6.19,5.72,5.72,0,0,0-.39.57,2.39,2.39,0,0,0-.13.21l-.22.39-.13.27c-.06.12-.12.25-.17.37l-.12.3c-.05.12-.1.24-.14.36-.91,2.47-1.19,5.27-2.56,6.69-2.15,2.23-14.6,4.7-21.89,1.24A107.91,107.91,0,0,1,184.82,293h0c-8.09-5.47-17-12-18-12.74l-.1-.07S169.31,280.93,172.06,281.56Z" transform="translate(0.27 0.27)"/><path class="cls-7" d="M166.71,280.09l0,0,4.8.71a76.66,76.66,0,0,0,17.38.74c6.44-.49,13.95-2.72,17.6-2a13,13,0,0,1,5.8,2.72s3.86-3.46,5.58-3.46,4.51,1.48,6.44,2.72,4.38-.44,4.76-.69c0,0,0,0,0,0s0,0,0,0a16.19,16.19,0,0,1-1.56,1.35l-.14.11c-.22.17-.45.34-.68.49a20.4,20.4,0,0,1-6.65,3c-1,.32-2.07.61-3.12.89-.08,0-.77,0-.82.14a3.36,3.36,0,0,1-.75.95,5,5,0,0,1-2.39,1.1,11.89,11.89,0,0,1-5.51-.55.11.11,0,0,1-.05-.13l-2.78-.71s0,0,0,0A99,99,0,0,1,186,286.14a78.94,78.94,0,0,1-9.9-2.21c-1.56-.45-3.1-1-4.62-1.56s-3.15-1.51-4.74-2.26C166.69,280.1,166.7,280.08,166.71,280.09Z" transform="translate(0.27 0.27)"/><path class="cls-8" d="M190.69,179.64a110.79,110.79,0,0,1-13.48-7.94,35.88,35.88,0,0,0-14.31-6.64c-7.27-1.47-18.43-2.19-34.39,4.86-1,0-2.1,0-3.16,0a107.58,107.58,0,0,1,22.34-9.3c13.17-3.78,25.17-1.88,34.31,3C191.39,168.71,194.8,176.77,190.69,179.64Z" transform="translate(0.27 0.27)"/><path class="cls-8" d="M185.43,176.5c2.15,1.24,3.88,2.17,4.7,2.58a3.92,3.92,0,0,0,1.13-3.51c-.35-3.35-4-8-9.85-11.18a39.89,39.89,0,0,0-7-2.94,44.75,44.75,0,0,0-26.58.27,98.76,98.76,0,0,0-19.79,8.56h.53c12-6,22.86-7,31-6.05a34.79,34.79,0,0,1,16.91,6.49l1.08.76a90.49,90.49,0,0,0,7.89,5Z" transform="translate(0.27 0.27)"/><path class="cls-8" d="M228,182.61a24.84,24.84,0,0,0,8.22-5.43c2.1-2,4.18-4.14,8.3-5.4,4-1.1,10.24-1.36,18.58,4.37.67-.21,1.35-.4,2-.58a66.54,66.54,0,0,0-12-8.23,18.3,18.3,0,0,0-18.55,1C228.87,171.88,226.05,178.48,228,182.61Z" transform="translate(0.27 0.27)"/><path class="cls-8" d="M231.34,180.44a25.41,25.41,0,0,1-2.88,1.5,7.72,7.72,0,0,1-.22-3.95c.57-3.17,3.11-6.84,6.65-9a20.65,20.65,0,0,1,4-1.95A16.77,16.77,0,0,1,253,168.25a58.72,58.72,0,0,1,10.39,7.62c-.12,0-.23.07-.35.09-6.28-4.77-12.23-5.76-16.64-5.07a17.21,17.21,0,0,0-9.61,5.19l-.65.64a26.66,26.66,0,0,1-4.79,3.72Z" transform="translate(0.27 0.27)"/><path class="cls-8" d="M162.72,223.76l-7.21,3.79s-10.24-5.31-17.06-8.34l-.76-9.1,24.65,12.13Z" transform="translate(0.27 0.27)"/><path class="cls-8" d="M139,197.91s-9.38-5.58-12.23-13.25c0,0,.72,9.91,12.09,17.66Z" transform="translate(0.27 0.27)"/><path class="cls-8" d="M136.19,200.22a17.73,17.73,0,0,1-5.05-6.83s10.11-8.59,28.06-6.82,24,22.25,27.3,35.14l-17.44-6.07Z" transform="translate(0.27 0.27)"/><path class="cls-8" d="M184.68,219.74c-1.69-6.32-3.92-13.26-7.45-19.12-4.73-7.87-10.67-12.06-18.16-12.79a46.48,46.48,0,0,0-4.69-.24c-11.81,0-19.4,4.61-21.7,6.22a17.19,17.19,0,0,0,4.19,5.33l32.67,15.33,15.14,5.27Z" transform="translate(0.27 0.27)"/><path class="cls-9" d="M160.82,192.67c14.41,1.89,22.75,19,26.54,31.47a42.15,42.15,0,0,0-7.83-1.13,83.49,83.49,0,0,1-17.27,2.22l-.3.05c-5.31.75-4.55,0-4.55,0-5.69-1.52-11.38-3.42-15.55-7.59a25.22,25.22,0,0,1-5.31-15.55v-2.65A33.5,33.5,0,0,1,160.82,192.67Z" transform="translate(0.27 0.27)"/><path class="cls-10" d="M140.77,206.5a20.43,20.43,0,0,1,3.45-11.45,32.35,32.35,0,0,1,16.6-2.38c6.51.85,11.79,4.81,16,10a20.55,20.55,0,0,1,.34,3.79c0,8.75-5.34,16.15-12.72,18.64l-2.14.09-.3.05c-5.31.75-4.55,0-4.55,0a49.86,49.86,0,0,1-9.76-3.48A20.06,20.06,0,0,1,140.77,206.5Z" transform="translate(0.27 0.27)"/><path class="cls-10" d="M159,223.47c-8.73,0-15.8-7.6-15.8-17a17.45,17.45,0,0,1,5.64-13,31.76,31.76,0,0,1,12-.83,22.31,22.31,0,0,1,12.09,5.9,17.86,17.86,0,0,1,1.83,7.93C174.74,215.87,167.67,223.47,159,223.47Z" transform="translate(0.27 0.27)"/><path class="cls-8" d="M147.78,206.5c0,6.63,5,12,11.17,12s11.17-5.37,11.17-12-5-12-11.17-12S147.78,199.87,147.78,206.5Z" transform="translate(0.27 0.27)"/><path class="cls-8" d="M149.24,206.5c0,5.76,4.35,10.43,9.71,10.43s9.7-4.67,9.7-10.43-4.34-10.43-9.7-10.43S149.24,200.74,149.24,206.5Z" transform="translate(0.27 0.27)"/><path class="cls-8" d="M149.24,206.5c0,5.76,4.35,10.43,9.71,10.43s9.7-4.67,9.7-10.43-4.34-10.43-9.7-10.43S149.24,200.74,149.24,206.5Z" transform="translate(0.27 0.27)"/><path class="cls-9" d="M163.16,197a4.23,4.23,0,1,1-4.57-4.51c.42,0,.85.05,1.27.09A4.47,4.47,0,0,1,163.16,197Z" transform="translate(0.27 0.27)"/><path class="cls-8" d="M136.6,199.58c5.64-3.47,11.87-6.07,18.56-6.42,5.77-.3,11.14.94,15.77,4.47,8.46,6.44,13.14,16.7,16.41,26.52,0,0,.06,0,0,0l-.24-.86A75.41,75.41,0,0,0,181,208.41a36.58,36.58,0,0,0-10.24-12.33c-10.17-7.34-25.3-4.87-34.27,3.33C136.39,199.5,136.5,199.65,136.6,199.58Zm5.23,18.14c3.85,4.29,10,6.52,15.57,7.58,0,0,0,0,0,0-2.76-1-5.59-1.72-8.26-2.93a30,30,0,0,1-7.26-4.66S141.8,217.68,141.83,217.72Z" transform="translate(0.27 0.27)"/><path class="cls-8" d="M250.69,218.07v3.79s-5.69,3-11.38,6.83l-5.68-4.17Z" transform="translate(0.27 0.27)"/><path class="cls-8" d="M252.74,210.08s9.45-4.27,13.5-12.11c0,0-9.46,8.82-14.77,9.84Z" transform="translate(0.27 0.27)"/><path class="cls-8" d="M253.24,209.07s2.53-.51,5.57-3.79c0,0-.14-11.16-9.86-14.92-7.84-3-14.14,3.12-17.43,9.7a40.85,40.85,0,0,0-3.32,11.85c-.3,1.78-.33,10.21-1.75,11.32,0,0,9.1-7.08,10.11-7.34S253.24,209.07,253.24,209.07Z" transform="translate(0.27 0.27)"/><path class="cls-8" d="M228.8,219.82c6.43-4.89,7.18-5.08,7.45-5.15.85-.24,10.57-4.28,16.51-6.77l.1,0,.12,0a10.58,10.58,0,0,0,4.54-3c-.16-2.12-1.25-10.25-9-13.26a10.09,10.09,0,0,0-3.63-.71c-6.78,0-11.06,7.49-12.21,9.79-1.79,3.57-2.54,7.48-3.21,11.49-.07.42-.13,1.43-.2,2.49-.13,2.13-.27,3.85-.44,5.22Z" transform="translate(0.27 0.27)"/><path class="cls-9" d="M253.72,209.35l-.37,1.52a28.81,28.81,0,0,1-4.55,9.1c-2.51,3.24-4.43,4.41-8,6.06-4.66,2.18-11-3.25-14.79-.37,1.14-8,1.52-16.31,6.45-23.89C238.82,192,252.21,191.91,253.72,209.35Z" transform="translate(0.27 0.27)"/><path class="cls-10" d="M244.07,195.23c2.38,3.34,3.75,8.31,3.45,13.79-.53,9.63-6,17.16-12.24,16.82-3.51-.2-6.5-2.84-8.36-6.82.81-5.86,2-11.76,5.57-17.25C235.45,197.21,240,194.76,244.07,195.23Z" transform="translate(0.27 0.27)"/><path class="cls-10" d="M246,208.94c-.46,8.37-5.22,14.91-10.64,14.61-3.55-.19-6.5-3.29-8-7.76a36.21,36.21,0,0,1,5.07-14,13.88,13.88,0,0,1,9.1-6.48C244.54,198,246.36,203.15,246,208.94Z" transform="translate(0.27 0.27)"/><path class="cls-8" d="M236.83,197.69c3.82.21,6.66,5.18,6.34,11.09s-3.69,10.55-7.52,10.34-6.58-5-6.36-10.8a30.48,30.48,0,0,1,3.2-6.55,16.24,16.24,0,0,1,3.71-4.07A4.42,4.42,0,0,1,236.83,197.69Z" transform="translate(0.27 0.27)"/><path class="cls-8" d="M230.21,208.07c-.28,5.14,2.19,9.46,5.51,9.64s6.26-3.83,6.54-9-2.18-9.46-5.51-9.65S230.5,202.93,230.21,208.07Z" transform="translate(0.27 0.27)"/><path class="cls-8" d="M230.21,208.07c-.28,5.14,2.19,9.46,5.51,9.64s6.26-3.83,6.54-9-2.18-9.46-5.51-9.65S230.5,202.93,230.21,208.07Z" transform="translate(0.27 0.27)"/><path class="cls-9" d="M239.32,200.06c-.12,2.23-1.39,4-2.84,3.9s-2.52-2-2.39-4.19v-.11a14.6,14.6,0,0,1,4.08-3.22A4.74,4.74,0,0,1,239.32,200.06Z" transform="translate(0.27 0.27)"/><path class="cls-8" d="M225.94,225.66a.1.1,0,0,0,.2,0c.72-3.12.83-6.4,1.38-9.56a41.21,41.21,0,0,1,2.64-9.45c1.81-4.14,4.42-8,8.63-9.92a9,9,0,0,1,9.17.53c3.81,2.73,5.2,7.65,5.75,12.07,0,0,0,0,0,0s0-.26,0-.4c-.3-4.46-1.48-9.52-5.17-12.44a9.6,9.6,0,0,0-9.59-1c-4.3,1.74-7.09,6.1-8.84,10.17a43.89,43.89,0,0,0-2.83,10A87.54,87.54,0,0,0,225.94,225.66Zm14.92.46a16.15,16.15,0,0,0,8-6.13s0-.09-.07-.05a20.1,20.1,0,0,1-3.79,3.58c-1.34.9-2.8,1.61-4.19,2.44A.09.09,0,0,0,240.86,226.12Z" transform="translate(0.27 0.27)"/><path class="cls-11" d="M204.46,379.73a191.24,191.24,0,0,0,21.44-2.86c3.58-3.88,4.88-9.37,4.52-15.21,5.8,1.21,12.67.28,19.15-1.4a31.24,31.24,0,0,1,10.31.11c.45.1.88.22,1.29.35.16,0,.29.1.44.15s.5.16.73.25l.44.21.58.26c.15.07.27.15.41.23l.5.29.35.25c.14.1.29.2.42.31l.3.27c.12.11.25.22.36.34s.17.19.25.28l.3.37.19.29,0,0a189.74,189.74,0,0,0,21.4-11.07,16.68,16.68,0,0,0-2.15-2.13,29.05,29.05,0,0,0-3-2.19c5.92-1.09,14.32-3.87,17.28-9.24,5.89-10.69-9-3.78-12.6-1,2.35-.68,9.48-3.13,7.8,1.37-1.12,3-8.4,4.67-11,4.57-8.91-.34-15.85-10.36-8.09-17.11,6.22-5.42,14.69-4.59,22.48-3.89,4.38,2.11,8.39,5.23,9.9,8.67a15.93,15.93,0,0,1,1.31,5.58q6.45-5.22,12.42-11a22,22,0,0,1,4.67-4.67,190.58,190.58,0,0,0,30.09-40.8c-2.65-3.31-5.21-7-4.44-9.37,1.45-4.33,5.61-2.55,9,.48,1.16-2.42,2.27-4.86,3.33-7.34-2-2.25-4.27-4-6.37-4.43-6.62-1.31-14.73,9.63-18.2,13.76l-2.32,2.82c-9.27,1.22-21.16-4.85-16.54-14.64,1.81-3.82,9.18-10.11,13.19-6.84,6.08,5-4.92,12.29-3.95,5.86-4.12,8.34,7.29,6.19,10.5.48,2.85-5.07-2.16-9.74-7.65-12.05,11.66-6.47,5.77-23.89,17.27-29.45,3.88-1.87,19.78,1.42,16.44,7.85-1.26,2.43-6.36,1.43-8.12.26-3.12-2.09-2.81-6.35,1.19-3.87-1.74-1.58-3.73-2.39-5.77-1.48-1.17,6.16,10.06,14.18,13.56,7,3.65-7.52-2.95-16.84-10.62-17.7-5.27-.59-11.31.94-16.78,3.48.42-11.73-14.29-9.76-24.49-6.47,3.76-3.19,8.25-5.66,11.87-9.27-3.15-4.47-12.16-9.26-11.07.46a24.33,24.33,0,0,1,5.08-3.42c4.9,2.3.65,6.81-3,7.24-4.82.56-7.77-5.16-7.58-9.72.27-6.57,4-7.09,8.32-6.16l.54.12.19,0,.63.16.08,0c1.77.47,3.6,1.08,5.33,1.57l.21.06.46.12.33.09.37.08.39.1.31.06.43.08.26,0,.45.07.24,0,.44,0h.64a4.08,4.08,0,0,0,.61,0c6.91-.89,10.77-12.62,12.15-18.13a44.86,44.86,0,0,0,.15-19.32c1.48.46,3.09.88,4.83,1.33l1.29.36.25.07c.38.12.75.24,1.09.37l.2.07.89.35.12.06a7,7,0,0,1,.82.39l.19.09q.38.19.69.39l.11.08c.18.12.35.23.5.35l.13.1.44.38.12.13a3.45,3.45,0,0,1,.32.36.36.36,0,0,1,.07.1,1.79,1.79,0,0,1,.22.34.75.75,0,0,1,.07.12c1.8,3.58-5.65,6.66-6.94,3.11-.32,8.37,13.13.13,12.9-7.05-.21-6.93-5.71-9.64-10.95-12.64,8-5.37,13.89-8.19,12.94-18.69-.75-8.42-5-16-12.3-9.62,3.41-3,7-.92,4.84,3.42-2.91,6-8.82-.08-12.1-2.34-.25-8.36,1.63-16.46,1.06-24.61-.3-4.26-2.77-11.48-9.86-8.17-4.93,2.31-4.46,9.89,2.21,8.17-5.64-1.91.35-10,4.67-4.78,4,4.89-3.55,8.85-7,9.37-3.15.47-6.54-.07-10-.31-9-1.52-18.6.9-27.21,2.71-7.1,1.5-18.88.43-25.38-5.06a10.23,10.23,0,0,1,.17-3.61c1.88-8.94,15.43-11.68,22.77-10.29,14.16,2.7,5.84,13.7-4.88,8.14,7.32,9.9,24.05,5.16,18.89-9.1a21.9,21.9,0,0,0-4-6.5c6-2.78,15.07-9,13.58-16.92-1.27-6.72-10.33-5.77-12.23-.27,2.49-1.06,6.42-.23,6.77,3,.44,4-6,5.12-8.75,5.47-4.33.53-29.46-7.45-22.93-14.88,2.73-3.1,12.81,2,5.71,4.93,12-2.19-3-11-9.22-6.51A14.08,14.08,0,0,0,275,51.65c-7.08,4.34-20,8.13-25.75,4.22-4.08-2.76-2.49-6.1,1.63-7.36a11.54,11.54,0,0,1,5.51-.21l6.93,3.18c.17.14.35.27.51.41,0-.09-.06-.19-.1-.28,10.94-8.28-4.05-11-7-18.92,2.79-4.4,12.1-4.31,11.32,2.14a20.6,20.6,0,0,1-1.88.93c2.7.94,3.11.38,5.12-.8-4.87-9.58-16.79-8.45-23.47-1.33a10.29,10.29,0,0,1,2.89,5.8,51.73,51.73,0,0,0-5.07-2.53,29.23,29.23,0,0,0-22.56-.49c4.56-6.37-3.41-19.38-11-21.36-16.39-4.26-8.23,21.52.85,9.59-6.05,2.21-11.28-3.15-3.92-6.17,5.36-2.21,10.09,5.14,9,10.31-2,.47-3.81.88-5.57,1.31-9.2-2.3-19,.61-26.56,8.19a19.23,19.23,0,0,0-4.42,6.41c-5.71-3.84-10.06-9.81-5.74-15.79-1.24-2-4.28-3.77-7.09-4.52,4.47,5.13-11,9.33-14.13,13.45,2.79,1,3.83,2.58,3.84,4.45A42.32,42.32,0,0,1,149.63,47c-5.3,1.6-18.79,4.93-21.16-3.18-1.86-6.38,7.87-12.28,13.07-12.11,10.91.35,1.64,11.48-4.85,6.52,6.64,7.14,16.63.32,10.79-6.93-5-6.21-18.8-2.91-24.67-.1-10.14,4.86-14.33,13.42-8,23.76a30.77,30.77,0,0,0,6.4,7.5c-5.27.64-10.61,3.33-15.36,6.39-1.1-6.82,1.66-6.77,5.41-11.9-4.86-4.31-18.08-11.62-25-9.71C72.6,51.07,87,65.15,90.8,55a6.41,6.41,0,0,1-7.33.32c.38-6.69,5.28-7.86,10.31-5,6.5,3.72,3.71,4.62.55,9.48-.26.4-.51.81-.75,1.22A14.89,14.89,0,0,0,91.34,64a26.41,26.41,0,0,0-2.89,13.21,11.19,11.19,0,0,0,.9,4c-8.7-1.75-19.59,8.1-19.74,16.11,4.86-5.42,13-4.85,19.7-5-9.43,3-19.43,18-7.08,24.85-2-1-4.54-1.84-6.9-2.88-2.65-3.74-4.16-8-2.94-11.74C64.94,100,54.9,86.16,47.5,88.06c-2.2.56-9.79,8.37-9.94,10.62-.45,6.53,8,7.85,10.58,2.38-2.71,1.93-6.19,1.84-8.3-.87,7-9.45,21-7,15.81,5.12-2.58,6-3.95,3-2.28,10.06.74,3.14,1.63,6.2,2.56,9.19a13.77,13.77,0,0,0-9.77.83c-5.36,2.54-7.35,9.71-12.28,12-3.31,1.54-11.77.19-13.14-4.38-1.59-5.31,5.25-8,9.21-4.61A25.92,25.92,0,0,1,28,130.59a10.24,10.24,0,0,0,5-1c-4.81-7.36-14.38-5.73-18.19,1.68,4.47,6.26,11.09,13.89,18.28,13.49,4.27-.24,8.07-1.59,11.79-2.63A20.81,20.81,0,0,0,40.29,147c-5.5,7.91-.29,16,5.12,21.4a13.15,13.15,0,0,0-12.55,0c12.55-1.34,13,16.41,3.61,21.74-6.67,3.8-11.71,1.1-12.94-2.79a8.59,8.59,0,0,1,3.5-4.28c5.34-3.41,10,1.19,4.53,5.2-1.16-1-2.13-1.19-2.86-2.29-1.15,6.91,7.57,4.55,8.21-1.54.67-6.29-5.09-10.87-11.45-9.18-10.07,2.66-11.13,10.68-8.42,18a15.59,15.59,0,0,0,.11,2.82A16.47,16.47,0,0,0,23,206.42c-4.08-3.46-8.46,14.88-7.79,17.5,1.84,7.18,5.21,14.85,7.43,22.1a6.66,6.66,0,0,1,1.4-4.54c2.2-2.68,6.54-3.08,10-.6,1.61,1.15,11.3,16.63,11,17.32.11-.3.23-.58.36-.85,0-.09.09-.16.13-.24s.19-.36.29-.52l.18-.25a4.48,4.48,0,0,1,.32-.44c.06-.08.14-.15.21-.23s.22-.25.34-.36l.24-.22.37-.31a2.48,2.48,0,0,1,.26-.19l.4-.28.29-.17.41-.24.31-.15.43-.2.34-.14.43-.17.37-.13.43-.14.4-.12.43-.12.43-.12.4-.1.51-.11.32-.08.67-.14.13,0,1.64-.35.28-.06-.17.15-.1.09c-.48.42-.95.85-1.41,1.3a.81.81,0,0,0-.1.09c-4.47,4.34-7.68,9.6-8.08,15.91,11.69,3.41,11,17-.47,20.43-13.11,3.92-13.57-14-.19-10.83C40.76,272,30.54,280,29.79,287.25a.08.08,0,0,1,0,0c0,.1,0,.19,0,.29s0,.26,0,.4a2.8,2.8,0,0,0,0,.29c0,.14,0,.28,0,.42s0,.16,0,.24.06.44.11.66c1.71,7.89,12.81,10.28,19.11,10.62a28.69,28.69,0,0,0,11.8-1.71v.11a19.51,19.51,0,0,0,.72,6.17c2,7.32,7,7.65,12.17,11.86,4.85,3.94,3.49,12-3.06,13.28-4.83,1-9.64-5.8-4.92-7.87-5.07,2.09-6.17,7.37-.54,9.5,4.1,1.56,10,0,14-2.4l.69-.44.19-.13a9,9,0,0,0,.77-.57c6.31-5,3.43-10.62,4.56-17.19.51-3,2-4.63,4-5.38.13.22.25.45.37.68a1.74,1.74,0,0,0,.1.19l.27.55.1.21.27.59c0,.07,0,.13.08.19l.33.78c.12.31.24.6.35.9l.3.86a1.42,1.42,0,0,0,0,.16c.08.24.16.49.23.74a.84.84,0,0,1,0,.17c.08.27.16.53.23.8l0,.09c.16.62.3,1.24.41,1.85a.69.69,0,0,1,0,.13c.05.26.09.51.13.77l0,.2c0,.24.06.48.08.72,0,.06,0,.12,0,.18l.06.86c0,.31,0,.61,0,.9,0,0,0,.06,0,.09,0,.24,0,.49,0,.73,0,.07,0,.14,0,.21s0,.4-.07.6c-.43,2.89-1.93,5.15-5.18,5.77,3.65,1.68,6.42,4,10.47,4.79,3.42.66,7.29-.06,10.54,1,.93,5-4.67,10.76-9.52,11.06-8.27.52-2.51-5.44,1.86-6.59-6.55-2.39-18.1,7.33-7.94,11.51,7.6,3.12,17.63-1.73,25.68-1.39a41,41,0,0,1,6,.88,50.45,50.45,0,0,0,2.76-8.23l0-.14c.21-.86.41-1.74.61-2.63l.06-.3c.19-.9.38-1.81.55-2.75,0-.09,0-.2.05-.3.17-.94.33-1.9.49-2.87,0-.08,0-.17,0-.26.15-1,.3-2,.44-3V326a255.47,255.47,0,0,0,1.9-27.16c0-1.09,0-2.12,0-3.12v-.09c0-.38,0-.76,0-1.13v-.28c0-1.68,0-3.19,0-4.51v-1a1.55,1.55,0,0,0,0-.22v-.72c0-.3,0-.58,0-.85A73.56,73.56,0,0,1,120.52,270c-.45-1-.88-1.93-1.3-2.91-.27-.63-.52-1.27-.77-1.91-1.55-3.84-2.88-7.77-4.07-11.74-.27-.91-.54-1.81-.8-2.71-.06-.23-.13-.46-.2-.69-.34-1.22-.67-2.43-1-3.65l-.42-1.59a7.93,7.93,0,0,1-3.52-.13c-2.55-.69-4.56-2.79-6.12-4.8-1-1.24-1.78-2.6-2.73-3.86a58.55,58.55,0,0,0-3.91-4.57c-2.31-2.51-4.75-4.95-6.8-7.67a47.1,47.1,0,0,1-7.65-20.19,26.06,26.06,0,0,1,.13-7.33,11.71,11.71,0,0,1,3.21-6.43l.38-.32c.17-.15.34-.3.52-.43l.27-.18c.19-.12.37-.25.57-.36a3.84,3.84,0,0,1,.35-.18,5,5,0,0,1,.52-.25,7.77,7.77,0,0,1,.92-.33l1.5.21.15,0,1.39.23.19,0c.45.09.89.18,1.32.29l.15,0c.44.11.88.24,1.3.38a12.85,12.85,0,0,1,6.29,4.5c2.85,3.6,5,8.87,7,12.86s3.4,9.7,6.23,13.52c3.78,5.09,6.94,4.44,7.4,11.52.65,10-5.66,24.3,11.38,25.06,20.47.9.07-21-2.15-6.19,2-3.6,11-6.2,8.08.86-2.59,6.3-11.55,2.24-14.09-1.56a10.53,10.53,0,0,1-1.78-5.48l.83-2.82-.72.27c.9-7.2,6.17-14.84,2.43-21.7-2.54-4.65-8.08-3.85-11-7.19s-5.09-12.74-4.4-16.91c.84-5.11,6.08-8.86,7.39-13.8.89-3.38.23-6.52-.64-9.67a20.56,20.56,0,0,0,13,2.42c3.12-.42,8.18-2.75,10.05-6.79,2.16-4.68,0-12.81-7-10.66,3.76.72,5.33,5.35,1.24,8a4.21,4.21,0,0,1-2.84.59,5.22,5.22,0,0,1-.79-.14l-.11,0c-.3-.08-.61-.17-.91-.28l-.16-.06c-.27-.1-.53-.21-.79-.33l-.16-.07c-.3-.14-.6-.29-.89-.45l-.14-.07-.77-.44-.18-.11-.84-.51-.08-.05-.78-.5-.87-.57c2.21-12.39,9.93-11.75,20.42-13.46a20.82,20.82,0,0,0,7.07-2.52l1-.65.23-.16.79-.55.38-.31.58-.46c.18-.15.35-.31.52-.47l.4-.35c.21-.2.41-.41.61-.61l.26-.27c.23-.24.45-.49.67-.75l.15-.17c.25-.3.48-.6.71-.91l.05-.07q.36-.48.69-1s0,0,0,0a19.52,19.52,0,0,0,1.23-2.19c3.09,3.42,7.89,5.51,14.31,8.59,7.54,3.62,19.44,4.81,24-4.57-2.24-3.32-7.77-11-10.59-4.26,7.78-3.24,6.43,6.89-.65,7.17-6.24.24-8-7.51-6.9-13s9.56-10.17,15.11-15.19c.16,5.83,2.42,10.93,8.57,12.79,13.19,4,25.56-3.11,29.62,13.65,2.18,9-5.22,18.82-16.27,18.2-12.39-.69-7.45-21,3.28-7.41-.71.73-1.55,2.33-2.23,2.92,2.1-.53,3.7-2.1,5.07-3.49-8-7.55-16.48-9.31-21,2.89,7.87,7.1,10.22,11.41,20.21,8.13,6.15-2,18.17-4.25,20.67-10.43a17.62,17.62,0,0,0,.93-4.1c5.12,4.71,13.55,6.47,21.12,6.95,0,1.45,0,2.76.05,4,0,.54,0,1,0,1.55,0,.15,0,.29,0,.44,0,.37,0,.73,0,1.09,0,.18,0,.37,0,.56s0,.6.07.9a5.51,5.51,0,0,0,.06.57c0,.29.06.58.1.86l.09.55c.05.3.11.6.17.89s.06.32.1.47q.15.67.36,1.35c.09.29.19.6.29.9l.12.38.18.55c.33,1,.68,2.11,1,3.23a2,2,0,0,0,.07.23c.08.27.17.55.25.83a2.17,2.17,0,0,0,.07.24c.09.33.19.66.29,1a.43.43,0,0,0,0,0l.3,1.12a1,1,0,0,0,0,.14c.08.31.15.63.23.94l.06.28c.07.29.14.59.2.89l.06.24c.15.76.29,1.54.41,2.32l0,.24.12.93c0,.11,0,.21,0,.31,0,.33.07.65.1,1,0,.08,0,.15,0,.23,0,.41.06.82.08,1.23v0q0,.59,0,1.17A29.22,29.22,0,0,1,269,194c0,.11,0,.22-.07.33-.11.45-.22.91-.35,1.36,0,0,0,.07,0,.11-.14.47-.29.94-.46,1.42-.05.14-.09.27-.14.4-.16.44-.33.87-.51,1.31,0,.06,0,.11-.07.17-.23.54-.48,1.09-.75,1.64a114.66,114.66,0,0,0-2.38,14.15c-.07.69-.14,1.41-.21,2.14,0,.19,0,.38-.05.57,0,0,0,0,0,0-.07.92-.14,1.86-.2,2.82a.15.15,0,0,1,0,.07c0,.46-.05.93-.07,1.4V222c0,.48-.05,1-.06,1.45v.07q0,.7,0,1.41s0,.08,0,.12c0,.49,0,1,0,1.48s0,.82,0,1.23c0,.14,0,.28,0,.42s0,.55-.05.84,0,.34,0,.51l-.06.77-.06.56-.09.75c0,.2,0,.39-.08.59s-.07.5-.11.75-.07.4-.1.61-.09.5-.14.75-.07.42-.11.63,0,.14-.05.21-.07.37-.11.56-.09.42-.13.63-.14.57-.2.85-.2.82-.31,1.23l-.18.69c-.07.27-.16.54-.23.81l-.18.63c-.08.28-.17.57-.26.86s-.12.39-.19.6-.19.59-.29.89l-.19.57-.32.93c-.07.18-.13.36-.2.53l-.36,1-.17.45c-.14.36-.28.73-.43,1.09l-.09.23c-.75,1.87-1.59,3.76-2.51,5.69l0,.07c-.22.45-.44.91-.67,1.36l-.09.2c-.22.45-.45.9-.68,1.35l-.12.21c-.23.45-.47.91-.72,1.37l-.08.15q-1.5,2.79-3.23,5.63c-.17.29-.35.58-.53.87-.54.88-1.1,1.76-1.67,2.65,0,.06-.07.12-.11.17-.68,1-1.37,2.08-2.09,3.13l-1.34,1.9q-1,1.4-2,2.79c-.14.2-.29.39-.44.59-.69.93-1.41,1.85-2.14,2.78-.84,1.08-1.67,2.15-2.48,3.22-.06.08-.12.15-.17.23-.78,1-1.54,2.06-2.3,3.09l-.25.35c-.74,1-1.47,2-2.19,3l-.24.33c-10.76,15.09-19.35,28.53-33.09,30.55-.41.06-.83.11-1.25.15a43.9,43.9,0,0,1-7.44.05c0,.34-.05.68-.07,1s0,.45-.05.67a2.09,2.09,0,0,0,0,.25c0,.24,0,.49-.05.73s0,.45,0,.67,0,.65,0,1l0,.64c0,.34,0,.68,0,1s0,.38,0,.56l0,1.32v.22c0,.51,0,1,0,1.51v.52c0,.32,0,.64,0,1v.61c0,.29,0,.58,0,.86s0,.41,0,.62,0,.55,0,.82l0,.62c0,.27,0,.54,0,.8a5.88,5.88,0,0,0,0,.6c0,.28,0,.55,0,.82l0,.56c0,.32.05.64.08,1,0,.13,0,.26,0,.38s0,.53.07.8l-.12,0c.05.68.12,1.37.21,2.05,0,.08,0,.15,0,.22.16,1.12.35,2.23.61,3.32,0,.16.05.31.08.46s.07.43.11.64.06.37.1.55.08.45.13.68c0,.06,0,.13,0,.19l.06.29c.07.36.15.72.23,1.08l.12.52c0,.14.06.28.1.42l.59-.22a18.41,18.41,0,0,0,5.93,7.41c6.37,4.64,19.16,4.5,12.91,15-.18.31-.4.63-.63,1a1,1,0,0,1-.08.11c-.22.31-.45.62-.7.94l-.12.15c-.26.32-.53.64-.82,1a.69.69,0,0,1-.11.13c-.31.35-.63.7-1,1.05A32.11,32.11,0,0,1,204.46,379.73Zm17.91-343-.43.17c-5,2.1-10.58,5.72-13.41,10.52-.37-3.29-.14-6.91.76-9.11A9.58,9.58,0,0,1,210.57,36,14.08,14.08,0,0,1,222.37,36.71Z" transform="translate(0.27 0.27)"/></svg>