<svg id="Layer_1" data-name="Layer 1" xmlns="http://www.w3.org/2000/svg" xmlns:xlink="http://www.w3.org/1999/xlink" viewBox="0 0 380.54 380.54"><defs><style>.cls-1{fill:#f59dbd;}.cls-2{fill:#eba384;}.cls-3{fill:#f5ae95;}.cls-4{fill:#cb6e50;}.cls-5{fill:#752f2d;}.cls-6{fill:#e63968;}.cls-7{fill:url(#linear-gradient);}.cls-8{fill:#c71f49;}.cls-9{fill:#010101;}.cls-10{fill:#fff;}.cls-11{fill:#622a10;}.cls-12{fill:#301217;}</style><linearGradient id="linear-gradient" x1="175.22" y1="275.41" x2="175.22" y2="281.3" gradientUnits="userSpaceOnUse"><stop offset="0" stop-color="#ea5c7a"/><stop offset="1" stop-color="#f399b2"/></linearGradient></defs><circle class="cls-1" cx="190.27" cy="190.27" r="190.27"/><path class="cls-2" d="M257.94,339.19l-.69-1.1-.28-.44q-.32-.51-.63-1l-.32-.52-.65-1.08-.3-.52c-.32-.54-.64-1.09-1-1.66-6.19-10.74-7.76-34.48-8.1-50q0-.74,0-1.44v-.25c0-.47,0-.94,0-1.4v0c0-.41,0-.82,0-1.21v-1.3c0-.12,0-.24,0-.36v-2.58c0-.29,0-.57,0-.84v-.89c0-.16,0-.31,0-.46v-.38c0-.22,0-.43,0-.64v-.36c0-.12,0-.24,0-.36v-.22c0-.25,0-.47,0-.67V269c0-.05,0-.11,0-.16v-.18c0-.1,0-.19,0-.27v-.19a.15.15,0,0,0,0-.06v0l-59.67,31.35c.12,1.16.22,2.3.32,3.42,0,.38.05.75.08,1.12.05.74.1,1.48.14,2.2,0,.43.05.85.07,1.27,0,.65.06,1.3.08,1.93,0,.44,0,.87,0,1.3l0,1.81v1.26c0,.59,0,1.18,0,1.76,0,.4,0,.79,0,1.18,0,.61,0,1.22-.07,1.81,0,.34,0,.69-.05,1,0,.77-.09,1.53-.16,2.28,0,.15,0,.3,0,.44-.07.88-.16,1.74-.26,2.58,0,.3-.07.59-.11.89-.07.55-.14,1.09-.22,1.63l-.15,1-.24,1.42c-.07.34-.13.67-.19,1l-.27,1.33c-.08.33-.15.65-.22,1s-.21.86-.31,1.28l-.24.91c-.11.44-.24.87-.36,1.3l-.24.8c-.16.52-.33,1-.5,1.53,0,.16-.1.32-.16.48-4.36,12.48-12,19.74-20.19,24.29-4.91,2.7-11.57,7-18.26,11.51A190.7,190.7,0,0,0,279,358.39C269.23,353.56,264.2,349,257.94,339.19Z" transform="translate(0.42 0)"/><path class="cls-3" d="M292.3,173.58c-1-.71-4.79-1.77-5.83-2.05C289,151.81,295.29,115.11,268,86c-30.68-32.73-72.61-32.73-95.63-27.1s-50.11,28.64-55.74,53.7-2.09,32.62-4.62,40.71-7.08,19.21-1,31.34a119.89,119.89,0,0,1,3,25.79c0,13.65,8.09,32.87,23.26,52.08s24.35,39.29,42,41c26.8,2.53,64.89-21.62,77.87-49.51a147.1,147.1,0,0,0,8.6-25.39c4.25.78,7.67-2,10.63-6.48,3.8-5.69,8.72-9.48,12.52-14.79C294.58,199.37,300.64,179.65,292.3,173.58Z" transform="translate(0.42 0)"/><path class="cls-3" d="M123.82,111.37a43.25,43.25,0,0,1,13-19.25c11.67-9.75,28.48-14.26,43.52-13.28,7.93.51,17.49,2.5,24.58,6.26,13,6.9,20.28,14.29,22.57,29.17,1,6.27.94,12.67,2.1,18.91.21,1.14,5.25,15.72,7.4,13.86,0,0-8.73,7.58-9.86,7.58s-113,4.17-113,4.17l-2.66-1.52s7.59-10.61,8-19C119.8,129.2,120.83,119.85,123.82,111.37Z" transform="translate(0.42 0)"/><path class="cls-3" d="M154.25,236s.25,2.78,4.29,3.28a7.37,7.37,0,0,0,8.35-4.8c1.51-3.54,4.55-22.25,3.54-42.73l-15.17.26s2.78,21.23,2.27,28.06S154.25,236,154.25,236Z" transform="translate(0.42 0)"/><path class="cls-3" d="M155.17,232a8,8,0,0,1,4.05-1.52c2,0,9.44,2.86,9.44,2.86l1-2s-7.75-3-10.45-3a5.28,5.28,0,0,0-2.87,1Z" transform="translate(0.42 0)"/><path class="cls-3" d="M202.43,207.9a8.91,8.91,0,1,1-8.91-8.91A8.91,8.91,0,0,1,202.43,207.9Z" transform="translate(0.42 0)"/><path class="cls-3" d="M156.14,207.34c.39,4.59-2.31,8.56-6,8.87s-7-3.16-7.4-7.76,2.31-8.56,6-8.87S155.76,202.75,156.14,207.34Z" transform="translate(0.42 0)"/><path class="cls-3" d="M260.66,239.19c-9.2,16-26.13,23.63-37.79,16.94S209.2,231,218.41,215,244.53,191.32,256.2,198,269.87,223.14,260.66,239.19Z" transform="translate(0.42 0)"/><path class="cls-3" d="M142.88,223.43c-5.27-15.73-18.44-26.7-29.49-24.61a110.16,110.16,0,0,1,.66,11.64c0,12.12,6.38,28.62,18.42,45.62C143.5,253.79,148.16,239.2,142.88,223.43Z" transform="translate(0.42 0)"/><path class="cls-3" d="M115.21,185.71s-3.79-26.92,5.69-31.09,21.24.76,21.24.76l6.44,8,.76,2.66s3.79,16.68,2.66,43.6l-11-8.72s-9.1-9.1-11-9.48-9.48-.38-9.48-.38Z" transform="translate(0.42 0)"/><path class="cls-3" d="M190.29,207.71s-7.58-39.44,1.52-51.57,23.89-11,23.89-11l15.93,1.52s14.79,4.17,17.82,7.58c0,0,0,22-9.86,42.09Z" transform="translate(0.42 0)"/><path class="cls-3" d="M153.32,238.61c-.19.87,2.79,2.67,3.36,2.92,4,1.72,8.53-.42,12.31-1.74,3.37-1.18,8.77,1.85,9.27,3.71,0,0,.17,2.19-1.18,2.52s-21.4.17-21.4.17l-2.19-1.35-.85-3.2Z" transform="translate(0.42 0)"/><path class="cls-3" d="M153,241.05s1.27,3.54,6.58,3.29,8.59-2.78,10.36-3.29,8.09,1.27,7.84,3.29l-.51,2s-3,13.4-9.1,13.65-5.05-8.59-9.35-10.61C158.8,249.4,153,245.86,153,241.05Z" transform="translate(0.42 0)"/><path class="cls-3" d="M172.45,287.32s8.09.5,10.36,0c0,0-1.26,4.3-3.79,4S172.45,287.32,172.45,287.32Z" transform="translate(0.42 0)"/><path class="cls-3" d="M149.44,263.81l-1.51,3.54S144.64,263.81,149.44,263.81Z" transform="translate(0.42 0)"/><path class="cls-3" d="M220,262.29l2.78,4.3S226,262.79,220,262.29Z" transform="translate(0.42 0)"/><path class="cls-4" d="M210.77,165.62s11-4.93,25.79,2.65C236.56,168.27,222.53,155.38,210.77,165.62Z" transform="translate(0.42 0)"/><path class="cls-4" d="M141.49,169.32s-8.42-4-18.84,3.77C122.65,173.09,132.17,160.41,141.49,169.32Z" transform="translate(0.42 0)"/><path class="cls-3" d="M288.62,176.33l-2.11,2c-2.26,1.36-7.12,8.48-7.12,8.48l-2.82,4.39-.09-.09c-1.51,1.39-4.55,8.47-4.55,8.47l.16.5-.16.13a7,7,0,0,1,.4.6l.57,1.79a7.92,7.92,0,0,1-1.47,4.94s4.29-1.51,5.18-4.55a5.31,5.31,0,0,0-1.5-5,28.42,28.42,0,0,1,1.25-2.67,2.59,2.59,0,0,1,3-1.39l-1.07-1,.44.14c-.64-1.27,2.4-4.3,2.4-4.3l-.07-.08c1.15.9,2.47,1.72,2.47,1.72s-1.26-3.41,0-5.43c.93-1.49,3.42-3,4.68-3.66a27.85,27.85,0,0,1,4,5.43S290.39,178.23,288.62,176.33Zm-9.1,25.92.75-4.3S278.5,199,279.52,202.25Zm2.9,2.78c2.66-5.06,1.39-8.47,1.39-8.47A48.2,48.2,0,0,0,282.42,205Zm7.34-15.3c1.26,3.41-1.27,13.15-1.27,13.15,4.05-7,3.41-12.39,3.41-12.39Z" transform="translate(0.42 0)"/><path class="cls-3" d="M157.7,246.7s4.89,3,7.08,2.86a5,5,0,0,0,4.05-3.37S162.08,247.88,157.7,246.7Z" transform="translate(0.42 0)"/><path class="cls-3" d="M296.29,180.24a11.71,11.71,0,0,0-3.21-6.43,9.56,9.56,0,0,0-10-1.81,12.69,12.69,0,0,0-4.49,2.94,8.69,8.69,0,0,0-1.3,2.14c-.49.86-.91,1.75-1.36,2.64-1.94,3.87-3.69,7.89-6.43,11.29,0,0,0,0,0,0a44.2,44.2,0,0,0,5-8.07c.71-1.38,1.42-2.77,2.22-4.1a11.79,11.79,0,0,1,2.93-3.74c2.85-2,5.72-3.29,9.28-2.62a8.42,8.42,0,0,1,6,4.71c2.16,4.54,1.31,10.29.19,15a50.44,50.44,0,0,1-5.73,14.05c-3.25,5.53-8.55,9.56-12.36,14.68-1.85,2.49-3.5,5.07-6.27,6.62s-6,.89-8.7-.67a.2.2,0,0,0-.2.34,9.09,9.09,0,0,0,7.35,1.43c2.55-.69,4.56-2.78,6.12-4.79,1-1.25,1.78-2.6,2.72-3.86,1.21-1.61,2.56-3.1,3.92-4.58,2.3-2.5,4.75-4.94,6.8-7.66a41.28,41.28,0,0,0,6.11-12.95C296.27,190.17,297.11,185.06,296.29,180.24ZM269.16,213h0c.3-2.75,2-4.75,3.31-7.05a6,6,0,0,0,.15-6.1c-.29-.58-1.18-.07-.88.51a6.11,6.11,0,0,1-.34,6.8A12.21,12.21,0,0,0,269.16,213ZM288.86,177c.45-.36-.15-1.14-.61-.79a32.28,32.28,0,0,0-4.35,4.32,58.25,58.25,0,0,0-4.35,5.54,74.76,74.76,0,0,0-7.47,12.87c-.08.17.16.32.25.15,1.23-2.34,2.46-4.65,3.78-6.91a.27.27,0,0,0,.26.28c3.26.22,4.44,3.75,3.77,6.55a0,0,0,1,0,.05,0c1-2.76-.37-7-3.82-7.1l-.12,0c1-1.63,2-3.24,3.05-4.82a4.49,4.49,0,0,0,2.28,2.59,11.25,11.25,0,0,1,1.89,1.21c.71.63.65,1.86.61,2.72-.21,3.87-1.91,7.52-1.64,11.44h0c-.24-4,1.6-7.79,1.87-11.76.1-1.37.14-2.67-1-3.58s-3.07-1.5-3.73-3v0A55.44,55.44,0,0,1,284,181.2,41.94,41.94,0,0,1,288.86,177Z" transform="translate(0.42 0)"/><path class="cls-4" d="M156.92,217.57a22.65,22.65,0,0,1-1,12.17c-1.07,3.21-2.9,6.19-3.62,9.51a8.14,8.14,0,0,0,2,7.51,12.93,12.93,0,0,0,5.13,3.21,23.68,23.68,0,0,0,3.81.89,11.11,11.11,0,0,0,3.67.29.22.22,0,0,0,0-.43c-1.16-.2-2.34-.23-3.5-.47a16.59,16.59,0,0,1-3.88-1.59,14.29,14.29,0,0,1-4.74-3.47c-1.86-2.22-1.44-5.14-.84-7.74.73-3.17,2-6.18,2.8-9.34a21.27,21.27,0,0,0,.25-10.54Z" transform="translate(0.42 0)"/><path class="cls-4" d="M171.07,247.87c-.63-1.54.54-1.89,1.84-2a9.86,9.86,0,0,1,3.71.2c.12,0,.17-.15,0-.19-1.57-.51-3.23-1.14-4.88-.66-1.37.4-1.52,1.59-.93,2.71,0,.12.26,0,.21-.09Z" transform="translate(0.42 0)"/><path class="cls-4" d="M176.29,247.57c2-1.37,2.6-4.2,2.37-6.49a.12.12,0,0,0-.24,0c-.29,2.51-.37,4.47-2.19,6.41a.05.05,0,0,0,.06.08Z" transform="translate(0.42 0)"/><path class="cls-5" d="M171.06,246.8s-.19-1.26,3.54-.88C174.6,245.92,172.7,247.37,171.06,246.8Z" transform="translate(0.42 0)"/><path class="cls-3" d="M152.31,265.74s5.11-4.39,8.82-5.07c2.36-.43,4.23,1.64,6.48,1.89,2.64.28,4.9-1.27,7.52-1.39,3.87-.16,5.9.38,13.65,1.9s26.39,1.66,28.08,1.49c0,0-10.79,6.07-13.82,6.07s-23.6,2-24.44,2.19-10.62-.5-12.47-.5Z" transform="translate(0.42 0)"/><path class="cls-6" d="M151.23,266.3a55.12,55.12,0,0,0,4.21,6.32c2.21,2.79,2.06,7.39,4,9.36,2.21,2.27,15.05,4.8,22.57,1.26s30.17-20.14,30.17-20.14-2.62.79-5.45,1.43c-2,.46-4.09,1.27-6.57,1.27-6,0-31,.5-31.65.76s-12-.26-12.61-.26Z" transform="translate(0.42 0)"/><path class="cls-7" d="M157.8,273.89s-.3,5.9,5,7.41,11.95.68,11.95.68l6.5-.84,2.36-.68s7.37-3.71,8.85-6.91-6.94-2.86-6.94-2.86-5.13-.38-5.45,0-20.07.5-20.07.5Z" transform="translate(0.42 0)"/><path class="cls-6" d="M157.8,273.89s-.3,5.9,5,7.41,11.95.68,11.95.68l6.5-.84,2.36-.68s7.37-3.71,8.85-6.91-6.94-2.86-6.94-2.86-5.13-.38-5.45,0-20.07.5-20.07.5Z" transform="translate(0.42 0)"/><path class="cls-6" d="M206.71,264.53c-2,.46-4.09,1.27-6.57,1.27-6,0-31,.5-31.65.76s-12-.26-12.61-.26h-4.65a55.12,55.12,0,0,0,4.21,6.32,9.45,9.45,0,0,1,1.4,2.67l.15.12s.22-2,8.18-2,27.89-.5,28.33,2.53a2.74,2.74,0,0,0,.05.28c8.84-5.92,18.61-13.09,18.61-13.09S209.54,263.89,206.71,264.53ZM159.42,279.2a10.17,10.17,0,0,0,8,4c5.53.26,13.94-1.26,16.59-2.78C184,280.46,165.4,282.48,159.42,279.2Z" transform="translate(0.42 0)"/><path class="cls-6" d="M152.67,267.32l3,3.79a28,28,0,0,1,4.31.12c2.33.26,1.55,1.77,6.86,1.77s5.65-.76,8.41-1.13,21.58-2.41,22.58-1.77l1,.63s7.19-3.79,9.19-5.82c0,0-8.52,2.53-10.07,3.16s-21.47,2.79-25,2.53l-3.32.63s-6.31,1.9-8.19-2C161.41,269.21,159.42,270.1,152.67,267.32Z" transform="translate(0.42 0)"/><path class="cls-8" d="M212.22,263l-.05,0-4.95.73a79.66,79.66,0,0,1-17.92.75c-6.64-.5-14.39-2.78-18.15-2a13.51,13.51,0,0,0-6,2.78s-4-3.54-5.75-3.54-4.65,1.52-6.64,2.78c-1.84,1.18-4.52-.45-4.9-.7a.1.1,0,0,1,0,0s0,0,0,0a17.63,17.63,0,0,0,1.63,1.39l.11.09.72.52a21.31,21.31,0,0,0,6.85,3.1c1.06.32,2.13.62,3.22.91.08,0,.8,0,.85.13a3.39,3.39,0,0,0,.76,1,5.26,5.26,0,0,0,2.47,1.13,7.7,7.7,0,0,0,2.87.05,7.56,7.56,0,0,0,2.82-.62.12.12,0,0,0,0-.13l2.87-.73s0,0,0,0a103.47,103.47,0,0,0,19.32-1.44A83.47,83.47,0,0,0,202.58,267c1.6-.47,3.19-1,4.76-1.6s3.25-1.54,4.88-2.31C212.23,263.05,212.23,263,212.22,263Z" transform="translate(0.42 0)"/><path class="cls-9" d="M187,163.58a108.61,108.61,0,0,0,13.48-7.94A36,36,0,0,1,214.76,149c7.27-1.48,18.43-2.19,34.39,4.86,1,0,2.1-.05,3.16,0A108.55,108.55,0,0,0,230,144.54c-13.17-3.78-25.17-1.88-34.31,3C186.27,152.66,182.86,160.72,187,163.58Z" transform="translate(0.42 0)"/><path class="cls-9" d="M192.23,160.45c-2.15,1.24-3.89,2.17-4.7,2.58a3.92,3.92,0,0,1-1.13-3.51c.35-3.35,4-8,9.85-11.18a39.89,39.89,0,0,1,7-2.94,44.75,44.75,0,0,1,26.58.27,99.47,99.47,0,0,1,19.79,8.55h-.53c-12-6-22.86-7-31-6.05a34.79,34.79,0,0,0-16.91,6.49c-.37.25-.72.51-1.08.76-2.38,1.72-5,3.37-7.89,5Z" transform="translate(0.42 0)"/><path class="cls-9" d="M149.67,166.56a25,25,0,0,1-8.22-5.43c-2.1-2-4.18-4.15-8.3-5.4-4-1.1-10.24-1.36-18.58,4.36-.67-.2-1.35-.4-2-.57a66.54,66.54,0,0,1,12-8.23,18.3,18.3,0,0,1,18.55,1C148.79,155.82,151.61,162.43,149.67,166.56Z" transform="translate(0.42 0)"/><path class="cls-9" d="M146.32,164.38a22.37,22.37,0,0,0,2.88,1.5,7.68,7.68,0,0,0,.21-3.94c-.56-3.17-3.1-6.84-6.64-9a20.09,20.09,0,0,0-4-2,16.73,16.73,0,0,0-14.08,1.25,58.72,58.72,0,0,0-10.39,7.62l.35.09c6.28-4.77,12.23-5.76,16.64-5.07a17.21,17.21,0,0,1,9.61,5.19l.65.64a26.6,26.6,0,0,0,4.79,3.71Z" transform="translate(0.42 0)"/><path class="cls-9" d="M214.94,207.71l7.21,3.79s10.24-5.31,17.06-8.34l.76-9.1-24.65,12.13Z" transform="translate(0.42 0)"/><path class="cls-9" d="M238.69,181.86s9.38-5.58,12.23-13.26c0,0-.72,9.92-12.1,17.67Z" transform="translate(0.42 0)"/><path class="cls-9" d="M241.47,184.17a17.73,17.73,0,0,0,5.05-6.83s-10.11-8.59-28.06-6.82-24,22.24-27.3,35.14l17.44-6.07Z" transform="translate(0.42 0)"/><path class="cls-9" d="M193,203.69c1.69-6.32,3.92-13.26,7.45-19.13,4.73-7.86,10.67-12.05,18.15-12.78a46.83,46.83,0,0,1,4.7-.24c11.81,0,19.4,4.61,21.69,6.22a17.21,17.21,0,0,1-4.18,5.33l-32.67,15.33L193,203.69Z" transform="translate(0.42 0)"/><path class="cls-10" d="M216.84,176.61c-14.41,1.9-22.75,19-26.55,31.48a42.34,42.34,0,0,1,7.84-1.13,83.49,83.49,0,0,0,17.27,2.22l.3,0c5.31.76,4.55,0,4.55,0,5.69-1.51,11.38-3.41,15.55-7.58a25.25,25.25,0,0,0,5.31-15.55v-2.65A33.55,33.55,0,0,0,216.84,176.61Z" transform="translate(0.42 0)"/><path class="cls-11" d="M236.89,190.45A20.43,20.43,0,0,0,233.44,179a32.46,32.46,0,0,0-16.6-2.39c-6.52.86-11.79,4.82-16,10a20.55,20.55,0,0,0-.35,3.79c0,8.74,5.35,16.15,12.73,18.64l2.14.09.3,0c5.31.76,4.55,0,4.55,0a49.42,49.42,0,0,0,9.76-3.47A20.06,20.06,0,0,0,236.89,190.45Z" transform="translate(0.42 0)"/><path class="cls-11" d="M218.71,207.42c8.73,0,15.8-7.6,15.8-17a17.49,17.49,0,0,0-5.64-13,31.77,31.77,0,0,0-12-.83,22.28,22.28,0,0,0-12.1,5.91,18,18,0,0,0-1.82,7.93C202.92,199.82,210,207.42,218.71,207.42Z" transform="translate(0.42 0)"/><path class="cls-9" d="M229.88,190.45c0,6.63-5,12-11.17,12s-11.17-5.37-11.17-12,5-12,11.17-12S229.88,183.82,229.88,190.45Z" transform="translate(0.42 0)"/><path class="cls-9" d="M228.42,190.45c0,5.76-4.35,10.43-9.71,10.43s-9.7-4.67-9.7-10.43,4.34-10.43,9.7-10.43S228.42,184.69,228.42,190.45Z" transform="translate(0.42 0)"/><path class="cls-9" d="M228.42,190.45c0,5.76-4.35,10.43-9.71,10.43s-9.7-4.67-9.7-10.43,4.34-10.43,9.7-10.43S228.42,184.69,228.42,190.45Z" transform="translate(0.42 0)"/><path class="cls-10" d="M214.5,180.93a4.23,4.23,0,1,0,4.57-4.51c-.42,0-.85.05-1.27.09A4.47,4.47,0,0,0,214.5,180.93Z" transform="translate(0.42 0)"/><path class="cls-9" d="M241.18,183.36c-9-8.2-24.09-10.68-34.26-3.33a36.46,36.46,0,0,0-10.24,12.33,74.81,74.81,0,0,0-6.17,14.86l-.24.86a0,0,0,1,0,0,0c3.27-9.81,8-20.07,16.41-26.51,4.63-3.53,10-4.77,15.77-4.47,6.69.35,12.92,2.95,18.55,6.42A.11.11,0,0,0,241.18,183.36Zm-5.41,18.26a30.27,30.27,0,0,1-7.26,4.66c-2.67,1.21-5.5,2-8.26,2.92,0,0,0,.05,0,0,5.52-1.06,11.72-3.29,15.56-7.58C235.85,201.63,235.81,201.58,235.77,201.62Z" transform="translate(0.42 0)"/><path class="cls-9" d="M127,202v3.79s5.69,3,11.37,6.83l5.69-4.17Z" transform="translate(0.42 0)"/><path class="cls-9" d="M124.92,194s-9.45-4.27-13.5-12.11c0,0,9.45,8.82,14.76,9.83Z" transform="translate(0.42 0)"/><path class="cls-9" d="M124.41,193s-2.52-.51-5.56-3.79c0,0,.14-11.16,9.86-14.92,7.84-3,14.14,3.11,17.43,9.69a41,41,0,0,1,3.32,11.86c.3,1.78.33,10.21,1.75,11.32,0,0-9.1-7.08-10.11-7.34S124.41,193,124.41,193Z" transform="translate(0.42 0)"/><path class="cls-9" d="M148.86,203.77c-6.43-4.9-7.18-5.08-7.45-5.15-.85-.24-10.57-4.28-16.51-6.77l-.1,0-.12,0a10.45,10.45,0,0,1-4.54-3c.16-2.12,1.25-10.25,9-13.26a10.09,10.09,0,0,1,3.63-.71c6.78,0,11.06,7.49,12.21,9.79,1.79,3.57,2.54,7.47,3.21,11.49.06.42.13,1.43.2,2.49.13,2.13.27,3.85.44,5.22Z" transform="translate(0.42 0)"/><path class="cls-10" d="M123.94,193.3l.37,1.51a28.93,28.93,0,0,0,4.55,9.11c2.51,3.24,4.43,4.41,8,6.06,4.66,2.18,10.95-3.25,14.79-.38-1.14-8-1.52-16.3-6.45-23.89C138.84,176,125.45,175.85,123.94,193.3Z" transform="translate(0.42 0)"/><path class="cls-11" d="M133.59,179.18c-2.38,3.33-3.75,8.31-3.45,13.79.53,9.63,6,17.16,12.24,16.82,3.51-.2,6.5-2.84,8.36-6.82-.82-5.86-2-11.76-5.57-17.26C142.21,181.16,137.7,178.71,133.59,179.18Z" transform="translate(0.42 0)"/><path class="cls-11" d="M131.62,192.89c.46,8.37,5.22,14.91,10.64,14.61,3.55-.19,6.5-3.29,8-7.76a36.31,36.31,0,0,0-5.07-14,13.86,13.86,0,0,0-9.1-6.47C133.12,182,131.3,187.1,131.62,192.89Z" transform="translate(0.42 0)"/><path class="cls-9" d="M140.83,181.64c-3.83.21-6.67,5.18-6.34,11.09s3.69,10.54,7.52,10.33,6.57-5,6.36-10.79a30.78,30.78,0,0,0-3.2-6.56,16.56,16.56,0,0,0-3.71-4.06A4.42,4.42,0,0,0,140.83,181.64Z" transform="translate(0.42 0)"/><path class="cls-9" d="M147.45,192c.28,5.14-2.19,9.46-5.51,9.64s-6.26-3.83-6.54-9,2.18-9.45,5.51-9.64S147.16,186.88,147.45,192Z" transform="translate(0.42 0)"/><path class="cls-9" d="M147.45,192c.28,5.14-2.19,9.46-5.51,9.64s-6.26-3.83-6.54-9,2.18-9.45,5.51-9.64S147.16,186.88,147.45,192Z" transform="translate(0.42 0)"/><path class="cls-10" d="M138.34,184c.12,2.24,1.39,4,2.84,3.9s2.52-2,2.39-4.18a.41.41,0,0,0,0-.11,14.38,14.38,0,0,0-4.07-3.22A4.73,4.73,0,0,0,138.34,184Z" transform="translate(0.42 0)"/><path class="cls-9" d="M150.37,199.56a44.26,44.26,0,0,0-2.83-10c-1.75-4.08-4.54-8.44-8.85-10.17a9.58,9.58,0,0,0-9.58,1.05c-3.69,2.92-4.88,8-5.17,12.44l0,.4s0,0,0,0c.54-4.42,1.93-9.34,5.74-12.07a9,9,0,0,1,9.17-.54c4.21,1.94,6.82,5.79,8.63,9.93a41.27,41.27,0,0,1,2.64,9.44c.54,3.17.66,6.44,1.38,9.57a.1.1,0,0,0,.2,0A87.37,87.37,0,0,0,150.37,199.56Zm-13.5,10.34c-1.38-.82-2.84-1.53-4.18-2.44a19.78,19.78,0,0,1-3.79-3.58s-.11,0-.07.06a16.21,16.21,0,0,0,8,6.13C136.9,210.11,137,210,136.87,209.9Z" transform="translate(0.42 0)"/><path class="cls-12" d="M263.25,298.76c1-8.2,4.45-15.62,9.21-22.27,8.55-11.93,20.46-20.9,29.64-32.29,10.43-12.93,15.79-28.82,18.31-45.09.21-1.35.4-2.71.58-4.08.06-.46.12-.92.17-1.37.12-.91.23-1.81.33-2.72.07-.6.13-1.21.19-1.82.08-.76.16-1.51.23-2.27s.11-1.39.17-2.08.11-1.34.15-2,.1-1.5.14-2.26.08-1.23.1-1.84c0-.79.07-1.57.1-2.36l.06-1.75c0-.79,0-1.59,0-2.39l0-1.72c0-.79,0-1.58,0-2.38,0-.4,0-.8,0-1.2s0-.89,0-1.33c-.57-27.78-3.71-55.83-16.13-81.11C278.37,27.05,197.67,15.83,147.48,50a154.08,154.08,0,0,0-34.13,31.28,195.55,195.55,0,0,0-16.77,25.2C83,130.61,82,158.18,72.94,183.82c-11.63,32.83-42.2,53.12-56.74,84.33A190.45,190.45,0,0,0,164.78,378.9c25-17.47,24.07-47.36,21.94-75.35a46.2,46.2,0,0,1-7.45-.05c-17.61-1.67-26.79-21.74-42-41a136.28,136.28,0,0,1-15.73-24.69c0-.31,0-.61,0-.92,0-.13,0-.27,0-.4s0-.32,0-.49c0-.52,0-1-.06-1.58,0-.18,0-.35,0-.52s0-.23,0-.35l0-1.64v-.83c0-.56,0-1.13,0-1.7,0-.21,0-.41,0-.62v-.17c0-.59,0-1.18,0-1.77l0-.68.06-1.66c0-.88.1-1.76.16-2.65,4-57.14,65.23-101.64,71.3-132.48,0,0,10.11,26.29,29.83,41.46s32.87,19.72,38.43,36.91c.16.49.3,1,.45,1.43.05.16.09.31.14.46.1.31.19.62.28.92s.09.33.14.49.17.59.25.89l.12.4c.11.4.21.8.32,1.18l.09.35c.07.28.14.55.2.81s.08.3.11.45.11.45.16.66.07.3.11.44l.15.68c0,.11.05.23.08.34.07.31.13.62.19.91s.06.26.08.4.07.34.1.51.06.28.08.41l.09.47c0,.12.05.25.07.37l.09.54c0,.14.06.29.08.43l.09.52c0,.11,0,.22,0,.32l.06.38c0,.11,0,.23.05.33l.06.38c0,.15.05.31.08.45s.05.37.08.54,0,.2,0,.3,0,.18,0,.26a2.34,2.34,0,0,1,0,.26c0,.08,0,.16,0,.24s0,.16,0,.24,0,.15,0,.23.05.25.08.37,0,.13.05.19,0,.13,0,.19a1.8,1.8,0,0,1,.05.19c0,.05,0,.11.05.16a1.21,1.21,0,0,1,.05.18l.06.15.1.25a.61.61,0,0,0,.07.14c0,.05,0,.09.07.14l.06.11a.83.83,0,0,1,.08.12l.08.1s.05.07.09.12a3,3,0,0,0,2,.84c4.55.51,4.55-8.6,12.13-13.15,6-3.59,8.82-3.4,12.73-1.92a11.31,11.31,0,0,1,2.91,5.42c.07.29.13.59.19.89.82,4.82,0,9.93-1.41,14.57a41.28,41.28,0,0,1-6.11,12.95c-2,2.72-4.5,5.16-6.8,7.66-1.36,1.48-2.71,3-3.92,4.58-.94,1.26-1.75,2.61-2.72,3.86-1.56,2-3.57,4.1-6.12,4.79a7.8,7.8,0,0,1-3.52.14,146.94,146.94,0,0,1-8.55,25.2A73.56,73.56,0,0,1,246,270.87c0,2.58-.06,6.8,0,11.91.34,15.55,1.91,39.3,8.1,50,.16.29.33.57.49.85,0,.08.09.16.14.24l.34.59.16.26c.11.2.22.39.34.58l.13.22c.13.21.25.42.37.63l.09.14c.65,1.08,1.28,2.1,1.9,3.07,6.2,9.68,11.23,14.19,20.93,19a189.06,189.06,0,0,0,16.52-9.87,73.57,73.57,0,0,0-17.08-11.37C263.79,330.35,261.56,313.13,263.25,298.76Z" transform="translate(0.42 0)"/></svg>