<svg xmlns="http://www.w3.org/2000/svg" viewBox="0 0 500 500"><defs><style>.cls-1{isolation:isolate;}.cls-2{fill:#fff;}.cls-3{font-size:164.01px;font-family:Oswald-Bold, Oswald;font-weight:700;}.cls-3,.cls-4,.cls-6{fill:#70aaaa;}.cls-4{fill-rule:evenodd;}.cls-5{mix-blend-mode:multiply;}.cls-7{fill:#ffd283;}</style></defs><g class="cls-1"><g id="Layer_1" data-name="Layer 1"><rect class="cls-2" width="500" height="500"/><text class="cls-3" transform="translate(113.41 354.82)">Shlf</text><path class="cls-4" d="M80.53,233,80,236.55,67.3,234.7l.51-3.53L80.53,233ZM432.7,284.38l-.51,3.52-12.72-1.85.51-3.53,12.72,1.86ZM92.36,191.92,91,195.2l-11.86-4.94L80.5,187l11.86,4.95Zm328.51,136.9-1.37,3.29-11.86-4.95,1.37-3.28,11.86,4.94ZM116.2,152.21,114,155l-10.11-7.94,2.2-2.8,10.11,7.94ZM396.11,372l-2.2,2.8-10.11-7.94,2.2-2.8L396.11,372ZM148,121.63l-2.84,2.15-7.75-10.26,2.84-2.14L148,121.63ZM362.59,405.56l-2.84,2.14L352,397.45l2.84-2.15,7.75,10.26ZM186.73,100.1l-3.3,1.36-4.86-11.9,3.29-1.35,4.87,11.89Zm134.7,329.42-3.29,1.35L313.27,419l3.3-1.36,4.86,11.9ZM226.86,89.58l-3.53.52-1.86-12.73,3.52-.52,1.87,12.73ZM278.53,441.7l-3.52.52-1.87-12.72,3.53-.52,1.86,12.72Zm-52.57.65-3.53-.5,1.8-12.73,3.52.5L226,442.35Zm-44.29-11.56-3.3-1.35,4.88-11.89,3.29,1.35-4.87,11.89Zm-41.94-23.47-2.83-2.16,7.79-10.23,2.83,2.16-7.79,10.23ZM408.27,193.41l-1.41-3.27,11.81-5.08,1.41,3.28-11.81,5.07ZM81.33,334l-1.41-3.28,11.81-5.07,1.41,3.27L81.33,334Zm23.58,39.3-2.17-2.83,10.19-7.83,2.17,2.82-10.19,7.84ZM420.05,237l-.5-3.53,12.72-1.81.5,3.52L420.05,237ZM67.73,287.38l-.5-3.53L80,282l.5,3.52-12.72,1.82Zm53.16,103.79-2.52-2.52,9.09-9.09,2.51,2.52-9.08,9.09Zm295.25-174.3-.92-3.45,12.41-3.32.92,3.44-12.41,3.33ZM72.37,309l-.92-3.44,12.41-3.33.93,3.44L72.37,309Zm-.92-95.44.92-3.44,12.42,3.32-.93,3.45-12.41-3.33Zm46.92-83.11,2.52-2.52L130,137l-2.51,2.51-9.09-9.08ZM200.56,81.9,204,81l3.33,12.41-3.44.92L200.56,81.9ZM100.87,249.47V269.6H65.62V249.47ZM89.25,349.85l2.16,3.75L109.72,343l-2.16-3.75L89.25,349.85Zm20.47-173.8-2.16,3.75L89.25,169.23l2.16-3.75,18.31,10.57Zm60.53-59-3.74,2.16L155.94,101l3.75-2.17,10.56,18.31Zm69.68-41.93h20.14V110.4H239.93V75.16ZM204,438.09l-3.44-.92,3.33-12.42,3.44.93L204,438.09ZM415.22,305.65l.92-3.44,12.41,3.33-.92,3.44-12.41-3.33ZM370,382.08l9.08,9.09,2.52-2.52-9.09-9.09L370,382.08Zm-77.36,43.6,3.44-.93,3.33,12.42-3.44.92-3.33-12.41ZM434.38,249.47V269.6H399.14V249.47ZM410.75,349.85l-2.16,3.75L390.28,343l2.16-3.75,18.31,10.57ZM155.94,418.13l3.75,2.17L170.25,402l-3.74-2.15-10.57,18.3Zm188.12,0-3.74,2.17L329.75,402l3.74-2.15,10.57,18.3Zm-104.13-9.46h20.14v35.25H239.93V408.67Zm52.55-369.3L262,21.76,231.45,4.14V23.25C109.22,32.7,13,134.88,13,259.54c0,130.9,106.12,237,237,237s237-106.11,237-237H453.73c0,112.52-91.21,203.72-203.73,203.72S46.27,372.06,46.27,259.54C46.27,153.27,127.63,66,231.45,56.66v18L262,57l30.51-17.62Zm165.77,107a235.62,235.62,0,0,1,19.08,46l-32.18,8.62A201.61,201.61,0,0,0,429.41,163l28.84-16.65Zm22.23,57.75a237.3,237.3,0,0,1,6.46,49.36H453.63a203.92,203.92,0,0,0-5.33-40.74Z" transform="translate(0)"/><g class="cls-5"><path class="cls-6" d="M386.51,58.8c2.11-2.21,4.22-4.42,6.53-6.43,2.51-2.2,5.65-3.86,8-6.2A62.64,62.64,0,0,1,408,40.49c4.6-3.38,9.2-6.76,14-9.92a56.31,56.31,0,0,1,7.26-4.52c2.07-.94,2.65.26,1.19,1.92-4.35,5-8.71,9.91-13.26,14.68-4.2,4.41-9,8-13.07,12.62-3.4,3.88-6.48,8.12-10.56,11.29a50.56,50.56,0,0,1-10.06,5.7,3.54,3.54,0,0,1-2.35.49,3,3,0,0,1-1.66-1.53,4.74,4.74,0,0,1,.87-6.17C382.39,63,384.48,60.92,386.51,58.8Z" transform="translate(0)"/><path class="cls-6" d="M420.81,55.33q5.74-1.66,11.32-3.83c.34.76-.48,1.5-1.2,1.93-8.17,4.87-16.21,9.8-24.15,14.94-.86.46-2.17.77-2.63-.09-1.35-2.52,1.19-6,3-7.46,3.49-2.89,8.14-4,12.4-5.13Z" transform="translate(0)"/><path class="cls-6" d="M373.79,99.25a53.5,53.5,0,0,1,23,10,55.07,55.07,0,0,1,15.39,18,84,84,0,0,1,3.73,8,52,52,0,0,1-.11-6,22.75,22.75,0,0,0-.43-7.57,31,31,0,0,0-8.2-14.4c-6.61-6.59-15.79-10.22-25.06-11.28a69.19,69.19,0,0,0-11.51-.36c-3.59.19-7.8.26-11,2a4.74,4.74,0,0,0-1,.69C363.67,98.58,368.8,98.4,373.79,99.25Z" transform="translate(0)"/><path class="cls-6" d="M409,123.08a50.3,50.3,0,0,0-20.09-17.59,54.16,54.16,0,0,0-22.71-5.36c-2.74-.08-5.48-.1-8.19-.28a2.57,2.57,0,0,0,.18.83c1,2.34,4.35,2.49,6.42,3.28,3.68,1.41,7.36,2.82,11,4.3,3.23,1.31,6.76,2.31,9.7,4.13a153.48,153.48,0,0,1,18.87,13.79,51.84,51.84,0,0,1,7.1,7,41.6,41.6,0,0,1,2.63,4c.3.47,1.36,2.41,2,.82a1.58,1.58,0,0,0,.08-.57l-.22-.54A77.29,77.29,0,0,0,409,123.08Z" transform="translate(0)"/><path class="cls-6" d="M346.52,88.39c-.5-9.85-4.92-19.3-8.34-28.58-2.39-6.49-4.56-13.08-7.61-19.29A76,76,0,0,0,324,29.62c-.4-.37-.81-.72-1.24-1.06l0,0a.54.54,0,0,0,.09.51c3.67,6.4,7.3,12.54,9.79,19.5a111.45,111.45,0,0,1,5.33,21.11c.76,5,1.2,22.07,8,23.65C346.06,91.7,346.29,90.05,346.52,88.39Z" transform="translate(0)"/><path class="cls-6" d="M332.36,42.8a46.43,46.43,0,0,0-4.85-9.16C329.28,36.61,330.88,39.66,332.36,42.8Z" transform="translate(0)"/><path class="cls-6" d="M338,55.14c2.93,7.64,8.82,14.53,10.18,22.69a38,38,0,0,1-.33,11.46,38.16,38.16,0,0,1,0,4.14c4.88-.74,7.12-7.5,8-11.59a14.72,14.72,0,0,0-.27-6.73c-.84-3.36-2.49-6.64-3.75-9.73q-3.74-9.21-7.89-18.25c-3.68-8-8.62-15.88-17.55-18.55a7,7,0,0,0-2.42-.37h0C331.34,34.91,334.53,46,338,55.14Z" transform="translate(0)"/><path class="cls-6" d="M340.31,62.54c2.58,6.7,5.42,13.53,6.8,20.53a29,29,0,0,0,0-4.27C346.63,72.79,343.14,67.75,340.31,62.54Z" transform="translate(0)"/><path class="cls-6" d="M414.53,79.91a169.74,169.74,0,0,1,34.8-3.38,1.31,1.31,0,0,0-.65-.79,3.35,3.35,0,0,0-1.51-.3l-19.25-1c-3.89-.19-7.78-.38-11.67-.32-3.52,0-6.9.47-10.37.14-7.06-.66-14.45,1.32-21.05,3.61-4.34,1.5-8.57,3.28-12.82,5-1.27.52-7.16,1.82-7.85,3.87a228.48,228.48,0,0,0,26.13-2.07C398.46,83.54,406.45,81.54,414.53,79.91Z" transform="translate(0)"/><path class="cls-6" d="M365,88.67a5.84,5.84,0,0,0,3.13.83l16.94,1.23c10.45.75,20.79-2.9,30.88-5.45,9.67-2.45,19.33-5,29.13-6.79a176.12,176.12,0,0,0-33.48,3.9C396.08,85.71,380.87,88.1,365,88.67Z" transform="translate(0)"/><path class="cls-6" d="M361.54,64.65c-1.93-7,0-13,2.09-19.75a311.32,311.32,0,0,0,9.05-38.23c-.6,1.67-1,3.41-1.4,5.12-2.38,9.2-8,17.3-10.38,26.5-2,7.7-1.58,15.8-1.16,23.74q.39,7.17.76,14.34a3.58,3.58,0,0,0,.69,2.32,3,3,0,0,0,2.54.63C364.23,74.6,363,69.89,361.54,64.65Z" transform="translate(0)"/><path class="cls-6" d="M361.85,58.92c-.16,4.13,1.36,8,2.46,11.92a25.21,25.21,0,0,1,1,8.17A14.38,14.38,0,0,0,371,75.86c3.3-3.67,2.09-8.67,1.9-13.09-.33-8,2.84-15.59,3.91-23.47,1.14-8.4-.13-16.92-.86-25.37-.17-2-.31-3.94-.33-5.92,0-1,.58-3.47-.31-4.31a.76.76,0,0,0-.57-.25,313.72,313.72,0,0,1-10.25,44.23C363.4,51.33,362,55.05,361.85,58.92Z" transform="translate(0)"/><path class="cls-7" d="M266.53,160.91c.31.31,2.42.13,2.89.17,2.66.17,5.3.4,7.95.67,3.53.37,6.43.17,7.49,4,.63,2.3.91,4.73,1.35,7.07.36,2,.33,5.87,1.91,7.15s4.79.11,6.67,0c2.3-.16,4.62-.24,6.93-.25,3.25,0,7-.27,8.35,3.33,1.63,4.24,1.7,9.72,2.43,14.21q.5,3.14,1,6.28A107.09,107.09,0,0,0,335.19,186l-1.73,0a.82.82,0,0,1-.52-.37c-2.25-4.14-2.74-10-4-14.58-.81-2.86-1.64-5.72-2.51-8.56-.4-1.29-.61-3.38-1.48-4.43,0-.75-.34-1.05-1-.89-.94,0-1.89.07-2.83.13-6.16.31-12.27,1-18.37,1.87-3.11.45-8.37,1.67-10.21-1.71s-1.54-9.67-1.29-13.52c.19-2.86,1.6-6.73-2.91-6.27-2.12.21-4.2,1.16-6.35,1.15-4.38,0-4.26-4.2-4.37-7.65a62.36,62.36,0,0,1,.5-10.13,112.08,112.08,0,0,0-13.75,21.16q.87,7.19,1.73,14.37C266.14,156.9,266.26,160.64,266.53,160.91Z" transform="translate(0)"/><path class="cls-7" d="M303.4,183.68c-5.2-.12-10.29.74-15.46.86-2.19.05-3.11-.53-3.71-2.72-.72-2.6-1-5.41-1.5-8.06-.43-2.33-.61-6.82-2.88-7.76-4.27-1.77-9.89,0-14.29-1.23-3.23-.93-2.71-5.4-3-8.12s-.67-5.55-1-8.32c-.14.33-.3.66-.43,1a31.69,31.69,0,0,0-2.84,10.87A26.08,26.08,0,0,0,260.51,171c4.75,11.49,14.18,20.28,23.33,28.7,4.17,3.84,8.74,7.86,14.37,8.54,4.14.5,8.22-.92,12-2.84L309,198.19C308.37,194.18,308.57,183.81,303.4,183.68Z" transform="translate(0)"/><path class="cls-7" d="M329.06,161.62c1.12,3.71,2.15,7.45,3.15,11.19.61,2.3,1.21,4.61,1.77,6.92.51,2.05,0,2,1.72,2.31a14.9,14.9,0,0,0,3.1.12c4.61-5,9-10.27,13.27-15.51s8.45-10.46,11.53-16.3c-3.77,1.48-7.53,3-11.31,4.42-2.54,1-5.54,2.7-7.82.42s-2.74-6.45-3.41-9.27a60.91,60.91,0,0,1-1.14-6.17c-.36-2.78.3-4.39-3-3.74-3.75.74-14.35,6-15.62-.5-.37-1.9.54-4.56.86-6.44.41-2.32.81-4.65,1.22-7q1-6.07,2.11-12.14c-3.61.25-7.18.73-10.75,1.31-3.81.63-8.16,2.07-12,1.93-2.38-.09-3.29-1.74-3.56-3.93-.32-2.51-.5-5-.8-7.44A112.12,112.12,0,0,0,281,117.63a58.78,58.78,0,0,0-.91,7.26c-.13,2.26-1.13,8.84,1.46,10,1.78.76,5.54-1,7.5-1.18,1.2-.1,2.73-.24,3.79.51,2.79,2,.85,7.79.75,10.36a26.46,26.46,0,0,0,.53,7.95c1.22,4.23,4.58,3.31,8.09,2.83,5.63-.76,11.24-1.5,16.93-1.85,1.54-.1,4.72-.78,6.16-.25s1.69,1.79,2.15,3.18Q328.26,159,329.06,161.62Z" transform="translate(0)"/><path class="cls-7" d="M302.35,109.25c.67.41,3.55-.47,4.34-.6,6.85-1.11,13.64-2.45,20.59-2.72,1.14-.05,2,1.41,1.86,2.44-1.43,8.24-2.54,16.61-4.31,24.78-.57,2.66.6,1.59,3.07,1,1.72-.37,3.4-.89,5.1-1.33,2-.51,5.25-1.75,7.33-.91,1.82.74,2.19,2.59,2.47,4.3.66,4,.92,7.88,2.08,11.82.6,2,.54,4.4,3.19,4,1.84-.25,4-1.55,5.78-2.23q5.77-2.24,11.53-4.52a1.34,1.34,0,0,1,.51-.09,23.22,23.22,0,0,0,1-3c5.43-24.66-22.84-52.84-44.88-50.71-7.48.73-14.47,3.94-20.71,8.18.34,1.8.61,3.61.78,5.44C302.14,105.52,302,109.05,302.35,109.25Z" transform="translate(0)"/></g></g></g></svg>