<svg id="Layer_1" data-name="Layer 1" xmlns="http://www.w3.org/2000/svg" xmlns:xlink="http://www.w3.org/1999/xlink" viewBox="0 0 380.54 380.54"><defs><style>.cls-1{fill:#ffdb59;}.cls-2{fill:#e9b2a7;}.cls-11,.cls-13,.cls-3,.cls-8{fill:#f4c2b5;}.cls-4{fill:#913226;}.cls-5{fill:#7b241f;}.cls-6{fill:#010101;}.cls-7,.cls-9{fill:#743316;}.cls-8,.cls-9{stroke:#b7776c;}.cls-11,.cls-13,.cls-8{stroke-miterlimit:10;}.cls-10{fill:#72423a;}.cls-11{stroke:#2c130f;}.cls-12{fill:#438bca;}.cls-13{stroke:#3a2421;}.cls-14{fill:url(#linear-gradient);}.cls-15{fill:url(#linear-gradient-2);}.cls-16{fill:url(#linear-gradient-3);}.cls-17{fill:url(#linear-gradient-4);}.cls-18{fill:url(#linear-gradient-5);}.cls-19{fill:url(#linear-gradient-6);}.cls-20{fill:url(#linear-gradient-7);}.cls-21{fill:url(#linear-gradient-8);}.cls-22{fill:url(#linear-gradient-9);}.cls-23{fill:#a05e3a;}</style><linearGradient id="linear-gradient" x1="217.78" y1="120.57" x2="217.78" y2="23.42" gradientUnits="userSpaceOnUse"><stop offset="0" stop-color="#010101"/><stop offset="1" stop-color="#375a70"/></linearGradient><linearGradient id="linear-gradient-2" x1="172.73" y1="84.2" x2="168.28" y2="37.23" gradientUnits="userSpaceOnUse"><stop offset="0" stop-color="#0e1113"/><stop offset="1" stop-color="#3e6d87"/></linearGradient><linearGradient id="linear-gradient-3" x1="122.52" y1="139.17" x2="104.72" y2="27.93" xlink:href="#linear-gradient"/><linearGradient id="linear-gradient-4" x1="278.1" y1="146.19" x2="261.11" y2="40.03" xlink:href="#linear-gradient"/><linearGradient id="linear-gradient-5" x1="165.45" y1="148.46" x2="92.77" y2="55.01" xlink:href="#linear-gradient"/><linearGradient id="linear-gradient-6" x1="264.83" y1="139" x2="290.79" y2="75.22" xlink:href="#linear-gradient"/><linearGradient id="linear-gradient-7" x1="102.69" y1="178.05" x2="102.69" y2="280.89" xlink:href="#linear-gradient"/><linearGradient id="linear-gradient-8" x1="280.19" y1="180.52" x2="280.19" y2="224.03" xlink:href="#linear-gradient"/><linearGradient id="linear-gradient-9" x1="217.79" y1="110.28" x2="217.79" y2="23.49" xlink:href="#linear-gradient-2"/></defs><circle class="cls-1" cx="190" cy="190" r="190.27" transform="translate(-78.43 190.27) rotate(-45)"/><path class="cls-2" d="M251.56,351.6c-7.37-19.29.68-71.2.68-71.2l-121.35-8.9s1.34,68.23-3.35,81.58c-1.39,3.95-5.88,8.21-11.52,12.27a190.81,190.81,0,0,0,146.59.56C257.7,361.68,253.58,356.86,251.56,351.6Z" transform="translate(0.27 0.27)"/><path class="cls-3" d="M287.92,202.15a16.11,16.11,0,0,0-8.15-4.45l-1.61,1c.89-23.59-.78-55.79-1.11-56.78-.5-1.49-11.38-22.75-21.76-29.67S232.55,97.46,221.67,95s-29.17,6.42-43,14.33-54.89,40.05-57.36,44c-1.89,3-8.4,32-11.36,45.54l-24.11-3c-3.71.74-9.28,10-9.28,10-.74,9.64,1.86,19.66,2.6,22.62s3.71,12.61,3.71,12.61c.74,9.64,17.06,23.36,27.07,19.65H111c5.93,3.71,9.27,11.87,11.5,18.55A42.51,42.51,0,0,0,138.48,303c13.35,10,30,23.73,36.71,28.55a59.26,59.26,0,0,0,38.94,11.13c19.29-1.12,27.81-12.24,31.15-18.92s13.35-17.79,17.43-23,6.3-14.09,8.53-28.55,5.93-20,8.16-24.84c1.78-3.86,3.79-8.44,3-18.48l.32-.07C285.33,220.32,286.81,210.68,287.92,202.15Z" transform="translate(0.27 0.27)"/><path class="cls-3" d="M141.08,265.07c-7.42-8.41-25.22-27.69-25.22-27.69l-5.93-3.95s3.46,14.34,1,22.74c-1,3.33-2.66,4.72-4.33,5.18a10.3,10.3,0,0,0,3.34-.61H111c5.93,3.71,9.27,11.87,11.5,18.55A42.51,42.51,0,0,0,138.48,303c11.52,8.64,25.53,20,33.44,26.1a59.65,59.65,0,0,1-6.61-9.17C162.34,314,148.5,273.48,141.08,265.07Z" transform="translate(0.27 0.27)"/><path class="cls-3" d="M271.24,272.24c2.22-14.46,5.93-20,8.16-24.84,1.68-3.66,3.58-8,3.1-16.94h0c-2,12.86-6.93,17.31-10.39,22.74s-9.89,30.16-13.84,39.07c-3.44,7.72-8.73,22.9-10.07,26.76,4.42-6.37,11.3-14.14,14.52-18.24C266.79,295.6,269,286.7,271.24,272.24Z" transform="translate(0.27 0.27)"/><path class="cls-3" d="M233,245.79l-3.95-7.42a70.06,70.06,0,0,1-1-8.65c0-3-1.48-9.89-2-11.87s-1.48-10.38-1-14.09c0,0,2.47,7.17,4.2,9.89s12.61,12.86,14.84,17.55S243.92,248,242.93,252l-5.19-4.45Z" transform="translate(0.27 0.27)"/><path class="cls-3" d="M199.42,244.3s4.21-4.69,5.19-8.4-.49-22.74-1-26.21-6.42-13.1-6.42-13.1-3,9.64-6.18,13.35-11.62,14.83-11.87,21,2.47,13.6,7.66,22.5l4-3.71Z" transform="translate(0.27 0.27)"/><path class="cls-3" d="M137.62,207.22s6.92,16.32,22.74,15.33,20.27-12.86,20.27-12.86l-19.28-3.95Z" transform="translate(0.27 0.27)"/><path class="cls-3" d="M234.53,209.69s6.42,11.87,17.8,11.87,16.81-14.34,16.81-14.34l-21.26,1Z" transform="translate(0.27 0.27)"/><path class="cls-3" d="M141.82,211.24s17.24,10.57,34.86,1.67c0,0-9.08,12-17.8,11.12C149.05,223.11,141.82,211.24,141.82,211.24Z" transform="translate(0.27 0.27)"/><path class="cls-3" d="M238.65,213.58s7.37,4.14,14.68,2.88a29.93,29.93,0,0,0,13-6.27s-3.62,10.69-12.15,11.8C246.38,223,238.65,213.58,238.65,213.58Z" transform="translate(0.27 0.27)"/><path class="cls-3" d="M139.59,207.22s-23.23-7.41-10.87-25.21c0,0,12.85-8.41,27.69-5.44S195,191.4,195,191.4s-1,16.32-14.83,17.8Z" transform="translate(0.27 0.27)"/><path class="cls-3" d="M234.53,209.69s-9.89-10.38-6.43-17.8,16.81-14.34,16.81-14.34l14.34-1.48,10.88,5,3.95,7.91s2,12.85-5.93,17.3l-17.31,5Z" transform="translate(0.27 0.27)"/><path class="cls-3" d="M234.06,246.23c2.12-3.53,7.3,2.2,7.94,4.26.89,2.87-.18,4.22-1.24,6.84Z" transform="translate(0.27 0.27)"/><path class="cls-3" d="M208.57,238.62s7.42-5.19,19.53-1.48v-3.22s-9.64-3.71-18.54.74Z" transform="translate(0.27 0.27)"/><path class="cls-3" d="M230.26,256.85a13,13,0,0,1-12,6.86c-5.93-.18-6.49-2.41-8.9-5s-7.42-3.33-7.42-3.33c-9.08-.74-13,3.33-13,3.33,1.12,2.6,7.05,5,7.05,5s9.23,9.38,18.35,10.48c.49,1,1.41,2.74,2.42,3.24s2.56-2.11,3.36-3.7c7.52-2.05,11.1-8.91,11.1-8.91,5.56-1.11,9.08-6.49,9.08-6.49A9.89,9.89,0,0,0,230.26,256.85Z" transform="translate(0.27 0.27)"/><path class="cls-4" d="M174.7,288.31s9.39,4.7,12.61,6.43,7.91,7.17,15.57,8.65a63.83,63.83,0,0,0,9.45.94A64.85,64.85,0,0,0,227.46,303c4.6-1,7.69-3.72,10.59-7.35,2-2.47,2.14-2.2,5.38-5.07a43.07,43.07,0,0,0,5.68-5.93,13.35,13.35,0,0,1-7.91,3.71c-4.94.49-22.74-1.73-22.74-1.73l-26.7,2.22-11.62-.24Z" transform="translate(0.27 0.27)"/><path class="cls-5" d="M241.2,288.31c-4.94.49-22.74-1.73-22.74-1.73l-26.7,2.22-11.62-.24-5.44-.25s9.39,4.7,12.61,6.43a12.82,12.82,0,0,1,1.45.93c-1-1.08-2.41-3-1.21-3.65,1.74-1,15.08-2,22.26-.74s6.18,4,16.56-.75c0,0,9.64-.74,10.88,1.24s-2.72,7.42-2.72,7.42h.18a29.59,29.59,0,0,0,3.34-3.59c2-2.47,2.14-2.2,5.38-5.07a43.07,43.07,0,0,0,5.68-5.93A13.35,13.35,0,0,1,241.2,288.31ZM211.54,302.9a57,57,0,0,1-17.06-3.47l-.2.3a23.92,23.92,0,0,0,8.6,3.66,63.83,63.83,0,0,0,9.45.94A64.85,64.85,0,0,0,227.46,303a15.2,15.2,0,0,0,6.19-2.89,1.69,1.69,0,0,0-.36.12C230.57,301.41,220.43,303.14,211.54,302.9Z" transform="translate(0.27 0.27)"/><path class="cls-5" d="M213.27,290c-14.59-4.2-35.11,6.43-46.73-7.66,0,0,6.18,7.16,14.83,5.68,4.75-.81,9.15-2.93,13.67-4.51,4-1.39,8.07-2.87,12.3-3.1a13.33,13.33,0,0,1,5.43.71c.61.24,5.2,3.19,5.19,3.19,2.77-1.67,5.95-4.19,9.37-3.69,2.91.42,6.09,2.15,8.68,3.45,5.44,2.72,6.92,2.72,10.63,1.48s6.43-5.93,6.43-5.93A19.45,19.45,0,0,1,241,289.3c-4.2,1-11.12-.25-15.57-.25l-1,.25c-2.22,1.23-4.45,2.47-6.92,2.72a18.53,18.53,0,0,1-3.22-1.49Z" transform="translate(0.27 0.27)"/><path class="cls-5" d="M213.29,290c-7.33-2.41-15.75-.69-23.25-.24-8.74.52-17.35-.46-23.49-7.35,0,0,0,0,0,0,5.21,6.49,13.11,7.9,21,7.71,8.63-.21,17.13-1.92,25.69,0A.08.08,0,1,0,213.29,290Zm11-.91c-3.45,1.38-6.37,3.59-10.06,1.48,0,0,0,0,0,0,1.44,1.06,2.75,2,4.55,1.69a15.09,15.09,0,0,0,5.72-2.71C224.73,289.36,224.61,288.94,224.32,289.05ZM253,279.62a34.26,34.26,0,0,1-4.88,5.8,19.91,19.91,0,0,1-7.2,3.74c-2.46.75-5.43.42-7.95.27s-5.05-.4-7.59-.39c0,0,0,0,0,0,5.23.12,11,1.72,16.13.22,4.84-1.41,9.54-4.89,11.62-9.58C253.17,279.6,253.06,279.54,253,279.62Z" transform="translate(0.27 0.27)"/><path class="cls-3" d="M112.9,215.63s11.37-21.26,12.36-26.21,13.84-15.33,15.32-15.82,5.44-8.9,6.92-19.28c0,0,10.39-9.89,17.81-18.3s27.19-18.29,47.46-20.27,38.57,13.84,43,17.8,12.36,14.83,13.35,22.75.49,20.76.49,20.76l4.95,14.34s-1.49,16.81,3,20.77c0,0,1.48-25.22,2.47-28.68s-3-41.53-3-41.53-11.38-23.24-13.85-24.73-21.26-9.39-21.26-9.39-26.2-6.92-33.62-7.42-42,6.43-44.5,7.42S125.75,138,123.28,140,105,171.62,104.49,173.6s0,23.73.5,25.22,4,19.77,4,19.77l2.47,12.86Z" transform="translate(0.27 0.27)"/><path class="cls-6" d="M198.56,258.33h-1.67c5.19,5.57,10.38,2.6,10.38,2.6C203.75,257.59,198.56,258.33,198.56,258.33Zm33,0-1.67,2.6-.93,1.3c4.64,0,6.49-2.78,6.49-2.78C234.34,258.33,231.56,258.33,231.56,258.33Z" transform="translate(0.27 0.27)"/><path class="cls-7" d="M194,259.7c-1.93-1.95-2.61-5.68-2.21-8.57.78-5.75,6.52-7.3,10.49-7.74.07,0,.07-.12,0-.12-4.47-.32-10.26,1.5-11.33,7.57-1.34,7.57,4.62,10.51,9.17,13.1,0,0,.06,0,0-.06C198.08,262.57,195.82,261.53,194,259.7Zm41.4-15.89s-.09,0-.06.08c2.5,3,4.48,6,3.71,10.41-.72,4.12-3.63,7-6.48,9.07,0,0,0,.05,0,0,3.05-2.06,6.3-5,7.28-9.3S238.23,245.8,235.41,243.81Zm-8.61-18.7c.34,3.89-.17,7.85.67,11.67a14.86,14.86,0,0,0,.51,1.64,12.49,12.49,0,0,0,1,1.7c.84,1.65,1.77,3.23,2.69,4.81,0,.09.15,0,.11-.08-.77-1.52-1.6-3-2.34-4.55a26.87,26.87,0,0,1-1.09-3.39c-1.14-3.77-.77-7.88-1.16-11.8-.42-4.31-1.49-8.49-1.89-12.78-.2-2.08-.24-4.23-.41-6.33a31,31,0,0,1,0-6.94c0-.06-.06-.08-.07,0a32.77,32.77,0,0,0-.1,12.13A109.71,109.71,0,0,1,226.8,225.11ZM198,258.62c-.08.06,0,.2.07.15,3.1-1.75,7.26-.93,10.23.81.09.05.2-.1.12-.18A8.08,8.08,0,0,0,198,258.62Zm36.38.82c-1-1-2.46-2.05-3.81-1.67l0,0c0-.14-.09-.31-.19-.18L230,258,230,258a.14.14,0,0,0-.06.16,43.49,43.49,0,0,1-3.47,4.75,10.44,10.44,0,0,1-4.84,2.87,16.41,16.41,0,0,1-5.84.34c-2.74-.22-4.44-3.55-6.56-5.4,0,0-.05,0,0,0,.82.88,1.62,1.8,2.41,2.72s2.05,2,2.38,3.12a.45.45,0,0,0,.28.34c3.05.56,6.45.6,9.33-.92a15.89,15.89,0,0,0,6.75-7.74,6.56,6.56,0,0,1,1.77,0,5,5,0,0,1,2.22,1.2S234.37,259.48,234.34,259.44Z" transform="translate(0.27 0.27)"/><path class="cls-3" d="M104.74,246.1s-8.72.37-12.24-2.41-6.86-6.68-7-12.61S81,222,79,212.17c0,0-2-6.12,3.16-5.75s8.34,6.49,8.34,6.49l4.82,8.34,5.93,5.94,3.34,7.23.37,6.86Z" transform="translate(0.27 0.27)"/><path class="cls-7" d="M281.62,220.32a44.76,44.76,0,0,1,4.45-16.68s-.12,13.72-3.58,23.11Z" transform="translate(0.27 0.27)"/><path class="cls-3" d="M79.52,207C87.68,202.15,94,219.21,98.8,224c2.22,2.38,6.3,5.61,7.19,8.83s-2.06,6-1.16,9.25,5.68,5.49,5.47,9l-6.55-5.56s-9.4-3.21-9.4-8.16c0,0,.25-4.45,1.24-5.93s-3.46-7.67-6.43-5.19c0,0,3.22-4.7.5-8.9s-5.94-8.66-5.94-8.66Z" transform="translate(0.27 0.27)"/><path class="cls-8" d="M89.47,252.41a23,23,0,0,1-5.92-9.36c-.25-.87-.28-1.76-.55-2.62-.41-1.33-.82-2.67-1.22-4-2.17-7.14-4.11-14.26-4.82-21.72a55.44,55.44,0,0,1-.18-8.15A5.28,5.28,0,0,1,78.06,204c1.83-2.75,4-5.83,6.83-7.59a3.43,3.43,0,0,1,1-.4.2.2,0,0,0-.11-.38c-2.64.6-4.65,3.31-6.2,5.34-1.17,1.52-3.2,3.55-3.34,5.55-.57,8.19,1.07,16.54,3.27,24.39.87,3.1,1.8,6.18,2.74,9.26.7,2.3,1,4.49,2.18,6.66a30.74,30.74,0,0,0,16.16,13.71,13.67,13.67,0,0,0,9.35.19s0,0,0,0C102.63,263.1,94.32,257.31,89.47,252.41Zm191.69-32.06c1.34,7.63,2.27,15.82-.33,23.3-1.67,4.78-4.41,9.11-6.15,13.87-3.38,9.27-3.95,19.22-6.18,28.77a49.59,49.59,0,0,1-3.7,10.93c-1.46,2.93-3.69,5.37-5.78,7.87-5,6-10.47,12.06-14.08,19.08a33.19,33.19,0,0,1-12.31,13.06c-8.39,5.11-18.64,6-28.23,5.19a58.58,58.58,0,0,1-24.32-7.8c-5.81-3.38-11-7.82-16.25-12-7.64-6-15.24-12.09-23-18A55.14,55.14,0,0,1,129.66,294a44.13,44.13,0,0,1-5.41-9.64,31.56,31.56,0,0,1-1.58-4.94,41.94,41.94,0,0,0-4-9.83,23,23,0,0,0-7.58-8.93c-.11-.07-.21.1-.1.17,6.29,4.09,9.85,12.36,11.66,19.39a41.82,41.82,0,0,0,8.13,15.57,57.6,57.6,0,0,0,10.42,9.42c4.18,3.18,8.32,6.42,12.45,9.68,6.56,5.17,13,10.44,19.71,15.47,12.66,9.55,28.61,14.31,44.48,12.11a37.33,37.33,0,0,0,20.51-9.22,33.25,33.25,0,0,0,5.28-6.31c1.58-2.43,2.78-5.06,4.41-7.47,4.51-6.66,10.08-12.51,15-18.87,4.49-5.82,5.83-14,7.13-21,1.67-9.08,2.78-18.06,6.65-26.54,1.93-4.21,4.26-8.19,5.24-12.77,1.4-6.54.48-13.47-.69-20C281.32,220.17,281.13,220.23,281.16,220.35Zm7.07-18.5a15.47,15.47,0,0,0-8.4-4.4.26.26,0,0,0-.13.5,20.47,20.47,0,0,1,7.12,3.75c1.36,1.16.58,3.34.36,4.87s-.45,3.06-.69,4.58a136.86,136.86,0,0,1-3.85,17.68c0,.12.15.17.19,0a125.62,125.62,0,0,0,3.12-13c.42-2.2.78-4.4,1.12-6.62.17-1.08.33-2.16.48-3.25s.12-2.67.75-3.63A.44.44,0,0,0,288.23,201.85Z" transform="translate(0.27 0.27)"/><path class="cls-9" d="M286,203.61a40.49,40.49,0,0,0-4.56,16.71c0,.2.28.19.3,0a52.38,52.38,0,0,1,4.34-16.66s-.05-.1-.08,0Z" transform="translate(0.27 0.27)"/><path class="cls-8" d="M107.33,245.16c-1.24-1.36-2.28-2.71-2.33-4.62s1-3.67,1.27-5.5c.4-2.56-1.32-4.78-2.91-6.58-1.93-2.2-4.25-4-6-6.36-2.88-3.94-5.05-8.35-8.24-12.07-2.47-2.88-5.92-5.25-9.63-3.09a0,0,0,0,0,0,.07c4.56-2.43,8.34,1.76,10.85,5.13s4.54,7.27,7.16,10.65a62.35,62.35,0,0,0,4.87,5,18.33,18.33,0,0,1,2.94,3.79c1.07,1.94.54,3.92-.17,5.86-.9,2.46-1.28,4.53.26,6.79s4.45,3.94,4.57,6.85a.28.28,0,0,0,.56,0C110.7,248.6,108.9,246.88,107.33,245.16Zm-12.51-7a9.54,9.54,0,0,1,2.05-7.6,23.55,23.55,0,0,1,2.19-1.94c.42-.42.15-1.51.14-2a0,0,0,0,0,0,0c0,1.39-.4,1.15-1.43,1.85a9.13,9.13,0,0,0-2.17,2.34,9.56,9.56,0,0,0-1.65,6.58c.78,5.3,6.79,5.8,10.39,8.59a.11.11,0,0,0,.15-.16C101.55,242.57,95.91,243.18,94.82,238.18Zm-4.48-26.05a.07.07,0,0,0-.13.07c2.26,4.78.77,9.1-1,13.75-1.34,3.5-2.37,7.09-.82,10.7,0,0,.06,0,0,0C84.92,228.27,95,220.53,90.34,212.13Z" transform="translate(0.27 0.27)"/><path class="cls-10" d="M124.76,191s3.34-7.42,14.09-9.64,17.8-2.23,24.85.74,13.72,6.67,18.91,7.42a42.9,42.9,0,0,1,8.16,1.85l4.08,1.11s.37-8.9-3.34-13a27.18,27.18,0,0,1,.74,5.57s-3-5.94-7-8.9l1.48,3.7s-4.45-5.56-7.42-7-31.52-3.71-43,.37S124.76,191,124.76,191Z" transform="translate(0.27 0.27)"/><path class="cls-10" d="M274.27,191s-2.23-7.42-9.43-9.64-11.91-2.23-16.63.74-9.18,6.67-12.65,7.42a21.13,21.13,0,0,0-5.46,1.85l-2.73,1.11s-.25-8.9,2.23-13a39.49,39.49,0,0,0-.5,5.57s2-5.94,4.72-8.9l-1,3.7s3-5.56,5-7,21.09-3.71,28.78.37S274.27,191,274.27,191Z" transform="translate(0.27 0.27)"/><path class="cls-7" d="M241.59,195.5c3.83-3,9.44-3.2,14-2.15a20,20,0,0,1,12.11,7.9s.1,0,.07,0c-2.42-4.26-7.35-7.36-11.95-8.7-5.19-1.51-10.23-.71-14.25,3,0,0,0,.06,0,0Z" transform="translate(0.27 0.27)"/><path class="cls-6" d="M268.18,207.07s-4.91-10-14.18-11.31-15.58,5.56-16.51,8.06,16.32,10.39,16.32,10.39S263,213.74,268.18,207.07Z" transform="translate(0.27 0.27)"/><path class="cls-11" d="M265.84,207.31c-5.4-10.91-24.09-15.15-30-.34h-.07l-.49,1c-.5,1-.5,2.11.37,2.23a18.88,18.88,0,0,0,2.1.12,19.88,19.88,0,0,0,11.62,4.27,20.44,20.44,0,0,0,16.69-7.05Z" transform="translate(0.27 0.27)"/><path class="cls-12" d="M259.83,204.47a10.45,10.45,0,0,0-1-4.43c-6.15-3.58-14.27-3.85-19.53,1.47a10.7,10.7,0,0,0-.43,3,10.47,10.47,0,0,0,5.8,9.36,16.89,16.89,0,0,0,4.68.75,23,23,0,0,0,2.88,0A10.47,10.47,0,0,0,259.83,204.47Z" transform="translate(0.27 0.27)"/><path class="cls-12" d="M249.36,213.74a9.26,9.26,0,0,0,7.5-14.71c-5-2.21-11-2.31-15.5.77a9.26,9.26,0,0,0,8,13.94Z" transform="translate(0.27 0.27)"/><path class="cls-6" d="M254.83,204.47a5.47,5.47,0,1,1-5.47-5.47A5.47,5.47,0,0,1,254.83,204.47Z" transform="translate(0.27 0.27)"/><path class="cls-6" d="M253.22,204.47a3.86,3.86,0,1,1-3.86-3.86A3.86,3.86,0,0,1,253.22,204.47Z" transform="translate(0.27 0.27)"/><path class="cls-3" d="M251.6,199.93a2.24,2.24,0,1,1-2.24-2.24A2.24,2.24,0,0,1,251.6,199.93Z" transform="translate(0.27 0.27)"/><path class="cls-7" d="M171.36,195.5c-4.57-3-11.28-3.2-16.7-2.15-5.94,1.15-10.92,3.76-14.47,7.9,0,0-.11,0-.08,0,2.89-4.26,8.78-7.36,14.27-8.7,6.2-1.51,12.23-.71,17,3,0,0,0,.06,0,0Z" transform="translate(0.27 0.27)"/><path class="cls-6" d="M139.59,207.07s5.87-10,16.95-11.31,18.6,5.56,19.71,8.06-19.49,10.39-19.49,10.39S145.8,213.74,139.59,207.07Z" transform="translate(0.27 0.27)"/><path class="cls-13" d="M142.39,207.31c6.44-10.91,28.78-15.15,35.86-.34h.07l.59,1c.59,1,.59,2.11-.44,2.23s-2.51.12-2.51.12a28.48,28.48,0,0,1-33.82-2.78Z" transform="translate(0.27 0.27)"/><path class="cls-12" d="M169.72,204.47a10.41,10.41,0,0,0-2.13-6.31,24.87,24.87,0,0,0-18.11,2.55,10.39,10.39,0,0,0-.71,3.76,10.49,10.49,0,0,0,6.32,9.62,29.93,29.93,0,0,0,6.87.49A10.47,10.47,0,0,0,169.72,204.47Z" transform="translate(0.27 0.27)"/><path class="cls-12" d="M159.25,213.74a9.26,9.26,0,0,0,6.33-16,25.24,25.24,0,0,0-14.34,2.1,9.27,9.27,0,0,0,8,13.93Z" transform="translate(0.27 0.27)"/><path class="cls-6" d="M164.72,204.47a5.47,5.47,0,1,1-5.47-5.47A5.47,5.47,0,0,1,164.72,204.47Z" transform="translate(0.27 0.27)"/><path class="cls-6" d="M163.11,204.47a3.86,3.86,0,1,1-3.86-3.86A3.86,3.86,0,0,1,163.11,204.47Z" transform="translate(0.27 0.27)"/><path class="cls-3" d="M159.25,197.69a2.24,2.24,0,1,0,2.24,2.24A2.24,2.24,0,0,0,159.25,197.69Z" transform="translate(0.27 0.27)"/><path class="cls-14" d="M241.94,54.56c0-12.6-7.78-26.32-7.78-26.32,3,20-10.39,33-10.39,33,12.24-17.8,6.68-37.08,6.68-37.08-2.23,24.47-23.74,43.38-30,51.17s-9.64,26.7-9.64,26.7,11.12-14.83,16.31-22.62a19.53,19.53,0,0,1,13.35-8.53c-8.52,13.72-6.67,23.36-6.67,23.36-.74-7.78,8.9-21.88,12.24-23.36s5.19,6.31,5.19,6.31c-4.82,22.24,2.6,27.07,2.6,27.07-7-18.92,5.19-37.83,5.19-37.83,3,13.72,9.27,16.69,9.27,16.69C243.8,78.67,241.94,67.17,241.94,54.56ZM259,78.67c-2.59-4.82-11.5-8.9-14.83-22.62v4.82s1.11,11.49,5.93,20.76.74,21.14-2.22,28.19c0,0,9.64-10.76,6.67-24.48,0,0,3.71,5.57,3.34,10.76C257.89,96.1,261.6,83.49,259,78.67Zm-81.21,8.16c-3.71,7.41-1.48,15.57-1.48,15.57,0-7.41,6.3-16.69,6.3-16.69-1.85,12.61,3,19.66,3,19.66a173.54,173.54,0,0,1,1.85-18.91c1.48-8.9,9.27-16.69,9.27-16.69S181.5,79.41,177.79,86.83Z" transform="translate(0.27 0.27)"/><path class="cls-15" d="M134.65,66.8c4.94-3,16.81-5.93,28.18-8.4s28.68-9.4,36.1-15.82a45.8,45.8,0,0,1-13.85,11.86s26.21-7.91,32.14-17.8A90.25,90.25,0,0,0,224,23.09c-1.53,2.32-3.7,5.71-5.77,9.23-3.71,6.3-17.8,13.35-17.8,13.35s5.56-8.16,5.93-14.1c0,0-8.52,15.58-43.75,23.37,0,0-21.88,2.22-31.52,9.27-4.92,3.59-10.79,7.37-16.15,11.79l.45.2S129.71,69.77,134.65,66.8Z" transform="translate(0.27 0.27)"/><path class="cls-16" d="M164.43,123.17c.75-2.12,2.86-4,5.07-5.33-4,1.66-8.24,2.92-12,5.66a9.78,9.78,0,0,1,1.85-4.69c-4.08.62-10.88,4.07-14.19-.08-3.88-4.88.54-13.22-3.56-18.32-7.52-9.35-24.93-3.53-24.79-17.72-2.19.44-4.65,1.35-6.8,1.85.94-5,5.06-7.9,8.46-11.31-.81.61-1.62,1.23-2.41,1.86l-.06,0-1,.86a1.84,1.84,0,0,0-.22.17l-.91.76-.24.21-.92.81-.18.16c-.73.65-1.44,1.31-2.13,2l-.22.22-.78.78-.31.32-.68.72c-.1.12-.2.23-.31.34l-.68.78-.25.29c-.61.71-1.19,1.45-1.75,2.2l-.24.33-.57.8-.28.41-.49.76-.27.43-.48.82-.22.38c-.23.41-.44.81-.65,1.23,0,0-4.45,7-8.16,9.64s-14.46,8.9-13,27.81c0,0,1.49-8.9,8.9-13,0,0-7.41,15.58-10,27.07a170.73,170.73,0,0,0,.37,23.36c1.12,10.76,4.45,24.85,1.49,32.64-.75,2,3.7-2.6,5.93-2.6,0,0,5.56,9.64,8.16,12.24s6.3,6.3,7.78,10.75,4.45,13.72,7.42,17.8,9.27,21.14,9.64,24.85l3.34-.75s-5.19-18.91-7.79-24.84-4.08-16-2.59-24.48,4.82-26.32,5.56-36c0,0,14.09-11.49,21.14-19.65s15.2-18.54,15.2-18.54a66.88,66.88,0,0,1-5.93,9.64s9.64-6.67,14.83-12.24c.29-.31.61-.64.94-1l.69-.67.3-.3,1-.9.07-.06,1.13-1C165.4,129,162.89,127.47,164.43,123.17Z" transform="translate(0.27 0.27)"/><path class="cls-17" d="M265.68,139.86S271.61,154,272,161s2.6,14.46,3.71,18.17,1.85,12.24.74,19.29,2.22,17.42,2.22,17.42l1.86,4.45a46.65,46.65,0,0,1-1.11-11.86c.37-5.56.37-16.69,2.59-22.62s8.9-25.59,10-28.93a33.75,33.75,0,0,0-1.48-9.64s2.79,3.73,3.26,6.07a47.6,47.6,0,0,0-2.15-9.78c-1.48-3.7.75-27.07-3.33-37.08,0,0-7.69-12.37-14.19-17.74,1.48,3,2.85,6.21,2.94,9.21.24,8.54-5,1.33-8.54,5.89-4.09,5.2,4.48,15.12,1.13,20.81-2.68,4.55-7.35,2.25-7.5,9.82a3.71,3.71,0,0,1-2.89-.43l-.2.33A29,29,0,0,0,265.68,139.86Z" transform="translate(0.27 0.27)"/><path class="cls-18" d="M149.61,146.9s9.64-6.67,14.83-12.24c.29-.31.61-.64.94-1l.69-.67.3-.3,1-.9.07-.06,1.13-1c-3.14-1.76-5.65-3.29-4.11-7.59.75-2.12,2.86-4,5.07-5.33-4,1.66-8.24,2.92-12,5.66a9.78,9.78,0,0,1,1.85-4.69c-4.08.62-10.88,4.07-14.19-.08-3.88-4.88.54-13.22-3.56-18.32-7.52-9.35-24.93-3.53-24.79-17.72-2.19.44-4.65,1.35-6.8,1.85.94-5,5.06-7.9,8.46-11.31-.81.61-1.62,1.23-2.41,1.86l-.06,0-1,.86a1.84,1.84,0,0,0-.22.17l-.91.76-.24.21-.92.81-.18.16c-.73.65-1.44,1.31-2.13,2l-.22.22-.78.78-.31.32-.68.72c-.1.12-.2.23-.31.34l-.68.78-.25.29c-.61.71-1.19,1.45-1.75,2.2l-.24.33-.57.8-.28.41-.49.76-.27.43-.48.82-.22.38c-.23.41-.44.81-.65,1.23a61.49,61.49,0,0,1-4.54,6.15c14.6-3.55,36.23-4.15,41.38,8.31,2.86,6.93,1.78,17.76,2.59,25.21.48,4.43,3,10.54,6.77,15.65,4.06-5,7.2-9,7.2-9A66.88,66.88,0,0,1,149.61,146.9Z" transform="translate(0.27 0.27)"/><path class="cls-19" d="M274.11,88.74c1.48,3,2.85,6.21,2.94,9.21.24,8.54-5,1.33-8.54,5.89-4.09,5.2,4.48,15.12,1.13,20.81a6.27,6.27,0,0,1-.38.57c2.14-1.92,3.61-4.25,2.86-8-.92-4.61-3-6.64,2-9,4.19-2,10.29-1.83,14.66-.52-.14-.43-.29-.84-.44-1.23C288.3,106.48,280.61,94.11,274.11,88.74Z" transform="translate(0.27 0.27)"/><path class="cls-20" d="M81.75,198.45c-.75,2,3.7-2.6,5.93-2.6,0,0,5.56,9.64,8.16,12.24s6.3,6.3,7.78,10.75,4.45,13.72,7.42,17.8,9.27,21.14,9.64,24.85l3.34-.75s-5.19-18.91-7.79-24.84-4.08-16-2.59-24.48,4.82-26.32,5.56-36c0,0,.51-.41,1.38-1.14-17.22,0-31.17,0-39.22-.09C82.64,183.12,84,192.57,81.75,198.45Z" transform="translate(0.27 0.27)"/><path class="cls-21" d="M275.69,179.16c1.11,3.71,1.85,12.24.74,19.29s2.22,17.42,2.22,17.42l1.86,4.45a46.65,46.65,0,0,1-1.11-11.86c.37-5.56.37-16.69,2.59-22.62.89-2.36,2.47-6.89,4.14-11.69l-11.87,0C274.79,176.16,275.31,177.88,275.69,179.16Z" transform="translate(0.27 0.27)"/><path class="cls-22" d="M177.79,86.83a21.64,21.64,0,0,0-2.14,9.26l0,.13s0-9.39,12.36-18.79c0,0-4.2,13.6-2.22,23.24l0-.07c.26-3.73.74-9.11,1.58-14.14,1.48-8.9,9.27-16.69,9.27-16.69S181.5,79.41,177.79,86.83Zm56.37-58.59c3,20-10.39,33-10.39,33,12.24-17.8,6.68-37.08,6.68-37.08-2.23,24.47-23.74,43.38-30,51.17-2.82,3.49-5,9.21-6.65,14.46l0,.75s4.44-11.87,10.38-17.06,21.26-22.5,25.71-39.8c0,0,1.24,17.79-10.14,31.64,0,0,14.84-7.42,16.81-27.44,0,0,4.21,10.38,5.69,27.44l.33.68a106.61,106.61,0,0,1-.58-11.44C241.94,42,234.16,28.24,234.16,28.24ZM259,78.67c-2.59-4.82-11.5-8.9-14.83-22.62v4.82a69.24,69.24,0,0,0,4.33,17.31l.37.74s-2.23-9.15-2-11.87A60.17,60.17,0,0,0,254.06,75c2.95,2.53,5.35,7.58,5.54,13C260.06,84.52,260.16,80.82,259,78.67Z" transform="translate(0.27 0.27)"/><path class="cls-23" d="M81.75,198.45c-.75,2,3.7-2.6,5.93-2.6,0,0,5.56,9.64,8.16,12.24s6.3,6.3,7.78,10.75,4.45,13.72,7.42,17.8,9.27,21.14,9.64,24.85l3.34-.75s-5.19-18.91-7.79-24.84-4.08-16-2.59-24.48,4.82-26.32,5.56-36c0,0,14.09-11.49,21.14-19.65s15.2-18.54,15.2-18.54a66.88,66.88,0,0,1-5.93,9.64s9.64-6.67,14.83-12.24,16.32-14.09,25.22-15.94,14.46-7,16.31-10a33.38,33.38,0,0,1-7.41,8.15s11.49-2.22,15.2-8.9c0,0,5.93,6.68,13.35,8.53,0,0-1.48-1.11-2.6-4.45,0,0,8.91,7.42,15.58,8.9a11.53,11.53,0,0,1-3.34-5.19s8.9,8.16,15.21,10.38c0,0,8.52,11.13,13.72,13.73,0,0,5.93,14.09,6.3,21.13s2.6,14.46,3.71,18.17,1.85,12.24.74,19.29,2.22,17.42,2.22,17.42l1.86,4.45a46.65,46.65,0,0,1-1.11-11.86c.37-5.56.37-16.69,2.59-22.62s8.9-25.59,10-28.93a33.75,33.75,0,0,0-1.48-9.64s3.34,4.45,3.34,6.68c0,0-.74-6.68-2.23-10.39s.75-27.07-3.33-37.08c0,0-8.53-13.72-15.21-18.54S254.18,59.76,251.21,49c0,0,1.12,13.35,4.08,20.77,0,0-10-12.24-12.61-24.85A49.89,49.89,0,0,0,233,24.16s-.74-6.31-4.08-9.64c0,0,3,8.53-5.19,15.2,0,0,1.11-7,2.23-9.64,0,0-4.08,5.93-7.79,12.24s-17.8,13.35-17.8,13.35,5.56-8.16,5.93-14.1c0,0-8.52,15.58-43.75,23.37,0,0-21.88,2.22-31.52,9.27s-23,14.83-28.93,26.7c0,0-4.45,7-8.16,9.64s-14.46,8.9-13,27.81c0,0,1.49-8.9,8.9-13,0,0-7.41,15.58-10,27.07a170.73,170.73,0,0,0,.37,23.36C81.38,176.57,84.71,190.66,81.75,198.45Z" transform="translate(0.27 0.27)"/></svg>